<?xml version="1.0" encoding="UTF-8" standalone="no"?>
<!DOCTYPE svg PUBLIC "-//W3C//DTD SVG 1.1//EN" "http://www.w3.org/Graphics/SVG/1.1/DTD/svg11.dtd">
<svg>
<metadata>
Created by FontForge 20120731 at Sat May 21 19:41:16 2016
 By www
Copyright (c) 2015 by Fontfabric LLC. All rights reserved.
</metadata>
<defs>
<font id="MullerW00-Medium" horiz-adv-x="636">
  <font-face font-family="MullerW00-Medium" font-weight="500" font-stretch="normal" units-per-em="1000" panose-1="1 0 0 0 0 0 0 0 0 0" ascent="800" descent="-200" x-height="480" cap-height="700" bbox="-160 -256 1275 969" underline-thickness="50" underline-position="-125" unicode-range="U+0020-25CA"/>
<missing-glyph horiz-adv-x="236"/>
    <glyph glyph-name="f_f.liga" unicode="ff" horiz-adv-x="709" d="M724 611q-18 9 -42.5 15t-50.5 6q-20 0 -37.5 -3.5t-31 -13.5t-21.5 -27.5t-8 -45.5v-62h165v-94h-165v-386h-107v386h-210v-386h-107v386h-87v94h87v42q0 46 15.5 80t42 56.5t62.5 33.5t78 11t79 -9t75 -29q26 34 64.5 47.5t79.5 13.5q33 0 64 -6t55 -15v-94zM427 480 v60q0 12 0.5 22.5t1.5 20.5q-23 14 -47.5 21t-59.5 7q-47 0 -76.5 -21.5t-29.5 -67.5v-42h211z"/>
    <glyph glyph-name="f_f_i.liga" unicode="ffi" horiz-adv-x="909" d="M109 0v386h-87v94h87v42q0 46 15.5 80t42 56.5t62.5 33.5t78 11q44 0 82 -10t80 -30q28 32 70 47.5t93 15.5q41 0 78.5 -8t76.5 -25v-98q-35 18 -69.5 27.5t-71.5 9.5q-48 0 -80.5 -22.5t-32.5 -75.5v-54h307v-480h-107v386h-200v-386h-107v386h-210v-386h-107zM216 480 h211v55q0 28 4 48q-25 14 -50 21t-60 7q-46 0 -75.5 -21.5t-29.5 -67.5v-42z"/>
    <glyph glyph-name="f_f_l.liga" unicode="ffl" horiz-adv-x="919" d="M620 723q41 0 74.5 -7.5t65.5 -21.5l90 18v-712h-107v608q-50 21 -105 21q-44 0 -74.5 -22t-30.5 -74v-53h141v-94h-141v-386h-107v386h-210v-386h-107v386h-87v94h87v42q0 46 15.5 80t42 56.5t62.5 33.5t78 11q44 0 82 -10t80 -30q26 30 65 45t86 15zM427 535q0 28 4 48 q-25 14 -50 21t-60 7q-46 0 -75.5 -21.5t-29.5 -67.5v-42h211v55z"/>
    <glyph glyph-name=".notdef" horiz-adv-x="236"/>
    <glyph glyph-name=".null" horiz-adv-x="0"/>
    <glyph glyph-name="nonmarkingreturn" horiz-adv-x="333"/>
    <glyph glyph-name="space" unicode=" " horiz-adv-x="236"/>
    <glyph glyph-name="exclam" unicode="!" horiz-adv-x="249" d="M76 220l-8 480h113l-8 -480h-97zM191 53q0 -33 -20 -49t-47 -16q-26 0 -46 16t-20 49t20 49t46 16q27 0 47 -16t20 -49z"/>
    <glyph glyph-name="quotedbl" unicode="&quot;" horiz-adv-x="358" d="M215 502v198h98l-23 -198h-75zM58 502v198h98l-23 -198h-75z"/>
    <glyph glyph-name="numbersign" unicode="#" horiz-adv-x="669" d="M72 0l38 162h-74v85h94l44 187h-88v85h109l38 162h104l-38 -162h157l38 162h104l-38 -162h73v-85h-93l-45 -187h88v-85h-108l-38 -162h-104l38 162h-157l-38 -162h-104zM233 247h157l45 187h-157z"/>
    <glyph glyph-name="dollar" unicode="$" horiz-adv-x="594" d="M246 -130v119q-56 6 -107 21t-93 38v112q58 -37 122.5 -53t124.5 -16q34 0 61.5 4.5t47.5 14.5t31 26.5t11 41.5q0 30 -17 50t-44.5 34t-63 24.5t-73 21.5t-73 25.5t-63 36.5t-44.5 53.5t-17 78.5q0 43 15.5 76t42 56t62.5 37t77 19v120h88v-119q51 -4 98.5 -17t82.5 -34 v-109q-43 29 -98 44t-112 14q-64 0 -102 -20t-38 -65q0 -38 29.5 -59t73 -35.5t95 -28.5t95 -36.5t73 -60.5t29.5 -100q0 -51 -17.5 -87t-48.5 -59t-72 -35t-88 -15v-118h-88z"/>
    <glyph glyph-name="percent" unicode="%" horiz-adv-x="909" d="M206 -60l409 820h89l-409 -820h-89zM376 549q0 -40 -14 -70.5t-37.5 -51.5t-54.5 -31.5t-65 -10.5q-35 0 -66 10.5t-55 31.5t-38 51.5t-14 70.5t14 70.5t38 51.5t55 31.5t66 10.5q34 0 65 -10.5t54.5 -31.5t37.5 -51.5t14 -70.5zM124 549q0 -32 19.5 -55.5t60.5 -23.5 q40 0 59 23.5t19 55.5t-19 55.5t-59 23.5q-41 0 -60.5 -23.5t-19.5 -55.5zM877 151q0 -40 -14 -70.5t-37.5 -51.5t-54.5 -31.5t-65 -10.5q-35 0 -66 10.5t-55 31.5t-38 51.5t-14 70.5t14 70.5t38 51.5t55 31.5t66 10.5q34 0 65 -10.5t54.5 -31.5t37.5 -51.5t14 -70.5z M626 151q0 -32 19.5 -55.5t60.5 -23.5q40 0 59 23.5t19 55.5t-19 55.5t-59 23.5q-41 0 -60.5 -23.5t-19.5 -55.5z"/>
    <glyph glyph-name="ampersand" unicode="&amp;" horiz-adv-x="715" d="M714 0h-127l-67 61q-45 -34 -103.5 -54t-130.5 -20q-56 0 -100.5 13.5t-75.5 38t-47.5 58t-16.5 73.5q0 35 13 64.5t33.5 53.5t46 43t50.5 34q-32 33 -56.5 74t-24.5 89q0 39 17 73t47 58.5t71.5 39t89.5 14.5q44 0 80.5 -12t63 -33.5t41 -52t14.5 -66.5q0 -39 -17.5 -70 t-44.5 -55.5t-59.5 -44t-62.5 -34.5l161 -152q20 31 30 67t9 74h108q0 -55 -18.5 -109t-54.5 -101zM427 543q0 35 -25 56t-70 21q-55 0 -87 -28t-32 -65q0 -33 21 -62t47 -56q23 11 49 24.5t47.5 30.5t35.5 36.5t14 42.5zM157 179q0 -46 36 -71.5t104 -25.5q45 0 82 12 t68 34l-188 172q-19 -10 -37 -22.5t-32.5 -27.5t-23.5 -32.5t-9 -38.5z"/>
    <glyph glyph-name="quotesingle" unicode="'" horiz-adv-x="201" d="M58 502v198h98l-23 -198h-75z"/>
    <glyph glyph-name="parenleft" unicode="(" horiz-adv-x="301" d="M281 810q-30 -48 -53.5 -103.5t-40 -114.5t-25 -120.5t-8.5 -121.5t8.5 -121.5t25 -120.5t40 -114.5t53.5 -103.5h-94q-33 48 -60.5 103t-46.5 114t-29.5 121t-10.5 122t10.5 121.5t29.5 121t46.5 114.5t60.5 103h94z"/>
    <glyph glyph-name="parenright" unicode=")" horiz-adv-x="301" d="M114 810q33 -48 60.5 -103t46.5 -114.5t29.5 -121t10.5 -121.5t-10.5 -122t-29.5 -121t-46.5 -114t-60.5 -103h-94q30 48 53.5 103.5t40 114.5t25 120.5t8.5 121.5t-8.5 121.5t-25 120.5t-40 114.5t-53.5 103.5h94z"/>
    <glyph glyph-name="asterisk" unicode="*" horiz-adv-x="457" d="M159 349l-82 57l87 98l-127 29l34 94l120 -52l-12 125h100l-12 -125l119 52l34 -94l-127 -29l87 -98l-81 -57l-70 121z"/>
    <glyph glyph-name="plus" unicode="+" horiz-adv-x="536" d="M496 398v-96h-180v-180h-96v180h-180v96h180v180h96v-180h180z"/>
    <glyph glyph-name="comma" unicode="," horiz-adv-x="237" d="M11 -148l59 248h113l-85 -248h-87z"/>
    <glyph glyph-name="hyphen" unicode="-" horiz-adv-x="482" d="M423 294v-96h-364v96h364z"/>
    <glyph glyph-name="period" unicode="." horiz-adv-x="231" d="M183 55q0 -34 -20 -50t-47 -16t-47.5 16t-20.5 50q0 32 20.5 48t47.5 16t47 -16t20 -48z"/>
    <glyph glyph-name="slash" unicode="/" horiz-adv-x="435" d="M27 -59l302 818h78l-302 -818h-78z"/>
    <glyph glyph-name="zero" unicode="0" horiz-adv-x="706" d="M48 340q0 75 18 139.5t55.5 112t95 74.5t136.5 27t136.5 -27t95 -74.5t55.5 -112t18 -139.5t-18 -139.5t-55.5 -112t-95 -74.5t-136.5 -27t-136.5 27t-95 74.5t-55.5 112t-18 139.5zM543 340q0 119 -46 184t-144 65q-99 0 -144.5 -65t-45.5 -184t45.5 -184t144.5 -65 q98 0 144 65t46 184z"/>
    <glyph glyph-name="one" unicode="1" horiz-adv-x="444" d="M301 680v-577h121v-103h-370v103h136v460l-136 -51v105l165 63h84z"/>
    <glyph glyph-name="two" unicode="2" horiz-adv-x="585" d="M66 624q53 36 109.5 52.5t116.5 16.5q52 0 95.5 -12t75.5 -36t50 -59.5t18 -83.5q0 -43 -16.5 -78t-43 -63.5t-60.5 -52t-68 -44.5q-33 -20 -64 -38t-55 -37t-38.5 -40.5t-14.5 -46.5l365 1v-103h-493v52q0 62 21 106.5t53.5 77.5t72.5 58t79 48q30 17 56.5 33t47 34 t32.5 40t12 51q0 45 -36 67.5t-99 22.5q-52 0 -107 -18.5t-109 -57.5v110v0z"/>
    <glyph glyph-name="three" unicode="3" horiz-adv-x="592" d="M518 507q0 -54 -27.5 -93.5t-73.5 -54.5q24 -8 47 -21.5t41.5 -34.5t29.5 -50t11 -68q0 -51 -21 -88.5t-57 -62t-83 -36t-99 -11.5q-69 0 -125.5 11t-110.5 34v110q55 -30 109.5 -41.5t117.5 -10.5q34 0 63 6t50.5 19t34 33t12.5 49t-11 48.5t-30.5 31.5t-46 17t-56.5 5 h-108v103l95 -1q63 0 96 25t33 67q0 46 -37 71.5t-107 25.5q-51 0 -102 -13.5t-101 -42.5v109q46 24 100.5 37t117.5 13q52 0 96 -13t75.5 -37t49 -58.5t17.5 -77.5z"/>
    <glyph glyph-name="four" unicode="4" horiz-adv-x="649" d="M503 680v-442h117v-99h-117v-139h-110v139h-369v97l362 444h117zM393 535l-242 -297h242v297z"/>
    <glyph glyph-name="five" unicode="5" horiz-adv-x="584" d="M511 680v-102h-314l-10 -164q49 12 103 12q49 0 94.5 -11.5t81 -37t56.5 -67t21 -101.5q0 -55 -22 -96.5t-59.5 -69.5t-87.5 -42t-106 -14q-60 0 -116.5 12t-101.5 34v107q43 -25 97 -37.5t108 -12.5q76 0 124.5 30t48.5 90q0 34 -13.5 57t-38.5 37.5t-59 21t-74 6.5 q-42 0 -86.5 -8t-86.5 -22l22 378h419z"/>
    <glyph glyph-name="six" unicode="6" horiz-adv-x="631" d="M163 376q49 29 96 42.5t102 13.5q44 0 86 -13.5t75 -41t53.5 -68t20.5 -94.5q0 -56 -20 -99t-54.5 -71.5t-80 -43t-96.5 -14.5q-78 0 -134 24t-92.5 69t-53.5 109t-17 145q0 94 24.5 161.5t67.5 111.5t100.5 65t122.5 21q94 0 176 -40v-104q-38 21 -80.5 32t-84.5 11 q-39 0 -74.5 -11t-64 -36t-48 -66.5t-24.5 -102.5zM164 275q10 -103 55 -146.5t117 -43.5q30 0 56 7t46 22t31.5 38.5t11.5 57.5q0 35 -12.5 58.5t-33.5 37.5t-48.5 20t-57.5 6q-43 0 -85.5 -14t-79.5 -43z"/>
    <glyph glyph-name="seven" unicode="7" horiz-adv-x="551" d="M531 680v-90l-282 -590h-123l276 578h-376v102h505z"/>
    <glyph glyph-name="eight" unicode="8" horiz-adv-x="653" d="M70 511q0 33 14.5 66t45.5 58.5t79.5 41.5t115.5 16q61 0 109 -16t81 -42.5t50 -60.5t18 -70q1 -48 -21.5 -90.5t-68.5 -74.5q48 -24 81 -62t33 -99q0 -36 -15.5 -70.5t-49.5 -61.5t-86.5 -43t-126.5 -16q-73 0 -126 17t-88 44.5t-52 64t-17 75.5q0 49 28.5 97t82.5 81 q-38 24 -62.5 59t-24.5 86zM337 294q-23 7 -47.5 14.5t-50.5 17.5q-42 -25 -61 -59t-19 -66q1 -53 44 -85t131 -32q34 0 63 6.5t50 18.5t33 28.5t12 36.5q0 28 -12.5 46.5t-34 31.5t-49.5 22.5t-59 19.5zM471 490q0 44 -38 75t-113 31q-66 0 -102.5 -24.5t-36.5 -59.5 q0 -29 13.5 -47.5t35 -31.5t48.5 -22l54 -18q17 -5 35 -10t38 -11q33 26 49.5 57t16.5 61z"/>
    <glyph glyph-name="nine" unicode="9" horiz-adv-x="631" d="M35 465q0 56 20 99t54.5 71.5t80.5 43t97 14.5q78 0 134 -24t92 -69t53 -109t17 -145q0 -93 -25 -161t-67.5 -112t-100 -65t-122.5 -21q-93 0 -176 40v104q38 -21 80.5 -32t84.5 -11q39 0 75 11t64.5 36t47.5 66.5t24 102.5q-49 -29 -96 -42t-102 -13q-44 0 -86 13.5 t-75 40.5t-53.5 67.5t-20.5 94.5zM295 595q-30 0 -56 -7t-46 -22t-31.5 -38.5t-11.5 -57.5q0 -35 12.5 -58.5t34 -37.5t49 -20t57.5 -6q42 0 84.5 14t79.5 43q-10 103 -55 146.5t-117 43.5z"/>
    <glyph glyph-name="colon" unicode=":" horiz-adv-x="255" d="M195 382q0 -33 -20 -49t-48 -16q-26 0 -46.5 16t-20.5 49t20.5 49t46.5 16q28 0 48 -16t20 -49zM195 55q0 -34 -20 -50t-48 -16q-26 0 -46.5 16t-20.5 50q0 32 20.5 48t46.5 16q28 0 48 -16t20 -48z"/>
    <glyph glyph-name="semicolon" unicode=";" horiz-adv-x="283" d="M36 -148l59 248h113l-85 -248h-87zM208 414q0 -33 -20 -49t-48 -16q-26 0 -46.5 16t-20.5 49q0 34 20.5 49.5t46.5 15.5q28 0 48 -15.5t20 -49.5z"/>
    <glyph glyph-name="less" unicode="&lt;" horiz-adv-x="504" d="M429 147l-386 150v107l386 149v-100l-286 -103l286 -103v-100z"/>
    <glyph glyph-name="equal" unicode="=" horiz-adv-x="566" d="M63 397v96h440v-96h-440zM63 208v95h440v-95h-440z"/>
    <glyph glyph-name="greater" unicode="&gt;" horiz-adv-x="504" d="M75 147v100l287 103l-287 103v100l386 -149v-107z"/>
    <glyph glyph-name="question" unicode="?" horiz-adv-x="495" d="M176 218q0 48 26.5 88t58.5 76t58.5 70t26.5 70q0 49 -37 68t-98 19q-49 0 -94.5 -15t-80.5 -36v104q39 22 88 36.5t105 14.5q48 0 90 -10t73.5 -31t50 -53.5t18.5 -77.5q0 -35 -13.5 -65.5t-33.5 -58t-43.5 -52.5t-43.5 -49t-33.5 -48.5t-13.5 -49.5h-104zM296 55 q0 -34 -20 -50t-47 -16t-47.5 16t-20.5 50q0 32 20.5 48t47.5 16t47 -16t20 -48z"/>
    <glyph glyph-name="at" unicode="@" horiz-adv-x="1050" d="M41 240q0 91 32.5 176.5t95 151.5t154 105.5t210.5 39.5q79 0 144.5 -18.5t118 -50.5t92 -75t65.5 -91t39 -99.5t13 -99.5q0 -69 -15 -120t-42.5 -85t-65.5 -50.5t-84 -16.5q-60 0 -101.5 26.5t-58.5 76.5q-22 -38 -60 -59t-87 -21q-44 0 -79.5 16.5t-60.5 45t-38.5 66 t-13.5 79.5t13.5 80t38.5 66.5t60.5 45.5t80.5 17q51 0 86 -21t53 -49v60h92v-256q0 -41 17.5 -64.5t61.5 -23.5q27 0 46 14.5t30.5 40t17 59.5t5.5 73q0 58 -23 118t-69.5 109t-115.5 79.5t-160 30.5q-93 0 -165.5 -31t-122 -83t-75 -120t-25.5 -142q0 -93 33.5 -163 t91 -117.5t134 -71.5t163.5 -24q56 0 110 8.5t108 27.5v-97q-55 -20 -109.5 -28t-111.5 -8q-104 0 -198.5 30.5t-166.5 90t-115 148t-43 204.5zM626 276q-5 16 -14.5 31.5t-24.5 27.5t-34.5 19t-42.5 7q-50 0 -81.5 -34.5t-31.5 -88.5q0 -53 31.5 -87.5t81.5 -34.5 q47 0 77 26t39 59v75z"/>
    <glyph glyph-name="A" unicode="A" horiz-adv-x="728" d="M6 0l296 700h125l295 -700h-120l-62 151h-351l-62 -151h-121zM228 251h272l-123 299q-3 8 -6 17t-7 22q-4 -13 -7 -22t-6 -17z"/>
    <glyph glyph-name="B" unicode="B" horiz-adv-x="690" d="M381 700q55 0 99 -11t75.5 -33t48.5 -55t17 -78q0 -32 -9 -57.5t-24 -44.5t-35 -32t-42 -20q24 -7 48.5 -19.5t44.5 -33.5t32.5 -51t12.5 -71q0 -60 -26 -97.5t-65.5 -59t-86 -29.5t-88.5 -8h-298v700h296zM533 206q0 35 -14 56t-35 32.5t-46.5 15t-49.5 3.5h-189v-213 h173q29 0 58 3t52 13.5t37 32t14 57.5zM505 505q0 53 -36.5 74.5t-99.5 21.5h-170v-191l186 -1q25 0 46.5 5.5t38 17t26 29.5t9.5 44z"/>
    <glyph glyph-name="C" unicode="C" horiz-adv-x="655" d="M42 344q0 93 32 162.5t84.5 115.5t119 68.5t135.5 22.5q107 0 199 -46v-111q-37 26 -83.5 39t-96.5 13t-99 -15t-88 -47.5t-63 -82.5t-24 -119q0 -65 24.5 -112t63.5 -78.5t88.5 -46.5t99.5 -15q54 0 101 14t82 40v-113q-45 -22 -96 -34t-107 -12q-68 0 -134.5 22 t-119.5 66.5t-85.5 111.5t-32.5 157z"/>
    <glyph glyph-name="D" unicode="D" horiz-adv-x="741" d="M330 700q93 0 162 -26t115 -72.5t68.5 -111t22.5 -140.5t-22.5 -140.5t-68.5 -111t-115 -72.5t-162 -26h-245v700h245zM582 350q0 118 -64 182t-189 64h-130v-492h130q125 0 189 64t64 182z"/>
    <glyph glyph-name="E" unicode="E" horiz-adv-x="620" d="M567 700v-104h-368v-191h338v-104h-338v-197h374v-104h-488v700h482z"/>
    <glyph glyph-name="F" unicode="F" horiz-adv-x="604" d="M568 700v-105h-369v-205h340v-106h-340v-284h-114v700h483z"/>
    <glyph glyph-name="G" unicode="G" horiz-adv-x="704" d="M42 350q0 93 32.5 161t85 113t120 67t138.5 22q115 0 212 -46v-111q-40 26 -91 39t-105 13q-51 0 -100.5 -14.5t-88.5 -46t-62.5 -80t-23.5 -117.5q0 -75 24.5 -125t63.5 -79.5t87.5 -42t96.5 -12.5q29 0 56.5 5t48.5 15v265h111v-342q-51 -23 -108 -35t-115 -12 q-73 0 -141.5 20t-122 63.5t-86 112.5t-32.5 167z"/>
    <glyph glyph-name="H" unicode="H" horiz-adv-x="767" d="M682 700v-700h-114v298h-369v-298h-114v700h114v-297h369v297h114z"/>
    <glyph glyph-name="I" unicode="I" horiz-adv-x="284" d="M199 700v-700h-114v700h114z"/>
    <glyph glyph-name="J" unicode="J" horiz-adv-x="514" d="M435 700v-496q0 -58 -19 -99t-52 -67t-76.5 -38t-92.5 -12q-52 0 -99 11t-81 30v109q32 -20 72.5 -31t83.5 -11q31 0 58.5 5.5t48 19t32 36.5t11.5 57v381h-197v105h311z"/>
    <glyph glyph-name="K" unicode="K" horiz-adv-x="678" d="M85 0v700h114v-292h138l195 292h129l-232 -341l250 -359h-129l-211 303h-140v-303h-114z"/>
    <glyph glyph-name="L" unicode="L" horiz-adv-x="581" d="M199 700v-594h368v-106h-482v700h114z"/>
    <glyph glyph-name="M" unicode="M" horiz-adv-x="908" d="M823 700v-700h-114v490l-221 -332h-68l-221 333v-491h-114v700h103l266 -401l266 401h103z"/>
    <glyph glyph-name="N" unicode="N" horiz-adv-x="767" d="M85 0v700h107l377 -512q-1 18 -1 37.5v39.5v435h114v-700h-107l-377 512q1 -18 1 -37.5v-38.5v-436h-114z"/>
    <glyph glyph-name="O" unicode="O" horiz-adv-x="816" d="M40 350q0 69 23 134.5t68.5 116.5t114.5 81.5t162 30.5q92 0 161 -30.5t115 -81.5t69 -116.5t23 -134.5t-23 -134.5t-69 -116.5t-115 -81.5t-161 -30.5q-93 0 -162 30.5t-114.5 81.5t-68.5 116.5t-23 134.5zM660 350q0 50 -15.5 96.5t-47 82t-78.5 56.5t-111 21 q-63 0 -110.5 -21t-79 -56.5t-47 -82t-15.5 -96.5t15.5 -96.5t47 -82t79 -56.5t110.5 -21q64 0 111 21t78.5 56.5t47 82t15.5 96.5z"/>
    <glyph glyph-name="P" unicode="P" horiz-adv-x="663" d="M335 700q62 0 116.5 -11t95 -37.5t64 -70.5t23.5 -111t-23.5 -111t-64 -70.5t-95 -37.5t-116.5 -11h-136v-240h-114v700h250zM518 470q0 38 -14 62.5t-38 38.5t-56.5 19.5t-68.5 5.5h-142v-252h142q36 0 68 5.5t56.5 19.5t38.5 38.5t14 62.5z"/>
    <glyph glyph-name="Q" unicode="Q" horiz-adv-x="816" d="M701 -61l-96 97q-40 -23 -89 -36t-108 -13q-93 0 -162 30.5t-114.5 81.5t-68.5 116.5t-23 134.5t23 134.5t68.5 116.5t114.5 81.5t162 30.5q92 0 161 -30.5t115 -81.5t69 -116.5t23 -134.5t-22.5 -133.5t-68.5 -115.5l91 -90zM156 350q0 -50 15.5 -96.5t47 -82t79 -56.5 t110.5 -21q33 0 61.5 7t52.5 18l-105 105l74 72l113 -113q29 34 42.5 77t13.5 90q0 50 -15.5 96.5t-47 82t-78.5 57t-111 21.5q-63 0 -110.5 -21.5t-79 -57t-47 -82t-15.5 -96.5z"/>
    <glyph glyph-name="R" unicode="R" horiz-adv-x="701" d="M85 0v700h280q49 0 97 -10.5t86.5 -36t62 -67.5t23.5 -105q0 -47 -13.5 -82t-37 -60t-54.5 -41t-65 -24l224 -274h-137l-210 262h-142v-262h-114zM199 363h171q28 0 54.5 5.5t47.5 19t33.5 36t12.5 55.5q0 34 -12.5 56.5t-33.5 36t-47.5 19t-54.5 5.5h-171v-233z"/>
    <glyph glyph-name="S" unicode="S" horiz-adv-x="594" d="M48 522q0 48 20 84t53.5 60t78 35.5t94.5 11.5q60 0 118 -14t101 -39v-109q-43 29 -98 44t-112 14q-64 0 -101.5 -20t-37.5 -65q0 -38 29.5 -60.5t74 -39.5t96.5 -33t96.5 -41t74 -64.5t29.5 -101.5q0 -55 -21.5 -93t-58.5 -61t-85 -33t-100 -10q-71 0 -133.5 16 t-114.5 45v112q57 -37 118.5 -53t121.5 -16q34 0 62.5 4.5t49.5 14.5t33 26.5t12 41.5q0 40 -29.5 64.5t-74 42t-96.5 33.5t-96.5 40.5t-74 63t-29.5 100.5z"/>
    <glyph glyph-name="T" unicode="T" horiz-adv-x="605" d="M591 700v-105h-231v-595h-114v595h-232v105h577z"/>
    <glyph glyph-name="U" unicode="U" horiz-adv-x="754" d="M676 700v-441q0 -76 -25 -128t-66 -84t-95 -46t-112 -14q-59 0 -113 14t-95.5 46t-66.5 84t-25 128v441h114v-435q0 -48 13.5 -80.5t38.5 -53t59 -29.5t75 -9q40 0 74 9t58.5 29.5t38 53t13.5 80.5v435h114z"/>
    <glyph glyph-name="V" unicode="V" horiz-adv-x="700" d="M291 0l-282 700h123l218 -568l218 568h123l-282 -700h-118z"/>
    <glyph glyph-name="W" unicode="W" horiz-adv-x="1031" d="M1019 700l-219 -700h-125l-160 522l-160 -522h-125l-218 700h124l159 -566l170 566h101l170 -566l158 566h125z"/>
    <glyph glyph-name="X" unicode="X" horiz-adv-x="660" d="M-2 0l261 361l-246 339h135l182 -253l182 253h135l-247 -339l262 -361h-135l-197 276l-197 -276h-135z"/>
    <glyph glyph-name="Y" unicode="Y" horiz-adv-x="677" d="M281 0v257l-274 443h128l203 -339l204 339h128l-275 -443v-257h-114z"/>
    <glyph glyph-name="Z" unicode="Z" horiz-adv-x="600" d="M34 0v91l373 504h-361v105h506v-91l-373 -503h387v-106h-532z"/>
    <glyph glyph-name="bracketleft" unicode="[" horiz-adv-x="307" d="M66 -110v920h212v-101h-102v-718h102v-101h-212z"/>
    <glyph glyph-name="backslash" unicode="\" horiz-adv-x="435" d="M330 -59l-302 818h78l302 -818h-78z"/>
    <glyph glyph-name="bracketright" unicode="]" horiz-adv-x="307" d="M29 -110v101h102v718h-102v101h212v-920h-212z"/>
    <glyph glyph-name="asciicircum" unicode="^" horiz-adv-x="558" d="M38 368l194 332h94l194 -332h-117l-124 220l-124 -220h-117z"/>
    <glyph glyph-name="underscore" unicode="_" horiz-adv-x="468" d="M0 -160v95h468v-95h-468z"/>
    <glyph glyph-name="grave" unicode="`" horiz-adv-x="217" d="M98 767l-106 148h124l91 -148h-109z"/>
    <glyph glyph-name="a" unicode="a" horiz-adv-x="550" d="M476 111q0 -20 10.5 -27.5t24.5 -7.5q8 0 16 2l16 4v-77q-30 -12 -68 -12q-33 0 -58 13.5t-38 42.5q-35 -29 -79.5 -45.5t-101.5 -16.5q-33 0 -63 9t-53.5 27.5t-37.5 46t-14 64.5q0 46 19.5 77t50 49.5t68.5 26.5t76 8q31 0 63.5 -4t61.5 -10v17q0 45 -32 73.5t-94 28.5 q-54 0 -97.5 -11.5t-75.5 -25.5v98q29 10 77.5 21t106.5 11q102 0 162 -50.5t60 -159.5v-172zM265 220q-23 0 -45.5 -4t-40 -13t-28.5 -24.5t-11 -37.5q0 -35 27 -53t63 -18q38 0 74 14t65 43v81q-22 5 -50 8.5t-54 3.5z"/>
    <glyph glyph-name="b" unicode="b" horiz-adv-x="622" d="M174 700v-282q25 28 67.5 51.5t105.5 23.5q54 0 98 -20t75 -54.5t48 -80.5t17 -98t-17 -98t-48 -80.5t-75 -54.5t-98 -20q-34 0 -61.5 7.5t-50.5 19.5t-41 28t-32 34v-76h-95v700h107zM476 240q0 35 -11 64.5t-31 50.5t-47 32.5t-60 11.5q-28 0 -52 -8.5t-43.5 -22 t-34 -32t-23.5 -37.5v-117q17 -40 57 -70.5t96 -30.5q33 0 60 11.5t47 32.5t31 50.5t11 64.5z"/>
    <glyph glyph-name="c" unicode="c" horiz-adv-x="492" d="M37 236q0 67 23.5 115.5t61 80t85 46.5t95.5 15q41 0 78.5 -9t69.5 -28v-98q-26 19 -61 29.5t-72 10.5q-32 0 -62.5 -9t-54.5 -28t-39 -49t-15 -72q0 -41 14.5 -70.5t38 -49t54 -29t62.5 -9.5q38 0 74.5 10t65.5 27v-99q-69 -33 -159 -33q-48 0 -94.5 15t-83 45.5 t-59 77.5t-22.5 111z"/>
    <glyph glyph-name="d" unicode="d" horiz-adv-x="622" d="M555 700v-700h-96v76q-14 -18 -32 -34t-40.5 -28t-50 -19.5t-61.5 -7.5q-54 0 -98 20t-75 54.5t-48 80.5t-17 98t17 98t48 80.5t75 54.5t98 20q63 0 105.5 -23t67.5 -52v282h107zM447 299q-9 19 -23.5 37.5t-34 32t-43.5 22t-52 8.5q-32 0 -59.5 -11.5t-47.5 -32.5 t-31 -50.5t-11 -64.5t11 -64.5t31 -50.5t47.5 -32.5t59.5 -11.5q28 0 52 8.5t43.5 22.5t34 32t23.5 38v117z"/>
    <glyph glyph-name="e" unicode="e" horiz-adv-x="548" d="M37 240q0 65 22.5 113t57.5 79t78 46t85 15q72 0 120.5 -26t76 -68t34.5 -94.5t-5 -104.5h-361q4 -32 21 -55t42.5 -38t56.5 -22t64 -7q44 0 82.5 9.5t69.5 24.5v-92q-33 -16 -77 -24.5t-95 -8.5q-55 0 -104.5 16t-86.5 47.5t-59 79t-22 110.5zM410 280q2 16 -2.5 37 t-18.5 40.5t-39.5 33t-64.5 13.5q-27 0 -52 -8t-44 -23.5t-31.5 -39t-13.5 -53.5h266z"/>
    <glyph glyph-name="f" unicode="f" horiz-adv-x="391" d="M109 0v386h-87v94h87v53q0 52 15.5 86.5t41 55.5t57.5 29.5t65 8.5t63.5 -6t55.5 -15v-94q-18 9 -42.5 15t-50.5 6q-20 0 -37.5 -3.5t-31 -13.5t-21.5 -27.5t-8 -45.5v-49h164v-94h-164v-386h-107z"/>
    <glyph glyph-name="g" unicode="g" horiz-adv-x="622" d="M37 240q0 52 17 98t48 80.5t75 54.5t98 20q34 0 61.5 -7.5t50 -19.5t40.5 -28t32 -33v75h96v-474q0 -65 -23 -110.5t-60.5 -74t-86 -41.5t-99.5 -13q-55 0 -105 11.5t-93 33.5v98q84 -49 184 -49q36 0 68 7t56 23.5t38 43.5t14 68v61q-25 -29 -67.5 -53t-105.5 -24 q-54 0 -98 20t-75 54.5t-48 80.5t-17 98zM447 299q-9 19 -23.5 37.5t-34 32t-43.5 22t-52 8.5q-32 0 -59.5 -11.5t-47.5 -32.5t-31 -50.5t-11 -64.5t11 -64.5t31 -50.5t47.5 -32.5t59.5 -11.5q57 0 96.5 28.5t56.5 65.5v124z"/>
    <glyph glyph-name="h" unicode="h" horiz-adv-x="588" d="M174 700v-273q26 27 66 46.5t89 19.5q45 0 82 -14.5t62.5 -40.5t39.5 -62t14 -79v-297h-107v283q0 59 -32 87t-80 28q-23 0 -43 -7t-37 -18.5t-30.5 -25.5t-23.5 -29v-318h-107v700h107z"/>
    <glyph glyph-name="i" unicode="i" horiz-adv-x="245" d="M69 0v480h107v-480h-107zM188 636q0 -33 -19.5 -48.5t-45.5 -15.5t-46 15.5t-20 48.5q0 32 20 47.5t46 15.5t45.5 -15.5t19.5 -47.5z"/>
    <glyph glyph-name="j" unicode="j" horiz-adv-x="245" d="M176 -79q0 -45 -13 -74.5t-35 -47t-49.5 -25t-55.5 -7.5q-46 0 -79 14v94q23 -10 51 -10q29 0 51.5 15.5t22.5 58.5v541h107v-559zM188 636q0 -33 -20 -48.5t-46 -15.5t-46 15.5t-20 48.5q0 32 20 47.5t46 15.5t46 -15.5t20 -47.5z"/>
    <glyph glyph-name="k" unicode="k" horiz-adv-x="533" d="M409 0l-158 199h-77v-199h-107v700h107v-410h79l138 190h122l-174 -238l193 -242h-123z"/>
    <glyph glyph-name="l" unicode="l" horiz-adv-x="245" d="M176 730v-730h-107v730h107z"/>
    <glyph glyph-name="m" unicode="m" horiz-adv-x="884" d="M67 0v480h95v-60q10 11 25 23.5t35.5 23.5t45.5 18.5t54 7.5q54 0 91.5 -21t58.5 -56q32 32 73.5 54.5t94.5 22.5q48 0 82 -16t56.5 -43t33 -62t10.5 -72v-300h-107v297q0 47 -25.5 74t-69.5 27q-40 0 -70 -21t-49 -44q1 -8 1.5 -16.5t0.5 -16.5v-300h-107v297 q0 47 -25.5 74t-69.5 27q-22 0 -41 -7t-35 -18t-29 -24t-22 -25v-324h-107z"/>
    <glyph glyph-name="n" unicode="n" horiz-adv-x="588" d="M162 414q26 32 69 55.5t98 23.5q45 0 82 -14.5t62.5 -40.5t39.5 -62t14 -79v-297h-107v283q0 59 -32 87t-80 28q-23 0 -43 -7t-37 -18.5t-30.5 -25.5t-23.5 -29v-318h-107v480h95v-66v0z"/>
    <glyph glyph-name="o" unicode="o" horiz-adv-x="594" d="M37 240q0 62 22 109.5t58 79.5t83 48t97 16q51 0 98 -16t83 -48t57.5 -79.5t21.5 -109.5t-21.5 -109.5t-57.5 -79.5t-83 -48t-98 -16q-50 0 -97 16t-83 48t-58 79.5t-22 109.5zM448 240q0 71 -42 113t-109 42q-68 0 -110 -42t-42 -113t42 -113t110 -42q67 0 109 42 t42 113z"/>
    <glyph glyph-name="p" unicode="p" horiz-adv-x="622" d="M162 405q14 17 32 33t41 28t50.5 19.5t61.5 7.5q54 0 98 -20t75 -54.5t48 -80.5t17 -98t-17 -98t-48 -80.5t-75 -54.5t-98 -20q-63 0 -105.5 23t-67.5 52v-282h-107v700h95v-75zM476 240q0 35 -11 64.5t-31 50.5t-47 32.5t-60 11.5q-28 0 -52 -8.5t-43.5 -22t-34 -32 t-23.5 -37.5v-117q17 -40 57 -70.5t96 -30.5q33 0 60 11.5t47 32.5t31 50.5t11 64.5z"/>
    <glyph glyph-name="q" unicode="q" horiz-adv-x="622" d="M37 240q0 52 17 98t48 80.5t75 54.5t98 20q34 0 61.5 -7.5t50 -19.5t40.5 -28t32 -33v75h96v-700h-107v282q-25 -29 -67.5 -52t-105.5 -23q-54 0 -98 20t-75 54.5t-48 80.5t-17 98zM447 299q-9 19 -23.5 37.5t-34 32t-43.5 22t-52 8.5q-32 0 -59.5 -11.5t-47.5 -32.5 t-31 -50.5t-11 -64.5t11 -64.5t31 -50.5t47.5 -32.5t59.5 -11.5q28 0 52 8.5t43.5 22.5t34 32t23.5 38v117z"/>
    <glyph glyph-name="r" unicode="r" horiz-adv-x="378" d="M162 401q28 45 82 70t120 19v-105q-65 9 -116.5 -17t-73.5 -77v-291h-107v480h95v-79v0z"/>
    <glyph glyph-name="s" unicode="s" horiz-adv-x="470" d="M42 350q0 39 16.5 66.5t43.5 44.5t61 24.5t70 7.5q50 0 94 -11.5t79 -29.5v-94q-15 10 -35 18.5t-42 15t-45 10t-44 3.5q-16 0 -32 -2.5t-28.5 -8.5t-20.5 -16t-8 -25q0 -23 21.5 -36.5t53.5 -24t69.5 -21t69.5 -28t53.5 -44.5t21.5 -71q0 -40 -17 -67t-45.5 -43.5 t-66 -23.5t-78.5 -7q-53 0 -103 12t-85 34v95q38 -25 88 -38t95 -13t74.5 10t29.5 39q0 22 -21.5 35.5t-53.5 24t-70 21.5t-70 28.5t-53.5 44.5t-21.5 70z"/>
    <glyph glyph-name="t" unicode="t" horiz-adv-x="416" d="M208 651v-171h174v-94h-174v-220q0 -48 22 -66t69 -18q26 0 50 5t47 14v-92q-27 -10 -60.5 -15.5t-68.5 -5.5t-65 9t-52.5 28t-35 49t-12.5 72v240h-86v94h86v145z"/>
    <glyph glyph-name="u" unicode="u" horiz-adv-x="589" d="M522 480v-480h-95v66q-26 -32 -69 -55.5t-98 -23.5q-48 0 -84.5 14.5t-62 40.5t-38.5 62t-13 79v297h107v-283q0 -59 29 -87t83 -28q23 0 43 7t37 18.5t30.5 25.5t23.5 29v318h107z"/>
    <glyph glyph-name="v" unicode="v" horiz-adv-x="547" d="M536 480l-206 -480h-113l-205 480h116l146 -364l145 364h117z"/>
    <glyph glyph-name="w" unicode="w" horiz-adv-x="808" d="M792 480l-159 -480h-115l-114 344l-114 -344h-114l-160 480h113l108 -363l117 363h100l118 -363l107 363h113z"/>
    <glyph glyph-name="x" unicode="x" horiz-adv-x="510" d="M492 480l-175 -235l185 -245h-122l-125 170l-125 -170h-122l185 245l-175 235h122l115 -162l115 162h122z"/>
    <glyph glyph-name="y" unicode="y" horiz-adv-x="551" d="M426 480h112l-225 -545q-20 -47 -42 -79t-46.5 -51.5t-51 -28t-53.5 -8.5q-29 0 -63 8v91q12 -4 24.5 -5.5t24.5 -1.5q77 0 119 112l10 24l-228 484h114l162 -362z"/>
    <glyph glyph-name="z" unicode="z" horiz-adv-x="473" d="M423 480v-80l-256 -309h273v-91h-406v80l256 309h-243v91h376z"/>
    <glyph glyph-name="braceleft" unicode="{" horiz-adv-x="332" d="M292 -110q-92 -20 -139.5 16.5t-47.5 110.5v211q0 23 -7 38t-18 23.5t-25 11.5t-27 2v94q13 -1 26.5 2t25 11.5t18.5 23.5t7 38v211q0 37 12 65t35.5 45t58.5 22t81 -5v-94q-44 7 -60.5 -14.5t-16.5 -65.5v-176q0 -53 -21.5 -80t-48.5 -30q27 -3 48.5 -30t21.5 -80v-176 q0 -44 16.5 -65.5t60.5 -14.5v-94z"/>
    <glyph glyph-name="bar" unicode="|" horiz-adv-x="242" d="M66 -100v910h110v-910h-110z"/>
    <glyph glyph-name="braceright" unicode="}" horiz-adv-x="332" d="M226 17q0 -74 -47.5 -110.5t-138.5 -16.5v94q44 -7 60.5 14.5t16.5 65.5v176q0 53 21 80t48 30q-27 3 -48 30t-21 80v176q0 44 -16.5 65.5t-60.5 14.5v94q45 10 80 5t58.5 -22t35.5 -45t12 -65v-211q0 -23 7.5 -38t18.5 -23.5t25 -11.5t27 -2v-94q-14 1 -28 -2t-25 -11.5 t-18 -23.5t-7 -38v-211v0z"/>
    <glyph glyph-name="asciitilde" unicode="~" horiz-adv-x="598" d="M534 393q6 -66 -27 -101t-89 -35q-27 0 -56.5 8.5t-58.5 19t-56.5 18.5t-49.5 8q-17 0 -27 -10t-8 -32h-95q-5 67 29 101.5t86 34.5q29 0 58.5 -8.5t57.5 -18t55 -18t51 -8.5q17 0 27 9t8 32h95v0z"/>
    <glyph glyph-name="exclamdown" unicode="¡" horiz-adv-x="237" d="M62 -219l8 480h97l8 -480h-113zM185 428q0 -32 -20 -48t-47 -16q-26 0 -46 16t-20 48q0 33 20 49t46 16q27 0 47 -16t20 -49z"/>
    <glyph glyph-name="cent" unicode="¢" horiz-adv-x="510" d="M353 84q29 4 56.5 13t50.5 22v-99q-24 -11 -51 -19t-56 -11v-110h-82v108q-44 4 -85.5 21.5t-73.5 48t-51 75t-19 103.5q0 61 19.5 106.5t51.5 77t73 49t85 22.5v109h82v-110q28 -4 53.5 -12t48.5 -22v-98q-21 15 -47 24.5t-55 13.5v-312zM271 392q-24 -6 -46 -17.5 t-38.5 -30.5t-26 -44.5t-9.5 -59.5q0 -33 9.5 -59t26 -44.5t38 -30.5t46.5 -18v304z"/>
    <glyph glyph-name="sterling" unicode="£" horiz-adv-x="604" d="M38 0v100h32q32 0 50.5 23.5t18.5 59.5v105h-83v94h83v74q0 63 19.5 108t52.5 73.5t75.5 42t88.5 13.5q40 0 80.5 -9.5t74.5 -27.5v-100q-29 20 -65 31.5t-71 11.5q-29 0 -55.5 -8t-46.5 -25.5t-32 -45t-12 -66.5v-72h209v-94h-209v-105q0 -62 -31 -83h348v-100h-527z "/>
    <glyph glyph-name="currency" unicode="¤" horiz-adv-x="574" d="M118 119l-62 62l59 59q-15 23 -23.5 50.5t-8.5 59.5t8.5 60t23.5 50l-59 60l62 62l63 -64q47 26 106 26t106 -26l64 64l61 -62l-60 -60q15 -23 23.5 -50.5t8.5 -59.5t-8.5 -59.5t-23.5 -50.5l60 -59l-62 -62l-63 63q-47 -26 -106 -26t-106 26zM181 350q0 -47 28 -75 t78 -28q49 0 77 28t28 75t-28 75.5t-77 28.5q-50 0 -78 -28.5t-28 -75.5z"/>
    <glyph glyph-name="yen" unicode="¥" horiz-adv-x="691" d="M661 680l-212 -344h119v-82h-165v-54h165v-82h-165v-118h-114v118h-165v82h165v54h-165v82h119l-213 344h124l192 -322l192 322h123z"/>
    <glyph glyph-name="brokenbar" unicode="¦" horiz-adv-x="256" d="M73 446v364h110v-364h-110zM73 -100v364h110v-364h-110z"/>
    <glyph glyph-name="section" unicode="§" horiz-adv-x="511" d="M451 107q0 -40 -17 -67t-45.5 -43.5t-66 -23.5t-78.5 -7q-48 0 -95.5 12t-82.5 34v91q38 -25 85.5 -37.5t86.5 -12.5q45 0 75 9.5t30 41.5q0 15 -10.5 26t-28.5 20t-41.5 16.5t-49.5 15.5q-30 9 -58.5 20t-51.5 27.5t-37 41t-14 59.5q0 40 19 71.5t57 58.5 q-29 17 -47.5 43.5t-18.5 66.5q0 39 16.5 66.5t44 44.5t62.5 24.5t73 7.5q44 0 87.5 -11.5t78.5 -29.5v-91q-31 20 -76 32.5t-83 12.5q-18 0 -35 -3t-30 -9t-21 -16t-8 -25q0 -17 11 -28.5t29.5 -20.5t43.5 -16.5t52 -15.5q29 -9 57.5 -19.5t51 -27t36 -40.5t13.5 -59 q0 -36 -18.5 -68.5t-57.5 -60.5q28 -17 45 -43.5t17 -66.5zM246 273q14 -5 29 -9t30 -9q28 14 42 35t14 40q0 32 -26.5 47.5t-63.5 27.5q-14 5 -28.5 9.5t-30.5 9.5q-29 -13 -44 -34.5t-15 -41.5q0 -16 7.5 -27.5t20 -20t29.5 -15t36 -12.5z"/>
    <glyph glyph-name="dieresis" unicode="¨" horiz-adv-x="322" d="M330 835q0 -26 -19 -45t-45 -19t-45 19t-19 45t19 45t45 19t45 -19t19 -45zM122 835q0 -26 -18.5 -45t-45.5 -19q-26 0 -45 19t-19 45t19 45t45 19q27 0 45.5 -19t18.5 -45z"/>
    <glyph glyph-name="copyright" unicode="©" horiz-adv-x="848" d="M804 350q0 -91 -33.5 -159t-87.5 -113.5t-121.5 -68t-136.5 -22.5t-137 22.5t-122 68t-87.5 113.5t-33.5 159t33.5 159t87.5 113.5t122 68t137 22.5t136.5 -22.5t121.5 -68t87.5 -113.5t33.5 -159zM578 181q-32 -17 -64 -25.5t-76 -8.5q-35 0 -71 11.5t-65.5 35 t-48.5 60.5t-19 88q0 56 19 96t49.5 65.5t69.5 37.5t78 12q75 0 128 -34v-74q-25 15 -53 23.5t-59 8.5q-26 0 -51.5 -6.5t-45.5 -21.5t-32.5 -40t-12.5 -62q0 -36 12 -59.5t31.5 -38t44 -20.5t49.5 -6q32 0 61.5 8.5t55.5 22.5v-73zM85 350q0 -81 30 -142t78 -101.5t109 -61 t123 -20.5t123 20.5t109 61t78 101.5t30 142t-30 142t-78 101.5t-109 61t-123 20.5t-123 -20.5t-109 -61t-78 -101.5t-30 -142z"/>
    <glyph glyph-name="guillemotleft" unicode="«" horiz-adv-x="524" d="M369 53l-126 177v20l126 177h111l-132 -187l132 -187h-111zM163 53l-126 177v20l126 177h111l-133 -187l133 -187h-111z"/>
    <glyph glyph-name="logicalnot" unicode="¬" horiz-adv-x="577" d="M411 256v129h-358v95h456v-224h-98z"/>
    <glyph glyph-name="registered" unicode="®" horiz-adv-x="846" d="M801 350q0 -90 -33 -157.5t-87 -113.5t-121.5 -69t-136.5 -23t-136.5 23t-121 69t-87 113.5t-33.5 157.5t33.5 157.5t87 113.5t121 69t136.5 23t136.5 -23t121.5 -69t87 -113.5t33 -157.5zM85 350q0 -81 29.5 -142t77 -101.5t108.5 -60.5t124 -20t123.5 20t108 60.5 t77 101.5t29.5 142t-29.5 142t-77 101.5t-108 61t-123.5 20.5t-124 -20.5t-108.5 -61t-77 -101.5t-29.5 -142zM275 156v393h178q25 0 52.5 -6t49.5 -21t36.5 -40t14.5 -62q0 -51 -25 -78t-60 -38l109 -148h-88l-99 139h-11h-80v-139h-77zM352 362h93q12 0 26.5 1t27 6.5 t20.5 17t8 32.5q0 20 -8 31.5t-20.5 17t-27 7t-26.5 1.5h-93v-114z"/>
    <glyph glyph-name="macron" unicode="¯" horiz-adv-x="360" d="M336 866v-90h-312v90h312z"/>
    <glyph glyph-name="degree" unicode="°" horiz-adv-x="405" d="M368 555q0 -39 -13.5 -68.5t-36 -50t-52.5 -31t-63 -10.5t-63 10.5t-53 31t-36.5 50t-13.5 68.5q0 37 13.5 66.5t36.5 50t53 31t63 10.5t63 -10.5t52.5 -31t36 -50t13.5 -66.5zM116 555q0 -39 24 -61.5t62 -22.5t61.5 22.5t23.5 61.5q0 38 -23.5 60t-61.5 22t-62 -22 t-24 -60z"/>
    <glyph glyph-name="plusminus" unicode="±" horiz-adv-x="576" d="M336 445h180v-95h-180v-180h-96v180h-180v95h180v181h96v-181zM60 0v95h456v-95h-456z"/>
    <glyph glyph-name="acute" unicode="´" horiz-adv-x="211" d="M17 767l91 148h124l-106 -148h-109z"/>
    <glyph glyph-name="paragraph" unicode="¶" horiz-adv-x="682" d="M257 -220v494q-106 0 -166 56t-60 157t60 157t166 56h347v-920h-112v815h-123v-815h-112z"/>
    <glyph glyph-name="periodcentered" unicode="·" horiz-adv-x="251" d="M193 239q0 -33 -20 -49t-47 -16t-47.5 16t-20.5 49t20.5 49t47.5 16t47 -16t20 -49z"/>
    <glyph glyph-name="cedilla" unicode="¸" horiz-adv-x="218" d="M150 0l-14 -54q48 0 73.5 -21.5t26.5 -60.5q0 -25 -11 -43.5t-30 -30.5t-44 -17.5t-53 -5.5q-57 0 -101 19v76q17 -10 39.5 -15.5t46.5 -5.5q67 0 67 33q0 10 -9.5 16.5t-24.5 9.5t-34 2.5t-38 -3.5l23 101h83z"/>
    <glyph glyph-name="guillemotright" unicode="»" horiz-adv-x="524" d="M250 53l132 187l-132 187h111l126 -177v-20l-126 -177h-111zM44 53l132 187l-132 187h111l126 -177v-20l-126 -177h-111z"/>
    <glyph glyph-name="onequarter" unicode="¼" horiz-adv-x="920" d="M822 408v-257h65v-72h-65v-79h-79v79h-216v71l210 258h85zM743 303l-124 -152h124v152zM192 -14l458 727h40l-459 -727h-39zM219 680v-334h72v-74h-240v74h87v250l-84 -30v76l105 38h60z"/>
    <glyph glyph-name="onehalf" unicode="½" horiz-adv-x="881" d="M187 -14l458 727h40l-459 -727h-39zM556 374q31 23 66.5 32.5t72.5 9.5q64 0 105.5 -29t41.5 -89q0 -26 -10 -47t-26 -38.5t-36 -32t-40 -26.5q-38 -23 -66.5 -41.5t-30.5 -39.5l210 1v-74h-301v37q0 37 12.5 63.5t32 46.5t43 34.5t46.5 28.5q17 10 32 18.5t26.5 18.5 t18 22t6.5 28q0 45 -71 45q-32 0 -66 -11.5t-66 -35.5v79zM214 680v-334h72v-74h-240v74h87v250l-84 -30v76l105 38h60z"/>
    <glyph glyph-name="threequarters" unicode="¾" horiz-adv-x="975" d="M254 -14l458 727h40l-459 -727h-39zM877 408v-257h65v-72h-65v-79h-79v79h-216v71l210 258h85zM798 303l-124 -152h124v152zM333 580q0 -32 -15.5 -54.5t-37.5 -32.5q12 -5 24 -13t22 -20.5t16.5 -30t6.5 -39.5q0 -32 -13 -55t-35.5 -37.5t-51.5 -21.5t-60 -7 q-40 0 -74 6.5t-68 21.5v78q35 -20 67 -26t68 -6q37 0 63 11.5t26 43.5q0 31 -22 41.5t-54 10.5h-67v74h57q33 0 51.5 11.5t18.5 35.5q0 48 -80 48q-28 0 -59.5 -8.5t-61.5 -26.5v78q57 31 132 31q65 0 106 -29t41 -84z"/>
    <glyph glyph-name="questiondown" unicode="¿" horiz-adv-x="487" d="M455 -180q-38 -22 -87 -36.5t-106 -14.5q-48 0 -90 10t-73.5 31t-50 53.5t-18.5 77.5q0 35 13.5 65.5t33.5 58t43.5 52.5t43.5 49t33.5 48t13.5 50h104q0 -32 -12.5 -60.5t-31.5 -54t-41 -49t-41 -46.5t-31.5 -46.5t-12.5 -47.5q0 -49 37.5 -68t97.5 -19q49 0 94.5 15.5 t80.5 35.5v-104zM331 428q0 -33 -20.5 -49t-47.5 -16t-47 16t-20 49t20 49t47 16t47.5 -16t20.5 -49z"/>
    <glyph glyph-name="Agrave" unicode="À" horiz-adv-x="728" d="M6 0l296 700h125l295 -700h-120l-62 151h-351l-62 -151h-121zM228 251h272l-123 299q-3 8 -6 17t-7 22q-4 -13 -7 -22t-6 -17zM330 767l-106 148h124l91 -148h-109z"/>
    <glyph glyph-name="Aacute" unicode="Á" horiz-adv-x="728" d="M6 0l296 700h125l295 -700h-120l-62 151h-351l-62 -151h-121zM228 251h272l-123 299q-3 8 -6 17t-7 22q-4 -13 -7 -22t-6 -17zM286 767l91 148h124l-106 -148h-109z"/>
    <glyph glyph-name="Acircumflex" unicode="Â" horiz-adv-x="728" d="M6 0l296 700h125l295 -700h-120l-62 151h-351l-62 -151h-121zM228 251h272l-123 299q-3 8 -6 17t-7 22q-4 -13 -7 -22t-6 -17zM413 915l129 -150h-111l-65 76l-66 -76h-111l129 150h95z"/>
    <glyph glyph-name="Atilde" unicode="Ã" horiz-adv-x="728" d="M6 0l296 700h125l295 -700h-120l-62 151h-351l-62 -151h-121zM228 251h272l-123 299q-3 8 -6 17t-7 22q-4 -13 -7 -22t-6 -17zM534 877q6 -29 1 -51.5t-17.5 -38.5t-31 -24t-39.5 -8q-24 0 -45 6.5t-39.5 14.5t-34 14.5t-26.5 6.5q-17 0 -23 -11t-4 -25h-83q-6 28 -1 51 t17.5 38.5t30.5 24t39 8.5q23 0 44.5 -6.5t40 -14.5t34 -14.5t27.5 -6.5q18 0 23.5 11t3.5 25h83z"/>
    <glyph glyph-name="Adieresis" unicode="Ä" horiz-adv-x="728" d="M6 0l296 700h125l295 -700h-120l-62 151h-351l-62 -151h-121zM228 251h272l-123 299q-3 8 -6 17t-7 22q-4 -13 -7 -22t-6 -17zM530 835q0 -26 -19 -45t-45 -19t-45 19t-19 45t19 45t45 19t45 -19t19 -45zM322 835q0 -26 -18.5 -45t-45.5 -19q-26 0 -45 19t-19 45t19 45 t45 19q27 0 45.5 -19t18.5 -45z"/>
    <glyph glyph-name="Aring" unicode="Å" horiz-adv-x="728" d="M6 0l296 700h125l295 -700h-120l-62 151h-351l-62 -151h-121zM228 251h272l-123 299q-3 8 -6 17t-7 22q-4 -13 -7 -22t-6 -17zM482 855q0 -27 -9.5 -48.5t-26 -36t-38 -22.5t-45.5 -8t-46 8t-38.5 22.5t-26.5 36t-10 48.5t10 48t26.5 35.5t38.5 22.5t46 8t45.5 -8 t38 -22.5t26 -35.5t9.5 -48zM313 855q0 -23 14.5 -36.5t34.5 -13.5t34.5 13.5t14.5 36.5q0 22 -14.5 35.5t-34.5 13.5t-34.5 -13.5t-14.5 -35.5z"/>
    <glyph glyph-name="AE" unicode="Æ" horiz-adv-x="1004" d="M611 104h346v-104h-461v154h-286l-104 -154h-122l469 700h498v-104h-340v-191h310v-104h-310v-197zM497 251v332l-225 -332h225z"/>
    <glyph glyph-name="Ccedilla" unicode="Ç" horiz-adv-x="655" d="M617 33q-35 -17 -75 -28.5t-84 -15.5l-12 -43q48 0 74 -21.5t26 -60.5q0 -25 -11 -43.5t-29.5 -30.5t-44 -17.5t-53.5 -5.5q-56 0 -100 19v76q17 -10 39 -15.5t46 -5.5q68 0 68 33q0 10 -9.5 16.5t-24.5 9.5t-34 2.5t-38 -3.5l21 90q-63 6 -123.5 31t-107.5 69t-75 108 t-28 147q0 93 32 162.5t84.5 115.5t119 68.5t135.5 22.5q107 0 199 -46v-111q-37 26 -83.5 39t-96.5 13t-99 -15t-88 -47.5t-63 -82.5t-24 -119q0 -65 24.5 -112t63.5 -78.5t88.5 -46.5t99.5 -15q54 0 101 14t82 40v-113z"/>
    <glyph glyph-name="Egrave" unicode="È" horiz-adv-x="620" d="M567 700v-104h-368v-191h338v-104h-338v-197h374v-104h-488v700h482zM300 767l-106 148h124l91 -148h-109z"/>
    <glyph glyph-name="Eacute" unicode="É" horiz-adv-x="620" d="M567 700v-104h-368v-191h338v-104h-338v-197h374v-104h-488v700h482zM256 767l91 148h124l-106 -148h-109z"/>
    <glyph glyph-name="Ecircumflex" unicode="Ê" horiz-adv-x="620" d="M567 700v-104h-368v-191h338v-104h-338v-197h374v-104h-488v700h482zM383 915l129 -150h-111l-65 76l-66 -76h-111l129 150h95z"/>
    <glyph glyph-name="Edieresis" unicode="Ë" horiz-adv-x="620" d="M567 700v-104h-368v-191h338v-104h-338v-197h374v-104h-488v700h482zM500 835q0 -26 -19 -45t-45 -19t-45 19t-19 45t19 45t45 19t45 -19t19 -45zM292 835q0 -26 -18.5 -45t-45.5 -19q-26 0 -45 19t-19 45t19 45t45 19q27 0 45.5 -19t18.5 -45z"/>
    <glyph glyph-name="Igrave" unicode="Ì" horiz-adv-x="284" d="M199 700v-700h-114v700h114zM110 767l-106 148h124l91 -148h-109z"/>
    <glyph glyph-name="Iacute" unicode="Í" horiz-adv-x="284" d="M199 700v-700h-114v700h114zM66 767l91 148h124l-106 -148h-109z"/>
    <glyph glyph-name="Icircumflex" unicode="Î" horiz-adv-x="284" d="M199 700v-700h-114v700h114zM193 915l129 -150h-111l-65 76l-66 -76h-111l129 150h95z"/>
    <glyph glyph-name="Idieresis" unicode="Ï" horiz-adv-x="284" d="M199 700v-700h-114v700h114zM310 835q0 -26 -19 -45t-45 -19t-45 19t-19 45t19 45t45 19t45 -19t19 -45zM102 835q0 -26 -18.5 -45t-45.5 -19q-26 0 -45 19t-19 45t19 45t45 19q27 0 45.5 -19t18.5 -45z"/>
    <glyph glyph-name="Eth" unicode="Ð" horiz-adv-x="747" d="M336 700q93 0 162.5 -26t115 -72.5t68.5 -111t23 -140.5t-23 -140.5t-68.5 -111t-115 -72.5t-162.5 -26h-244v303h-79v92h79v305h244zM336 104q125 0 189 64t64 182t-64 182t-189 64h-130v-201h185v-92h-185v-199h130z"/>
    <glyph glyph-name="Ntilde" unicode="Ñ" horiz-adv-x="767" d="M85 0v700h107l377 -512q-1 18 -1 37.5v39.5v435h114v-700h-107l-377 512q1 -18 1 -37.5v-38.5v-436h-114zM555 877q6 -29 1 -51.5t-17.5 -38.5t-31 -24t-39.5 -8q-24 0 -45 6.5t-39.5 14.5t-34 14.5t-26.5 6.5q-17 0 -23 -11t-4 -25h-83q-6 28 -1 51t17.5 38.5t30.5 24 t39 8.5q23 0 44.5 -6.5t40 -14.5t34 -14.5t27.5 -6.5q18 0 23.5 11t3.5 25h83z"/>
    <glyph glyph-name="Ograve" unicode="Ò" horiz-adv-x="816" d="M40 350q0 69 23 134.5t68.5 116.5t114.5 81.5t162 30.5q92 0 161 -30.5t115 -81.5t69 -116.5t23 -134.5t-23 -134.5t-69 -116.5t-115 -81.5t-161 -30.5q-93 0 -162 30.5t-114.5 81.5t-68.5 116.5t-23 134.5zM660 350q0 50 -15.5 96.5t-47 82t-78.5 56.5t-111 21 q-63 0 -110.5 -21t-79 -56.5t-47 -82t-15.5 -96.5t15.5 -96.5t47 -82t79 -56.5t110.5 -21q64 0 111 21t78.5 56.5t47 82t15.5 96.5zM375 767l-106 148h124l91 -148h-109z"/>
    <glyph glyph-name="Oacute" unicode="Ó" horiz-adv-x="816" d="M40 350q0 69 23 134.5t68.5 116.5t114.5 81.5t162 30.5q92 0 161 -30.5t115 -81.5t69 -116.5t23 -134.5t-23 -134.5t-69 -116.5t-115 -81.5t-161 -30.5q-93 0 -162 30.5t-114.5 81.5t-68.5 116.5t-23 134.5zM660 350q0 50 -15.5 96.5t-47 82t-78.5 56.5t-111 21 q-63 0 -110.5 -21t-79 -56.5t-47 -82t-15.5 -96.5t15.5 -96.5t47 -82t79 -56.5t110.5 -21q64 0 111 21t78.5 56.5t47 82t15.5 96.5zM331 767l91 148h124l-106 -148h-109z"/>
    <glyph glyph-name="Ocircumflex" unicode="Ô" horiz-adv-x="816" d="M40 350q0 69 23 134.5t68.5 116.5t114.5 81.5t162 30.5q92 0 161 -30.5t115 -81.5t69 -116.5t23 -134.5t-23 -134.5t-69 -116.5t-115 -81.5t-161 -30.5q-93 0 -162 30.5t-114.5 81.5t-68.5 116.5t-23 134.5zM660 350q0 50 -15.5 96.5t-47 82t-78.5 56.5t-111 21 q-63 0 -110.5 -21t-79 -56.5t-47 -82t-15.5 -96.5t15.5 -96.5t47 -82t79 -56.5t110.5 -21q64 0 111 21t78.5 56.5t47 82t15.5 96.5zM458 915l129 -150h-111l-65 76l-66 -76h-111l129 150h95z"/>
    <glyph glyph-name="Otilde" unicode="Õ" horiz-adv-x="816" d="M40 350q0 69 23 134.5t68.5 116.5t114.5 81.5t162 30.5q92 0 161 -30.5t115 -81.5t69 -116.5t23 -134.5t-23 -134.5t-69 -116.5t-115 -81.5t-161 -30.5q-93 0 -162 30.5t-114.5 81.5t-68.5 116.5t-23 134.5zM660 350q0 50 -15.5 96.5t-47 82t-78.5 56.5t-111 21 q-63 0 -110.5 -21t-79 -56.5t-47 -82t-15.5 -96.5t15.5 -96.5t47 -82t79 -56.5t110.5 -21q64 0 111 21t78.5 56.5t47 82t15.5 96.5zM579 877q6 -29 1 -51.5t-17.5 -38.5t-31 -24t-39.5 -8q-24 0 -45 6.5t-39.5 14.5t-34 14.5t-26.5 6.5q-17 0 -23 -11t-4 -25h-83 q-6 28 -1 51t17.5 38.5t30.5 24t39 8.5q23 0 44.5 -6.5t40 -14.5t34 -14.5t27.5 -6.5q18 0 23.5 11t3.5 25h83z"/>
    <glyph glyph-name="Odieresis" unicode="Ö" horiz-adv-x="816" d="M40 350q0 69 23 134.5t68.5 116.5t114.5 81.5t162 30.5q92 0 161 -30.5t115 -81.5t69 -116.5t23 -134.5t-23 -134.5t-69 -116.5t-115 -81.5t-161 -30.5q-93 0 -162 30.5t-114.5 81.5t-68.5 116.5t-23 134.5zM660 350q0 50 -15.5 96.5t-47 82t-78.5 56.5t-111 21 q-63 0 -110.5 -21t-79 -56.5t-47 -82t-15.5 -96.5t15.5 -96.5t47 -82t79 -56.5t110.5 -21q64 0 111 21t78.5 56.5t47 82t15.5 96.5zM575 835q0 -26 -19 -45t-45 -19t-45 19t-19 45t19 45t45 19t45 -19t19 -45zM367 835q0 -26 -18.5 -45t-45.5 -19q-26 0 -45 19t-19 45t19 45 t45 19q27 0 45.5 -19t18.5 -45z"/>
    <glyph glyph-name="multiply" unicode="×" horiz-adv-x="496" d="M121 161l-63 64l126 126l-126 127l63 63l127 -127l126 127l64 -63l-127 -127l127 -126l-64 -64l-126 127z"/>
    <glyph glyph-name="Oslash" unicode="Ø" horiz-adv-x="816" d="M653 631q62 -52 92.5 -126t30.5 -155q0 -69 -23 -134.5t-69 -116.5t-115 -81.5t-161 -30.5q-56 0 -103 11.5t-86 32.5l-57 -79h-89l86 120q-60 51 -89.5 124.5t-29.5 153.5q0 69 23 134.5t68.5 116.5t114.5 81.5t162 30.5q54 0 100.5 -11t84.5 -31l56 77h89zM408 606 q-63 0 -110.5 -21t-79 -56.5t-47 -82t-15.5 -96.5q0 -53 17.5 -102t53.5 -84l301 416q-25 12 -55 19t-65 7zM284 121q26 -13 56.5 -20t66.5 -7q64 0 111.5 21t79 56.5t47 82t15.5 96.5q0 54 -18 103.5t-56 85.5z"/>
    <glyph glyph-name="Ugrave" unicode="Ù" horiz-adv-x="754" d="M676 700v-441q0 -76 -25 -128t-66 -84t-95 -46t-112 -14q-59 0 -113 14t-95.5 46t-66.5 84t-25 128v441h114v-435q0 -48 13.5 -80.5t38.5 -53t59 -29.5t75 -9q40 0 74 9t58.5 29.5t38 53t13.5 80.5v435h114zM342 767l-106 148h124l91 -148h-109z"/>
    <glyph glyph-name="Uacute" unicode="Ú" horiz-adv-x="754" d="M676 700v-441q0 -76 -25 -128t-66 -84t-95 -46t-112 -14q-59 0 -113 14t-95.5 46t-66.5 84t-25 128v441h114v-435q0 -48 13.5 -80.5t38.5 -53t59 -29.5t75 -9q40 0 74 9t58.5 29.5t38 53t13.5 80.5v435h114zM298 767l91 148h124l-106 -148h-109z"/>
    <glyph glyph-name="Ucircumflex" unicode="Û" horiz-adv-x="754" d="M676 700v-441q0 -76 -25 -128t-66 -84t-95 -46t-112 -14q-59 0 -113 14t-95.5 46t-66.5 84t-25 128v441h114v-435q0 -48 13.5 -80.5t38.5 -53t59 -29.5t75 -9q40 0 74 9t58.5 29.5t38 53t13.5 80.5v435h114zM425 915l129 -150h-111l-65 76l-66 -76h-111l129 150h95z"/>
    <glyph glyph-name="Udieresis" unicode="Ü" horiz-adv-x="754" d="M676 700v-441q0 -76 -25 -128t-66 -84t-95 -46t-112 -14q-59 0 -113 14t-95.5 46t-66.5 84t-25 128v441h114v-435q0 -48 13.5 -80.5t38.5 -53t59 -29.5t75 -9q40 0 74 9t58.5 29.5t38 53t13.5 80.5v435h114zM542 835q0 -26 -19 -45t-45 -19t-45 19t-19 45t19 45t45 19 t45 -19t19 -45zM334 835q0 -26 -18.5 -45t-45.5 -19q-26 0 -45 19t-19 45t19 45t45 19q27 0 45.5 -19t18.5 -45z"/>
    <glyph glyph-name="Yacute" unicode="Ý" horiz-adv-x="677" d="M281 0v257l-274 443h128l203 -339l204 339h128l-275 -443v-257h-114zM261 767l91 148h124l-106 -148h-109z"/>
    <glyph glyph-name="Thorn" unicode="Þ" horiz-adv-x="661" d="M335 580q62 0 116.5 -11t95 -37.5t64 -70.5t23.5 -111t-23.5 -111t-64 -70.5t-95 -37.5t-116.5 -11h-136v-120h-114v700h114v-120h136zM341 224q36 0 68 5.5t56.5 19.5t38.5 38.5t14 62.5t-14 62.5t-38 38.5t-56.5 19.5t-68.5 5.5h-142v-252h142z"/>
    <glyph glyph-name="germandbls" unicode="ß" horiz-adv-x="594" d="M564 145q0 -41 -17.5 -71t-46 -49.5t-64 -28.5t-72.5 -9q-31 0 -62.5 6.5t-58.5 17.5v88q26 -12 52 -18t49 -6q22 0 42 4.5t35.5 14t24.5 24.5t9 36q0 20 -11 38.5t-27 36t-35 34t-35 34t-27 35t-11 36.5q0 27 11 47t24.5 39.5t25 41.5t11.5 52q0 35 -25.5 56t-69.5 21 q-50 0 -81 -28t-31 -81v-516h-107v494q0 106 58 162t161 57q53 0 90.5 -14t61.5 -35.5t35.5 -48.5t11.5 -52q0 -33 -11.5 -57.5t-26 -45t-26 -38.5t-11.5 -37q0 -24 24 -47t53 -50.5t53 -61.5t24 -81z"/>
    <glyph glyph-name="agrave" unicode="à" horiz-adv-x="550" d="M476 111q0 -20 10.5 -27.5t24.5 -7.5q8 0 16 2l16 4v-77q-30 -12 -68 -12q-33 0 -58 13.5t-38 42.5q-35 -29 -79.5 -45.5t-101.5 -16.5q-33 0 -63 9t-53.5 27.5t-37.5 46t-14 64.5q0 46 19.5 77t50 49.5t68.5 26.5t76 8q31 0 63.5 -4t61.5 -10v17q0 45 -32 73.5t-94 28.5 q-54 0 -97.5 -11.5t-75.5 -25.5v98q29 10 77.5 21t106.5 11q102 0 162 -50.5t60 -159.5v-172zM265 220q-23 0 -45.5 -4t-40 -13t-28.5 -24.5t-11 -37.5q0 -35 27 -53t63 -18q38 0 74 14t65 43v81q-22 5 -50 8.5t-54 3.5zM217 550l-106 148h124l91 -148h-109z"/>
    <glyph glyph-name="aacute" unicode="á" horiz-adv-x="550" d="M476 111q0 -20 10.5 -27.5t24.5 -7.5q8 0 16 2l16 4v-77q-30 -12 -68 -12q-33 0 -58 13.5t-38 42.5q-35 -29 -79.5 -45.5t-101.5 -16.5q-33 0 -63 9t-53.5 27.5t-37.5 46t-14 64.5q0 46 19.5 77t50 49.5t68.5 26.5t76 8q31 0 63.5 -4t61.5 -10v17q0 45 -32 73.5t-94 28.5 q-54 0 -97.5 -11.5t-75.5 -25.5v98q29 10 77.5 21t106.5 11q102 0 162 -50.5t60 -159.5v-172zM265 220q-23 0 -45.5 -4t-40 -13t-28.5 -24.5t-11 -37.5q0 -35 27 -53t63 -18q38 0 74 14t65 43v81q-22 5 -50 8.5t-54 3.5zM173 550l91 148h124l-106 -148h-109z"/>
    <glyph glyph-name="acircumflex" unicode="â" horiz-adv-x="550" d="M476 111q0 -20 10.5 -27.5t24.5 -7.5q8 0 16 2l16 4v-77q-30 -12 -68 -12q-33 0 -58 13.5t-38 42.5q-35 -29 -79.5 -45.5t-101.5 -16.5q-33 0 -63 9t-53.5 27.5t-37.5 46t-14 64.5q0 46 19.5 77t50 49.5t68.5 26.5t76 8q31 0 63.5 -4t61.5 -10v17q0 45 -32 73.5t-94 28.5 q-54 0 -97.5 -11.5t-75.5 -25.5v98q29 10 77.5 21t106.5 11q102 0 162 -50.5t60 -159.5v-172zM265 220q-23 0 -45.5 -4t-40 -13t-28.5 -24.5t-11 -37.5q0 -35 27 -53t63 -18q38 0 74 14t65 43v81q-22 5 -50 8.5t-54 3.5zM300 698l129 -150h-111l-65 76l-66 -76h-111l129 150 h95z"/>
    <glyph glyph-name="atilde" unicode="ã" horiz-adv-x="550" d="M476 111q0 -20 10.5 -27.5t24.5 -7.5q8 0 16 2l16 4v-77q-30 -12 -68 -12q-33 0 -58 13.5t-38 42.5q-35 -29 -79.5 -45.5t-101.5 -16.5q-33 0 -63 9t-53.5 27.5t-37.5 46t-14 64.5q0 46 19.5 77t50 49.5t68.5 26.5t76 8q31 0 63.5 -4t61.5 -10v17q0 45 -32 73.5t-94 28.5 q-54 0 -97.5 -11.5t-75.5 -25.5v98q29 10 77.5 21t106.5 11q102 0 162 -50.5t60 -159.5v-172zM265 220q-23 0 -45.5 -4t-40 -13t-28.5 -24.5t-11 -37.5q0 -35 27 -53t63 -18q38 0 74 14t65 43v81q-22 5 -50 8.5t-54 3.5zM421 660q6 -29 1 -51.5t-17.5 -38.5t-31 -24 t-39.5 -8q-24 0 -45 6.5t-39.5 14.5t-34 14.5t-26.5 6.5q-17 0 -23 -11t-4 -25h-83q-6 28 -1 51t17.5 38.5t30.5 24t39 8.5q23 0 44.5 -6.5t40 -14.5t34 -14.5t27.5 -6.5q18 0 23.5 11t3.5 25h83z"/>
    <glyph glyph-name="adieresis" unicode="ä" horiz-adv-x="550" d="M476 111q0 -20 10.5 -27.5t24.5 -7.5q8 0 16 2l16 4v-77q-30 -12 -68 -12q-33 0 -58 13.5t-38 42.5q-35 -29 -79.5 -45.5t-101.5 -16.5q-33 0 -63 9t-53.5 27.5t-37.5 46t-14 64.5q0 46 19.5 77t50 49.5t68.5 26.5t76 8q31 0 63.5 -4t61.5 -10v17q0 45 -32 73.5t-94 28.5 q-54 0 -97.5 -11.5t-75.5 -25.5v98q29 10 77.5 21t106.5 11q102 0 162 -50.5t60 -159.5v-172zM265 220q-23 0 -45.5 -4t-40 -13t-28.5 -24.5t-11 -37.5q0 -35 27 -53t63 -18q38 0 74 14t65 43v81q-22 5 -50 8.5t-54 3.5zM417 618q0 -26 -19 -45t-45 -19t-45 19t-19 45t19 45 t45 19t45 -19t19 -45zM209 618q0 -26 -18.5 -45t-45.5 -19q-26 0 -45 19t-19 45t19 45t45 19q27 0 45.5 -19t18.5 -45z"/>
    <glyph glyph-name="aring" unicode="å" horiz-adv-x="550" d="M476 111q0 -20 10.5 -27.5t24.5 -7.5q8 0 16 2l16 4v-77q-30 -12 -68 -12q-33 0 -58 13.5t-38 42.5q-35 -29 -79.5 -45.5t-101.5 -16.5q-33 0 -63 9t-53.5 27.5t-37.5 46t-14 64.5q0 46 19.5 77t50 49.5t68.5 26.5t76 8q31 0 63.5 -4t61.5 -10v17q0 45 -32 73.5t-94 28.5 q-54 0 -97.5 -11.5t-75.5 -25.5v98q29 10 77.5 21t106.5 11q102 0 162 -50.5t60 -159.5v-172zM265 220q-23 0 -45.5 -4t-40 -13t-28.5 -24.5t-11 -37.5q0 -35 27 -53t63 -18q38 0 74 14t65 43v81q-22 5 -50 8.5t-54 3.5zM369 638q0 -27 -9.5 -48.5t-26 -36t-38 -22.5 t-45.5 -8t-46 8t-38.5 22.5t-26.5 36t-10 48.5t10 48t26.5 35.5t38.5 22.5t46 8t45.5 -8t38 -22.5t26 -35.5t9.5 -48zM200 638q0 -23 14.5 -36.5t34.5 -13.5t34.5 13.5t14.5 36.5q0 22 -14.5 35.5t-34.5 13.5t-34.5 -13.5t-14.5 -35.5z"/>
    <glyph glyph-name="ae" unicode="æ" horiz-adv-x="892" d="M447 70q-52 -45 -113.5 -64t-125.5 -19q-36 0 -68 9t-56.5 27.5t-39 46t-14.5 64.5q0 46 19.5 77t51 50t72 26.5t82.5 7.5q35 0 69 -4t62 -10v16q0 48 -34 75t-109 27q-54 0 -97.5 -11t-75.5 -25v98q29 10 77.5 21t107.5 11q146 0 193 -88q34 45 83 66.5t100 21.5 q70 0 118 -26.5t74 -68.5t32.5 -95t-5.5 -106h-361q4 -31 21 -53.5t42.5 -37t57 -21.5t64.5 -7q41 0 79.5 9.5t69.5 24.5v-89q-34 -17 -78.5 -26.5t-94.5 -9.5q-61 0 -114.5 20.5t-88.5 62.5zM140 141q0 -37 28.5 -53.5t68.5 -16.5q43 0 86.5 12.5t85.5 47.5q-15 33 -19 78 q-27 5 -55.5 8.5t-58.5 3.5q-26 0 -50.5 -4t-43.5 -13t-30.5 -24.5t-11.5 -38.5zM629 404q-27 0 -52 -8t-44.5 -24.5t-31.5 -40.5t-13 -55h266q2 17 -2.5 39.5t-18.5 42t-39.5 33t-64.5 13.5z"/>
    <glyph glyph-name="ccedilla" unicode="ç" horiz-adv-x="492" d="M455 20q-55 -25 -119 -31l-11 -43q48 0 73.5 -21.5t26.5 -60.5q0 -25 -11 -43.5t-29.5 -30.5t-44 -17.5t-53.5 -5.5q-56 0 -100 19v76q17 -10 39 -15.5t46 -5.5q32 0 50 8.5t18 24.5q0 10 -9.5 16.5t-25 9.5t-34.5 2.5t-38 -3.5l21 91q-42 6 -81.5 23.5t-69.5 48t-48 74 t-18 100.5q0 67 23.5 115.5t61 80t85 46.5t95.5 15q41 0 78.5 -9t69.5 -28v-98q-26 19 -61 29.5t-72 10.5q-32 0 -62.5 -9t-54.5 -28t-39 -49t-15 -72q0 -41 14.5 -70.5t38 -49t54 -29t62.5 -9.5q38 0 74.5 10t65.5 27v-99z"/>
    <glyph glyph-name="egrave" unicode="è" horiz-adv-x="548" d="M37 240q0 65 22.5 113t57.5 79t78 46t85 15q72 0 120.5 -26t76 -68t34.5 -94.5t-5 -104.5h-361q4 -32 21 -55t42.5 -38t56.5 -22t64 -7q44 0 82.5 9.5t69.5 24.5v-92q-33 -16 -77 -24.5t-95 -8.5q-55 0 -104.5 16t-86.5 47.5t-59 79t-22 110.5zM410 280q2 16 -2.5 37 t-18.5 40.5t-39.5 33t-64.5 13.5q-27 0 -52 -8t-44 -23.5t-31.5 -39t-13.5 -53.5h266zM247 547l-106 148h124l91 -148h-109z"/>
    <glyph glyph-name="eacute" unicode="é" horiz-adv-x="548" d="M37 240q0 65 22.5 113t57.5 79t78 46t85 15q72 0 120.5 -26t76 -68t34.5 -94.5t-5 -104.5h-361q4 -32 21 -55t42.5 -38t56.5 -22t64 -7q44 0 82.5 9.5t69.5 24.5v-92q-33 -16 -77 -24.5t-95 -8.5q-55 0 -104.5 16t-86.5 47.5t-59 79t-22 110.5zM410 280q2 16 -2.5 37 t-18.5 40.5t-39.5 33t-64.5 13.5q-27 0 -52 -8t-44 -23.5t-31.5 -39t-13.5 -53.5h266zM203 547l91 148h124l-106 -148h-109z"/>
    <glyph glyph-name="ecircumflex" unicode="ê" horiz-adv-x="548" d="M37 240q0 65 22.5 113t57.5 79t78 46t85 15q72 0 120.5 -26t76 -68t34.5 -94.5t-5 -104.5h-361q4 -32 21 -55t42.5 -38t56.5 -22t64 -7q44 0 82.5 9.5t69.5 24.5v-92q-33 -16 -77 -24.5t-95 -8.5q-55 0 -104.5 16t-86.5 47.5t-59 79t-22 110.5zM410 280q2 16 -2.5 37 t-18.5 40.5t-39.5 33t-64.5 13.5q-27 0 -52 -8t-44 -23.5t-31.5 -39t-13.5 -53.5h266zM330 695l129 -150h-111l-65 76l-66 -76h-111l129 150h95z"/>
    <glyph glyph-name="edieresis" unicode="ë" horiz-adv-x="548" d="M37 240q0 65 22.5 113t57.5 79t78 46t85 15q72 0 120.5 -26t76 -68t34.5 -94.5t-5 -104.5h-361q4 -32 21 -55t42.5 -38t56.5 -22t64 -7q44 0 82.5 9.5t69.5 24.5v-92q-33 -16 -77 -24.5t-95 -8.5q-55 0 -104.5 16t-86.5 47.5t-59 79t-22 110.5zM410 280q2 16 -2.5 37 t-18.5 40.5t-39.5 33t-64.5 13.5q-27 0 -52 -8t-44 -23.5t-31.5 -39t-13.5 -53.5h266zM447 615q0 -26 -19 -45t-45 -19t-45 19t-19 45t19 45t45 19t45 -19t19 -45zM239 615q0 -26 -18.5 -45t-45.5 -19q-26 0 -45 19t-19 45t19 45t45 19q27 0 45.5 -19t18.5 -45z"/>
    <glyph glyph-name="igrave" unicode="ì" horiz-adv-x="245" d="M69 0v480h107v-480h-107zM94 547l-83 148h117l68 -148h-102z"/>
    <glyph glyph-name="iacute" unicode="í" horiz-adv-x="245" d="M176 480v-480h-107v480h107zM45 547l91 148h124l-106 -148h-109z"/>
    <glyph glyph-name="icircumflex" unicode="î" horiz-adv-x="245" d="M172 688l105 -143h-104l-49 69l-48 -69h-104l105 143h95zM176 480v-480h-107v480h107z"/>
    <glyph glyph-name="idieresis" unicode="ï" horiz-adv-x="245" d="M268 615q0 -24 -17.5 -41.5t-41.5 -17.5t-41.5 17.5t-17.5 41.5t17.5 41.5t41.5 17.5t41.5 -17.5t17.5 -41.5zM94 615q0 -24 -17 -41.5t-42 -17.5q-24 0 -41.5 17.5t-17.5 41.5t17.5 41.5t41.5 17.5q25 0 42 -17.5t17 -41.5zM176 480v-480h-107v480h107z"/>
    <glyph glyph-name="eth" unicode="ð" horiz-adv-x="589" d="M544 274q0 -74 -19 -128.5t-53 -89.5t-80.5 -52t-101.5 -17q-53 0 -99 16t-80 46t-53.5 73t-19.5 97q0 50 17.5 91t47 70t69.5 45t85 16q63 0 112.5 -24.5t72.5 -65.5q-1 5 -1.5 11t-2.5 12q-13 72 -51 121.5t-92 77.5l-87 -87l-54 54l63 63q-54 12 -115 12v90 q44 0 91.5 -7.5t93.5 -24.5l81 81l54 -54l-62 -62q39 -24 72.5 -57t58.5 -78t39 -102t14 -127zM146 219q0 -29 9.5 -53.5t27.5 -43.5t45 -29.5t62 -10.5q34 0 59.5 10t42.5 27.5t26.5 40t12.5 48.5q-1 29 -11 55t-29 45.5t-46 31t-61 11.5q-33 0 -58.5 -10.5t-43.5 -28.5 t-27 -42t-9 -51z"/>
    <glyph glyph-name="ntilde" unicode="ñ" horiz-adv-x="588" d="M162 414q26 32 69 55.5t98 23.5q45 0 82 -14.5t62.5 -40.5t39.5 -62t14 -79v-297h-107v283q0 59 -32 87t-80 28q-23 0 -43 -7t-37 -18.5t-30.5 -25.5t-23.5 -29v-318h-107v480h95v-66zM465 657q6 -29 1 -51.5t-17.5 -38.5t-31 -24t-39.5 -8q-24 0 -45 6.5t-39.5 14.5 t-34 14.5t-26.5 6.5q-17 0 -23 -11t-4 -25h-83q-6 28 -1 51t17.5 38.5t30.5 24t39 8.5q23 0 44.5 -6.5t40 -14.5t34 -14.5t27.5 -6.5q18 0 23.5 11t3.5 25h83z"/>
    <glyph glyph-name="ograve" unicode="ò" horiz-adv-x="594" d="M37 240q0 62 22 109.5t58 79.5t83 48t97 16q51 0 98 -16t83 -48t57.5 -79.5t21.5 -109.5t-21.5 -109.5t-57.5 -79.5t-83 -48t-98 -16q-50 0 -97 16t-83 48t-58 79.5t-22 109.5zM448 240q0 71 -42 113t-109 42q-68 0 -110 -42t-42 -113t42 -113t110 -42q67 0 109 42 t42 113zM264 544l-106 148h124l91 -148h-109z"/>
    <glyph glyph-name="oacute" unicode="ó" horiz-adv-x="594" d="M37 240q0 62 22 109.5t58 79.5t83 48t97 16q51 0 98 -16t83 -48t57.5 -79.5t21.5 -109.5t-21.5 -109.5t-57.5 -79.5t-83 -48t-98 -16q-50 0 -97 16t-83 48t-58 79.5t-22 109.5zM448 240q0 71 -42 113t-109 42q-68 0 -110 -42t-42 -113t42 -113t110 -42q67 0 109 42 t42 113zM220 544l91 148h124l-106 -148h-109z"/>
    <glyph glyph-name="ocircumflex" unicode="ô" horiz-adv-x="594" d="M37 240q0 62 22 109.5t58 79.5t83 48t97 16q51 0 98 -16t83 -48t57.5 -79.5t21.5 -109.5t-21.5 -109.5t-57.5 -79.5t-83 -48t-98 -16q-50 0 -97 16t-83 48t-58 79.5t-22 109.5zM448 240q0 71 -42 113t-109 42q-68 0 -110 -42t-42 -113t42 -113t110 -42q67 0 109 42 t42 113zM347 692l129 -150h-111l-65 76l-66 -76h-111l129 150h95z"/>
    <glyph glyph-name="otilde" unicode="õ" horiz-adv-x="594" d="M37 240q0 62 22 109.5t58 79.5t83 48t97 16q51 0 98 -16t83 -48t57.5 -79.5t21.5 -109.5t-21.5 -109.5t-57.5 -79.5t-83 -48t-98 -16q-50 0 -97 16t-83 48t-58 79.5t-22 109.5zM448 240q0 71 -42 113t-109 42q-68 0 -110 -42t-42 -113t42 -113t110 -42q67 0 109 42 t42 113zM468 654q6 -29 1 -51.5t-17.5 -38.5t-31 -24t-39.5 -8q-24 0 -45 6.5t-39.5 14.5t-34 14.5t-26.5 6.5q-17 0 -23 -11t-4 -25h-83q-6 28 -1 51t17.5 38.5t30.5 24t39 8.5q23 0 44.5 -6.5t40 -14.5t34 -14.5t27.5 -6.5q18 0 23.5 11t3.5 25h83z"/>
    <glyph glyph-name="odieresis" unicode="ö" horiz-adv-x="594" d="M37 240q0 62 22 109.5t58 79.5t83 48t97 16q51 0 98 -16t83 -48t57.5 -79.5t21.5 -109.5t-21.5 -109.5t-57.5 -79.5t-83 -48t-98 -16q-50 0 -97 16t-83 48t-58 79.5t-22 109.5zM448 240q0 71 -42 113t-109 42q-68 0 -110 -42t-42 -113t42 -113t110 -42q67 0 109 42 t42 113zM464 612q0 -26 -19 -45t-45 -19t-45 19t-19 45t19 45t45 19t45 -19t19 -45zM256 612q0 -26 -18.5 -45t-45.5 -19q-26 0 -45 19t-19 45t19 45t45 19q27 0 45.5 -19t18.5 -45z"/>
    <glyph glyph-name="divide" unicode="÷" horiz-adv-x="584" d="M52 302v96h480v-96h-480zM359 126q0 -33 -19.5 -49t-47.5 -16q-27 0 -47 16t-20 49q0 34 20 49.5t47 15.5q28 0 47.5 -15.5t19.5 -49.5zM359 573q0 -33 -19.5 -49t-47.5 -16q-27 0 -47 16t-20 49q0 34 20 49.5t47 15.5q28 0 47.5 -15.5t19.5 -49.5z"/>
    <glyph glyph-name="oslash" unicode="ø" horiz-adv-x="594" d="M461 442q44 -32 70 -82t26 -120q0 -62 -21.5 -109.5t-57.5 -79.5t-83 -48t-98 -16q-63 0 -117 24l-48 -72h-65l65 100q-43 32 -69 82t-26 119q0 62 22 109.5t58 79.5t83 48t97 16q63 0 117 -24l48 74h65zM297 395q-68 0 -110 -42t-42 -113q0 -35 11.5 -64.5t31.5 -49.5 l169 258q-28 11 -60 11zM235 97q28 -12 63 -12q67 0 109 42t42 113q0 73 -44 115z"/>
    <glyph glyph-name="ugrave" unicode="ù" horiz-adv-x="589" d="M522 480v-480h-95v66q-26 -32 -69 -55.5t-98 -23.5q-48 0 -84.5 14.5t-62 40.5t-38.5 62t-13 79v297h107v-283q0 -59 29 -87t83 -28q23 0 43 7t37 18.5t30.5 25.5t23.5 29v318h107zM261 547l-106 148h124l91 -148h-109z"/>
    <glyph glyph-name="uacute" unicode="ú" horiz-adv-x="589" d="M522 480v-480h-95v66q-26 -32 -69 -55.5t-98 -23.5q-48 0 -84.5 14.5t-62 40.5t-38.5 62t-13 79v297h107v-283q0 -59 29 -87t83 -28q23 0 43 7t37 18.5t30.5 25.5t23.5 29v318h107zM217 547l91 148h124l-106 -148h-109z"/>
    <glyph glyph-name="ucircumflex" unicode="û" horiz-adv-x="589" d="M522 480v-480h-95v66q-26 -32 -69 -55.5t-98 -23.5q-48 0 -84.5 14.5t-62 40.5t-38.5 62t-13 79v297h107v-283q0 -59 29 -87t83 -28q23 0 43 7t37 18.5t30.5 25.5t23.5 29v318h107zM344 695l129 -150h-111l-65 76l-66 -76h-111l129 150h95z"/>
    <glyph glyph-name="udieresis" unicode="ü" horiz-adv-x="589" d="M522 480v-480h-95v66q-26 -32 -69 -55.5t-98 -23.5q-48 0 -84.5 14.5t-62 40.5t-38.5 62t-13 79v297h107v-283q0 -59 29 -87t83 -28q23 0 43 7t37 18.5t30.5 25.5t23.5 29v318h107zM461 615q0 -26 -19 -45t-45 -19t-45 19t-19 45t19 45t45 19t45 -19t19 -45zM253 615 q0 -26 -18.5 -45t-45.5 -19q-26 0 -45 19t-19 45t19 45t45 19q27 0 45.5 -19t18.5 -45z"/>
    <glyph glyph-name="yacute" unicode="ý" horiz-adv-x="551" d="M426 480h112l-225 -545q-20 -47 -42 -79t-46.5 -51.5t-51 -28t-53.5 -8.5q-29 0 -63 8v91q12 -4 24.5 -5.5t24.5 -1.5q77 0 119 112l10 24l-228 484h114l162 -362zM190 547l91 148h124l-106 -148h-109z"/>
    <glyph glyph-name="thorn" unicode="þ" horiz-adv-x="622" d="M174 700v-285q26 30 69 54t106 24q54 0 97.5 -20.5t74.5 -55t47.5 -80.5t16.5 -97q0 -52 -17 -98t-48 -80.5t-74.5 -54.5t-96.5 -20q-64 0 -106.5 24t-68.5 53v-284h-107v920h107zM476 240q0 35 -11 64.5t-31 50.5t-47 32.5t-60 11.5q-28 0 -52 -8.5t-43.5 -22.5 t-34 -32.5t-23.5 -38.5v-114q19 -40 59 -70t94 -31q32 0 59.5 11.5t47.5 32.5t31 50t11 64z"/>
    <glyph glyph-name="ydieresis" unicode="ÿ" horiz-adv-x="551" d="M426 480h112l-225 -545q-20 -47 -42 -79t-46.5 -51.5t-51 -28t-53.5 -8.5q-29 0 -63 8v91q12 -4 24.5 -5.5t24.5 -1.5q77 0 119 112l10 24l-228 484h114l162 -362zM434 615q0 -26 -19 -45t-45 -19t-45 19t-19 45t19 45t45 19t45 -19t19 -45zM226 615q0 -26 -18.5 -45 t-45.5 -19q-26 0 -45 19t-19 45t19 45t45 19q27 0 45.5 -19t18.5 -45z"/>
    <glyph glyph-name="Amacron" unicode="Ā" horiz-adv-x="728" d="M6 0l296 700h125l295 -700h-120l-62 151h-351l-62 -151h-121zM228 251h272l-123 299q-3 8 -6 17t-7 22q-4 -13 -7 -22t-6 -17zM519 866v-90h-312v90h312z"/>
    <glyph glyph-name="amacron" unicode="ā" horiz-adv-x="550" d="M476 111q0 -20 10.5 -27.5t24.5 -7.5q8 0 16 2l16 4v-77q-30 -12 -68 -12q-33 0 -58 13.5t-38 42.5q-35 -29 -79.5 -45.5t-101.5 -16.5q-33 0 -63 9t-53.5 27.5t-37.5 46t-14 64.5q0 46 19.5 77t50 49.5t68.5 26.5t76 8q31 0 63.5 -4t61.5 -10v17q0 45 -32 73.5t-94 28.5 q-54 0 -97.5 -11.5t-75.5 -25.5v98q29 10 77.5 21t106.5 11q102 0 162 -50.5t60 -159.5v-172zM265 220q-23 0 -45.5 -4t-40 -13t-28.5 -24.5t-11 -37.5q0 -35 27 -53t63 -18q38 0 74 14t65 43v81q-22 5 -50 8.5t-54 3.5zM406 649v-90h-312v90h312z"/>
    <glyph glyph-name="Abreve" unicode="Ă" horiz-adv-x="728" d="M6 0l296 700h125l295 -700h-120l-62 151h-351l-62 -151h-121zM228 251h272l-123 299q-3 8 -6 17t-7 22q-4 -13 -7 -22t-6 -17zM510 802q-33 -23 -69 -33t-78 -10t-78.5 10t-69.5 33v92q38 -25 73.5 -34t74.5 -9q38 0 73.5 9t73.5 34v-92z"/>
    <glyph glyph-name="abreve" unicode="ă" horiz-adv-x="550" d="M476 111q0 -20 10.5 -27.5t24.5 -7.5q8 0 16 2l16 4v-77q-30 -12 -68 -12q-33 0 -58 13.5t-38 42.5q-35 -29 -79.5 -45.5t-101.5 -16.5q-33 0 -63 9t-53.5 27.5t-37.5 46t-14 64.5q0 46 19.5 77t50 49.5t68.5 26.5t76 8q31 0 63.5 -4t61.5 -10v17q0 45 -32 73.5t-94 28.5 q-54 0 -97.5 -11.5t-75.5 -25.5v98q29 10 77.5 21t106.5 11q102 0 162 -50.5t60 -159.5v-172zM265 220q-23 0 -45.5 -4t-40 -13t-28.5 -24.5t-11 -37.5q0 -35 27 -53t63 -18q38 0 74 14t65 43v81q-22 5 -50 8.5t-54 3.5zM397 585q-33 -23 -69 -33t-78 -10t-78.5 10t-69.5 33 v92q38 -25 73.5 -34t74.5 -9q38 0 73.5 9t73.5 34v-92z"/>
    <glyph glyph-name="Aogonek" unicode="Ą" horiz-adv-x="728" d="M641 -113q-1 -17 9.5 -27t29.5 -10q13 0 26.5 4.5t24.5 12.5v-78q-18 -11 -39.5 -16.5t-43.5 -5.5q-53 0 -79.5 27.5t-26.5 66.5q1 32 19.5 68t56.5 71h-16l-62 151h-351l-62 -151h-121l296 700h125l295 -700q-40 -27 -61 -58t-20 -55zM228 251h272l-123 299q-4 8 -7 17 t-6 22q-3 -13 -6 -22t-7 -17z"/>
    <glyph glyph-name="aogonek" unicode="ą" horiz-adv-x="550" d="M543 5q-40 -27 -61 -58.5t-20 -55.5q-1 -17 9.5 -26.5t29.5 -10.5q21 2 41 11v-77q-17 -9 -35 -13t-38 -4q-53 0 -79.5 27.5t-26.5 66.5q1 33 18.5 68t54.5 65q-39 12 -57 51q-35 -29 -79.5 -45.5t-101.5 -16.5q-33 0 -63 9t-53.5 27.5t-37.5 46t-14 64.5q0 46 19.5 77 t50 49.5t68.5 26.5t76 8q31 0 63.5 -4t61.5 -10v17q0 45 -32 73.5t-94 28.5q-54 0 -97.5 -11.5t-75.5 -25.5v98q29 10 77.5 21t106.5 11q102 0 162 -50.5t60 -159.5v-172q0 -20 10.5 -27.5t24.5 -7.5q8 0 16 2l16 4v-77zM230 70q38 0 74 14t65 43v81q-22 5 -50 8.5t-54 3.5 q-23 0 -45.5 -4t-40 -13t-28.5 -24.5t-11 -37.5q0 -35 27 -53t63 -18z"/>
    <glyph glyph-name="Cacute" unicode="Ć" horiz-adv-x="655" d="M42 344q0 93 32 162.5t84.5 115.5t119 68.5t135.5 22.5q107 0 199 -46v-111q-37 26 -83.5 39t-96.5 13t-99 -15t-88 -47.5t-63 -82.5t-24 -119q0 -65 24.5 -112t63.5 -78.5t88.5 -46.5t99.5 -15q54 0 101 14t82 40v-113q-45 -22 -96 -34t-107 -12q-68 0 -134.5 22 t-119.5 66.5t-85.5 111.5t-32.5 157zM324 767l91 148h124l-106 -148h-109z"/>
    <glyph glyph-name="cacute" unicode="ć" horiz-adv-x="492" d="M37 236q0 67 23.5 115.5t61 80t85 46.5t95.5 15q41 0 78.5 -9t69.5 -28v-98q-26 19 -61 29.5t-72 10.5q-32 0 -62.5 -9t-54.5 -28t-39 -49t-15 -72q0 -41 14.5 -70.5t38 -49t54 -29t62.5 -9.5q38 0 74.5 10t65.5 27v-99q-69 -33 -159 -33q-48 0 -94.5 15t-83 45.5 t-59 77.5t-22.5 111zM224 547l91 148h124l-106 -148h-109z"/>
    <glyph glyph-name="Cdotaccent" unicode="Ċ" horiz-adv-x="655" d="M42 344q0 93 32 162.5t84.5 115.5t119 68.5t135.5 22.5q107 0 199 -46v-111q-37 26 -83.5 39t-96.5 13t-99 -15t-88 -47.5t-63 -82.5t-24 -119q0 -65 24.5 -112t63.5 -78.5t88.5 -46.5t99.5 -15q54 0 101 14t82 40v-113q-45 -22 -96 -34t-107 -12q-68 0 -134.5 22 t-119.5 66.5t-85.5 111.5t-32.5 157zM328 830q0 34 21 50.5t49 16.5q29 0 49.5 -16.5t20.5 -50.5q0 -35 -20.5 -52t-49.5 -17q-28 0 -49 17t-21 52z"/>
    <glyph glyph-name="cdotaccent" unicode="ċ" horiz-adv-x="492" d="M37 236q0 67 23.5 115.5t61 80t85 46.5t95.5 15q41 0 78.5 -9t69.5 -28v-98q-26 19 -61 29.5t-72 10.5q-32 0 -62.5 -9t-54.5 -28t-39 -49t-15 -72q0 -41 14.5 -70.5t38 -49t54 -29t62.5 -9.5q38 0 74.5 10t65.5 27v-99q-69 -33 -159 -33q-48 0 -94.5 15t-83 45.5 t-59 77.5t-22.5 111zM228 610q0 34 21 50.5t49 16.5q29 0 49.5 -16.5t20.5 -50.5q0 -35 -20.5 -52t-49.5 -17q-28 0 -49 17t-21 52z"/>
    <glyph glyph-name="Ccaron" unicode="Č" horiz-adv-x="655" d="M42 344q0 93 32 162.5t84.5 115.5t119 68.5t135.5 22.5q107 0 199 -46v-111q-37 26 -83.5 39t-96.5 13t-99 -15t-88 -47.5t-63 -82.5t-24 -119q0 -65 24.5 -112t63.5 -78.5t88.5 -46.5t99.5 -15q54 0 101 14t82 40v-113q-45 -22 -96 -34t-107 -12q-68 0 -134.5 22 t-119.5 66.5t-85.5 111.5t-32.5 157zM451 761h-95l-132 150h111l69 -79l68 79h111z"/>
    <glyph glyph-name="ccaron" unicode="č" horiz-adv-x="492" d="M37 236q0 67 23.5 115.5t61 80t85 46.5t95.5 15q41 0 78.5 -9t69.5 -28v-98q-26 19 -61 29.5t-72 10.5q-32 0 -62.5 -9t-54.5 -28t-39 -49t-15 -72q0 -41 14.5 -70.5t38 -49t54 -29t62.5 -9.5q38 0 74.5 10t65.5 27v-99q-69 -33 -159 -33q-48 0 -94.5 15t-83 45.5 t-59 77.5t-22.5 111zM351 541h-95l-132 150h111l69 -79l68 79h111z"/>
    <glyph glyph-name="Dcaron" unicode="Ď" horiz-adv-x="741" d="M330 700q93 0 162 -26t115 -72.5t68.5 -111t22.5 -140.5t-22.5 -140.5t-68.5 -111t-115 -72.5t-162 -26h-245v700h245zM582 350q0 118 -64 182t-189 64h-130v-492h130q125 0 189 64t64 182zM391 761h-95l-132 150h111l69 -79l68 79h111z"/>
    <glyph glyph-name="dcaron" unicode="ď" horiz-adv-x="622" d="M723 700l-30 -192h-85l17 192h98zM555 700v-700h-96v76q-14 -18 -32 -34t-40.5 -28t-50 -19.5t-61.5 -7.5q-54 0 -98 20t-75 54.5t-48 80.5t-17 98t17 98t48 80.5t75 54.5t98 20q63 0 105.5 -23t67.5 -52v282h107zM447 299q-9 19 -23.5 37.5t-34 32t-43.5 22t-52 8.5 q-32 0 -59.5 -11.5t-47.5 -32.5t-31 -50.5t-11 -64.5t11 -64.5t31 -50.5t47.5 -32.5t59.5 -11.5q28 0 52 8.5t43.5 22.5t34 32t23.5 38v117z"/>
    <glyph glyph-name="Dcroat" unicode="Đ" horiz-adv-x="747" d="M336 700q93 0 162.5 -26t115 -72.5t68.5 -111t23 -140.5t-23 -140.5t-68.5 -111t-115 -72.5t-162.5 -26h-244v303h-79v92h79v305h244zM336 104q125 0 189 64t64 182t-64 182t-189 64h-130v-201h185v-92h-185v-199h130z"/>
    <glyph glyph-name="dcroat" unicode="đ" horiz-adv-x="622" d="M619 634v-72h-64v-562h-96v76q-14 -18 -32 -34t-40.5 -28t-50 -19.5t-61.5 -7.5q-54 0 -98 20t-75 54.5t-48 80.5t-17 98t17 98t48 80.5t75 54.5t98 20q63 0 105.5 -23t67.5 -52v144h-157v72h157v66h107v-66h64zM294 81q28 0 52 8.5t43.5 22.5t34 32t23.5 38v117 q-9 19 -23.5 37.5t-34 32t-43.5 22t-52 8.5q-32 0 -59.5 -11.5t-47.5 -32.5t-31 -50.5t-11 -64.5t11 -64.5t31 -50.5t47.5 -32.5t59.5 -11.5z"/>
    <glyph glyph-name="Emacron" unicode="Ē" horiz-adv-x="620" d="M567 700v-104h-368v-191h338v-104h-338v-197h374v-104h-488v700h482zM489 866v-90h-312v90h312z"/>
    <glyph glyph-name="emacron" unicode="ē" horiz-adv-x="548" d="M37 240q0 65 22.5 113t57.5 79t78 46t85 15q72 0 120.5 -26t76 -68t34.5 -94.5t-5 -104.5h-361q4 -32 21 -55t42.5 -38t56.5 -22t64 -7q44 0 82.5 9.5t69.5 24.5v-92q-33 -16 -77 -24.5t-95 -8.5q-55 0 -104.5 16t-86.5 47.5t-59 79t-22 110.5zM410 280q2 16 -2.5 37 t-18.5 40.5t-39.5 33t-64.5 13.5q-27 0 -52 -8t-44 -23.5t-31.5 -39t-13.5 -53.5h266zM436 646v-90h-312v90h312z"/>
    <glyph glyph-name="Edotaccent" unicode="Ė" horiz-adv-x="620" d="M567 700v-104h-368v-191h338v-104h-338v-197h374v-104h-488v700h482zM260 830q0 34 21 50.5t49 16.5q29 0 49.5 -16.5t20.5 -50.5q0 -35 -20.5 -52t-49.5 -17q-28 0 -49 17t-21 52z"/>
    <glyph glyph-name="edotaccent" unicode="ė" horiz-adv-x="548" d="M37 240q0 65 22.5 113t57.5 79t78 46t85 15q72 0 120.5 -26t76 -68t34.5 -94.5t-5 -104.5h-361q4 -32 21 -55t42.5 -38t56.5 -22t64 -7q44 0 82.5 9.5t69.5 24.5v-92q-33 -16 -77 -24.5t-95 -8.5q-55 0 -104.5 16t-86.5 47.5t-59 79t-22 110.5zM410 280q2 16 -2.5 37 t-18.5 40.5t-39.5 33t-64.5 13.5q-27 0 -52 -8t-44 -23.5t-31.5 -39t-13.5 -53.5h266zM207 610q0 34 21 50.5t49 16.5q29 0 49.5 -16.5t20.5 -50.5q0 -35 -20.5 -52t-49.5 -17q-28 0 -49 17t-21 52z"/>
    <glyph glyph-name="Eogonek" unicode="Ę" horiz-adv-x="620" d="M486 -116q0 -17 11 -26t28 -9q14 0 25.5 3.5t22.5 9.5v-79q-35 -16 -83 -16q-51 0 -77 27t-26 66q1 35 23.5 72t63.5 68h-389v700h482v-104h-368v-191h338v-104h-338v-197h374v-104q-40 -27 -63.5 -59.5t-23.5 -56.5z"/>
    <glyph glyph-name="eogonek" unicode="ę" horiz-adv-x="548" d="M469 -211q-18 -11 -39 -16.5t-44 -5.5q-53 -1 -79.5 27t-25.5 67q0 32 18 65.5t55 62.5q-11 -1 -22.5 -1.5t-22.5 -0.5q-55 0 -104.5 16t-86.5 47.5t-59 79t-22 110.5q0 65 22.5 113t57.5 79t78 46t85 15q72 0 120.5 -26t76 -68t34.5 -94.5t-5 -104.5h-361q4 -32 21 -55 t42.5 -38t56.5 -22t64 -7q44 0 82.5 9.5t69.5 24.5v-92q-56 -42 -79.5 -75.5t-22.5 -57.5q-1 -17 9.5 -26.5t29.5 -10.5q28 2 51 17v-78zM285 404q-27 0 -52 -8t-44 -23.5t-31.5 -39t-13.5 -53.5h266q2 16 -2.5 37t-18.5 40.5t-39.5 33t-64.5 13.5z"/>
    <glyph glyph-name="Ecaron" unicode="Ě" horiz-adv-x="620" d="M567 700v-104h-368v-191h338v-104h-338v-197h374v-104h-488v700h482zM383 761h-95l-132 150h111l69 -79l68 79h111z"/>
    <glyph glyph-name="ecaron" unicode="ě" horiz-adv-x="548" d="M37 240q0 65 22.5 113t57.5 79t78 46t85 15q72 0 120.5 -26t76 -68t34.5 -94.5t-5 -104.5h-361q4 -32 21 -55t42.5 -38t56.5 -22t64 -7q44 0 82.5 9.5t69.5 24.5v-92q-33 -16 -77 -24.5t-95 -8.5q-55 0 -104.5 16t-86.5 47.5t-59 79t-22 110.5zM410 280q2 16 -2.5 37 t-18.5 40.5t-39.5 33t-64.5 13.5q-27 0 -52 -8t-44 -23.5t-31.5 -39t-13.5 -53.5h266zM330 541h-95l-132 150h111l69 -79l68 79h111z"/>
    <glyph glyph-name="Gbreve" unicode="Ğ" horiz-adv-x="704" d="M42 350q0 93 32.5 161t85 113t120 67t138.5 22q115 0 212 -46v-111q-40 26 -91 39t-105 13q-51 0 -100.5 -14.5t-88.5 -46t-62.5 -80t-23.5 -117.5q0 -75 24.5 -125t63.5 -79.5t87.5 -42t96.5 -12.5q29 0 56.5 5t48.5 15v265h111v-342q-51 -23 -108 -35t-115 -12 q-73 0 -141.5 20t-122 63.5t-86 112.5t-32.5 167zM547 802q-33 -23 -69 -33t-78 -10t-78.5 10t-69.5 33v92q38 -25 73.5 -34t74.5 -9q38 0 73.5 9t73.5 34v-92z"/>
    <glyph glyph-name="gbreve" unicode="ğ" horiz-adv-x="622" d="M37 240q0 52 17 98t48 80.5t75 54.5t98 20q34 0 61.5 -7.5t50 -19.5t40.5 -28t32 -33v75h96v-474q0 -65 -23 -110.5t-60.5 -74t-86 -41.5t-99.5 -13q-55 0 -105 11.5t-93 33.5v98q84 -49 184 -49q36 0 68 7t56 23.5t38 43.5t14 68v61q-25 -29 -67.5 -53t-105.5 -24 q-54 0 -98 20t-75 54.5t-48 80.5t-17 98zM447 299q-9 19 -23.5 37.5t-34 32t-43.5 22t-52 8.5q-32 0 -59.5 -11.5t-47.5 -32.5t-31 -50.5t-11 -64.5t11 -64.5t31 -50.5t47.5 -32.5t59.5 -11.5q57 0 96.5 28.5t56.5 65.5v124zM433 582q-33 -23 -69 -33t-78 -10t-78.5 10 t-69.5 33v92q38 -25 73.5 -34t74.5 -9q38 0 73.5 9t73.5 34v-92z"/>
    <glyph glyph-name="Gdotaccent" unicode="Ġ" horiz-adv-x="704" d="M42 350q0 93 32.5 161t85 113t120 67t138.5 22q115 0 212 -46v-111q-40 26 -91 39t-105 13q-51 0 -100.5 -14.5t-88.5 -46t-62.5 -80t-23.5 -117.5q0 -75 24.5 -125t63.5 -79.5t87.5 -42t96.5 -12.5q29 0 56.5 5t48.5 15v265h111v-342q-51 -23 -108 -35t-115 -12 q-73 0 -141.5 20t-122 63.5t-86 112.5t-32.5 167zM327 830q0 34 21 50.5t49 16.5q29 0 49.5 -16.5t20.5 -50.5q0 -35 -20.5 -52t-49.5 -17q-28 0 -49 17t-21 52z"/>
    <glyph glyph-name="gdotaccent" unicode="ġ" horiz-adv-x="622" d="M37 240q0 52 17 98t48 80.5t75 54.5t98 20q34 0 61.5 -7.5t50 -19.5t40.5 -28t32 -33v75h96v-474q0 -65 -23 -110.5t-60.5 -74t-86 -41.5t-99.5 -13q-55 0 -105 11.5t-93 33.5v98q84 -49 184 -49q36 0 68 7t56 23.5t38 43.5t14 68v61q-25 -29 -67.5 -53t-105.5 -24 q-54 0 -98 20t-75 54.5t-48 80.5t-17 98zM447 299q-9 19 -23.5 37.5t-34 32t-43.5 22t-52 8.5q-32 0 -59.5 -11.5t-47.5 -32.5t-31 -50.5t-11 -64.5t11 -64.5t31 -50.5t47.5 -32.5t59.5 -11.5q57 0 96.5 28.5t56.5 65.5v124zM213 610q0 34 21 50.5t49 16.5q29 0 49.5 -16.5 t20.5 -50.5q0 -35 -20.5 -52t-49.5 -17q-28 0 -49 17t-21 52z"/>
    <glyph glyph-name="uni0122" unicode="Ģ" horiz-adv-x="704" d="M42 350q0 93 32.5 161t85 113t120 67t138.5 22q115 0 212 -46v-111q-40 26 -91 39t-105 13q-51 0 -100.5 -14.5t-88.5 -46t-62.5 -80t-23.5 -117.5q0 -75 24.5 -125t63.5 -79.5t87.5 -42t96.5 -12.5q29 0 56.5 5t48.5 15v265h111v-342q-51 -23 -108 -35t-115 -12 q-73 0 -141.5 20t-122 63.5t-86 112.5t-32.5 167zM340 -256l28 199h103l-41 -199h-90z"/>
    <glyph glyph-name="uni0123" unicode="ģ" horiz-adv-x="622" d="M242 543l40 178h85l-27 -178h-98zM37 240q0 52 17 98t48 80.5t75 54.5t98 20q34 0 61.5 -7.5t50 -19.5t40.5 -28t32 -33v75h96v-474q0 -65 -23 -110.5t-60.5 -74t-86 -41.5t-99.5 -13q-55 0 -105 11.5t-93 33.5v98q84 -49 184 -49q36 0 68 7t56 23.5t38 43.5t14 68v61 q-25 -29 -67.5 -53t-105.5 -24q-54 0 -98 20t-75 54.5t-48 80.5t-17 98zM447 299q-9 19 -23.5 37.5t-34 32t-43.5 22t-52 8.5q-32 0 -59.5 -11.5t-47.5 -32.5t-31 -50.5t-11 -64.5t11 -64.5t31 -50.5t47.5 -32.5t59.5 -11.5q57 0 96.5 28.5t56.5 65.5v124z"/>
    <glyph glyph-name="Hbar" unicode="Ħ" horiz-adv-x="774" d="M89 0v500h-72v82h72v118h114v-118h368v118h114v-118h72v-82h-72v-500h-114v301h-368v-301h-114zM203 400h369v100h-369v-100z"/>
    <glyph glyph-name="hbar" unicode="ħ" horiz-adv-x="588" d="M174 427q26 27 66 46.5t89 19.5q45 0 82 -14.5t62.5 -40.5t39.5 -62t14 -79v-297h-107v283q0 59 -32 87t-80 28q-23 0 -43 -7t-37 -18.5t-30.5 -25.5t-23.5 -29v-318h-107v554h-56v72h56v74h107v-74h161v-72h-161v-127v0z"/>
    <glyph glyph-name="Imacron" unicode="Ī" horiz-adv-x="284" d="M199 700v-700h-114v700h114zM299 866v-90h-312v90h312z"/>
    <glyph glyph-name="imacron" unicode="ī" horiz-adv-x="245" d="M239 655v-86h-232v86h232zM176 480v-480h-107v480h107z"/>
    <glyph glyph-name="Iogonek" unicode="Į" horiz-adv-x="284" d="M130 -114q-1 -17 9.5 -26.5t29.5 -10.5q28 2 51 17v-77q-18 -12 -39 -17.5t-44 -5.5q-53 0 -79.5 27.5t-26.5 66.5q1 35 18.5 68.5t49.5 71.5h-14v700h114v-700q-32 -34 -51 -62t-18 -52z"/>
    <glyph glyph-name="iogonek" unicode="į" horiz-adv-x="245" d="M189 636q0 -33 -20 -48.5t-46 -15.5t-46 15.5t-20 48.5q0 32 20 47.5t46 15.5t46 -15.5t20 -47.5zM114 -114q0 -35 40 -37q12 1 25.5 5t24.5 12v-77q-17 -12 -38.5 -17.5t-43.5 -5.5q-54 0 -80 27.5t-26 66.5q0 35 16 72t47 68h-10v480h107v-480q-29 -27 -45.5 -58.5 t-16.5 -55.5z"/>
    <glyph glyph-name="Idotaccent" unicode="İ" horiz-adv-x="284" d="M199 700v-700h-114v700h114zM70 830q0 34 21 50.5t49 16.5q29 0 49.5 -16.5t20.5 -50.5q0 -35 -20.5 -52t-49.5 -17q-28 0 -49 17t-21 52z"/>
    <glyph glyph-name="dotlessi" unicode="ı" horiz-adv-x="245" d="M176 480v-480h-107v480h107z"/>
    <glyph glyph-name="IJ" unicode="Ĳ" horiz-adv-x="798" d="M199 700v-700h-114v700h114zM719 700v-496q0 -58 -19 -99t-52 -67t-76.5 -38t-92.5 -12q-52 0 -99 11t-81 30v109q32 -20 72.5 -31t83.5 -11q31 0 58.5 5.5t48 19t32 36.5t11.5 57v381h-197v105h311z"/>
    <glyph glyph-name="ij" unicode="ĳ" horiz-adv-x="490" d="M69 0v480h107v-480h-107zM188 636q0 -33 -19.5 -48.5t-45.5 -15.5t-46 15.5t-20 48.5q0 32 20 47.5t46 15.5t45.5 -15.5t19.5 -47.5zM421 -79q0 -45 -13 -74.5t-35 -47t-49.5 -25t-55.5 -7.5q-46 0 -79 14v94q23 -10 51 -10q29 0 51.5 15.5t22.5 58.5v541h107v-559z M433 636q0 -33 -20 -48.5t-46 -15.5t-46 15.5t-20 48.5q0 32 20 47.5t46 15.5t46 -15.5t20 -47.5z"/>
    <glyph glyph-name="uni0136" unicode="Ķ" horiz-adv-x="678" d="M85 0v700h114v-292h138l195 292h129l-232 -341l250 -359h-129l-211 303h-140v-303h-114zM286 -246l28 199h103l-41 -199h-90z"/>
    <glyph glyph-name="uni0137" unicode="ķ" horiz-adv-x="533" d="M409 0l-158 199h-77v-199h-107v700h107v-410h79l138 190h122l-174 -238l193 -242h-123zM206 -246l28 199h103l-41 -199h-90z"/>
    <glyph glyph-name="Lacute" unicode="Ĺ" horiz-adv-x="581" d="M199 700v-594h368v-106h-482v700h114zM88 767l91 148h124l-106 -148h-109z"/>
    <glyph glyph-name="lacute" unicode="ĺ" horiz-adv-x="245" d="M176 730v-730h-107v730h107zM58 773l91 148h124l-106 -148h-109z"/>
    <glyph glyph-name="uni013B" unicode="Ļ" horiz-adv-x="581" d="M199 700v-594h368v-106h-482v700h114zM252 -246l28 199h103l-41 -199h-90z"/>
    <glyph glyph-name="uni013C" unicode="ļ" horiz-adv-x="245" d="M176 730v-730h-107v730h107zM49 -246l28 199h103l-41 -199h-90z"/>
    <glyph glyph-name="Lcaron" unicode="Ľ" horiz-adv-x="581" d="M473 700l-30 -192h-85l17 192h98zM199 700v-594h368v-106h-482v700h114z"/>
    <glyph glyph-name="lcaron" unicode="ľ" horiz-adv-x="245" d="M344 730l-30 -192h-85l17 192h98zM176 730v-730h-107v730h107z"/>
    <glyph glyph-name="Ldot" unicode="Ŀ" horiz-adv-x="586" d="M443 367q0 -32 -19 -47t-45 -15t-45.5 15t-19.5 47t19.5 47.5t45.5 15.5t45 -15.5t19 -47.5zM199 700v-594h368v-106h-482v700h114z"/>
    <glyph glyph-name="ldot" unicode="ŀ" horiz-adv-x="340" d="M176 730v-730h-107v730h107zM360 350q0 -33 -20 -49t-47 -16t-47.5 16t-20.5 49t20.5 49t47.5 16t47 -16t20 -49z"/>
    <glyph glyph-name="Lslash" unicode="Ł" horiz-adv-x="593" d="M97 0v259l-80 -32v94l80 33v346h114v-304l194 79v-94l-194 -79v-196h368v-106h-482z"/>
    <glyph glyph-name="lslash" unicode="ł" horiz-adv-x="336" d="M227 730v-297l82 33v-88l-82 -34v-344h-107v302l-81 -33v88l81 34v339h107z"/>
    <glyph glyph-name="Nacute" unicode="Ń" horiz-adv-x="767" d="M85 0v700h107l377 -512q-1 18 -1 37.5v39.5v435h114v-700h-107l-377 512q1 -18 1 -37.5v-38.5v-436h-114zM307 767l91 148h124l-106 -148h-109z"/>
    <glyph glyph-name="nacute" unicode="ń" horiz-adv-x="588" d="M162 414q26 32 69 55.5t98 23.5q45 0 82 -14.5t62.5 -40.5t39.5 -62t14 -79v-297h-107v283q0 59 -32 87t-80 28q-23 0 -43 -7t-37 -18.5t-30.5 -25.5t-23.5 -29v-318h-107v480h95v-66zM217 547l91 148h124l-106 -148h-109z"/>
    <glyph glyph-name="uni0145" unicode="Ņ" horiz-adv-x="767" d="M85 0v700h107l377 -512q-1 18 -1 37.5v39.5v435h114v-700h-107l-377 512q1 -18 1 -37.5v-38.5v-436h-114zM321 -246l28 199h103l-41 -199h-90z"/>
    <glyph glyph-name="uni0146" unicode="ņ" horiz-adv-x="588" d="M162 414q26 32 69 55.5t98 23.5q45 0 82 -14.5t62.5 -40.5t39.5 -62t14 -79v-297h-107v283q0 59 -32 87t-80 28q-23 0 -43 -7t-37 -18.5t-30.5 -25.5t-23.5 -29v-318h-107v480h95v-66zM225 -246l28 199h103l-41 -199h-90z"/>
    <glyph glyph-name="Ncaron" unicode="Ň" horiz-adv-x="767" d="M85 0v700h107l377 -512q-1 18 -1 37.5v39.5v435h114v-700h-107l-377 512q1 -18 1 -37.5v-38.5v-436h-114zM434 761h-95l-132 150h111l69 -79l68 79h111z"/>
    <glyph glyph-name="ncaron" unicode="ň" horiz-adv-x="588" d="M162 414q26 32 69 55.5t98 23.5q45 0 82 -14.5t62.5 -40.5t39.5 -62t14 -79v-297h-107v283q0 59 -32 87t-80 28q-23 0 -43 -7t-37 -18.5t-30.5 -25.5t-23.5 -29v-318h-107v480h95v-66zM344 541h-95l-132 150h111l69 -79l68 79h111z"/>
    <glyph glyph-name="Eng" unicode="Ŋ" horiz-adv-x="767" d="M682 -64q0 -42 -11.5 -73.5t-32.5 -52t-49.5 -30.5t-62.5 -10q-35 0 -74 11v99q10 -4 21.5 -5.5t22.5 -1.5q35 0 53.5 18t18.5 56v63l-370 502q1 -18 1 -37.5v-38.5v-436h-114v700h107l377 -512q-1 18 -1 37.5v39.5v435h114v-764v0z"/>
    <glyph glyph-name="eng" unicode="ŋ" horiz-adv-x="588" d="M527 -82q0 -45 -13.5 -74t-35 -46t-48 -24t-52.5 -7q-45 0 -76 14v90q23 -10 46 -10q14 0 27 3.5t23 12t16 23t6 36.5v347q0 59 -32 87t-80 28q-23 0 -43 -7t-37 -18.5t-30.5 -25.5t-23.5 -29v-318h-107v480h95v-66q26 32 69 55.5t98 23.5q45 0 82 -14.5t62.5 -40.5 t39.5 -62t14 -79v-379v0z"/>
    <glyph glyph-name="Omacron" unicode="Ō" horiz-adv-x="816" d="M40 350q0 69 23 134.5t68.5 116.5t114.5 81.5t162 30.5q92 0 161 -30.5t115 -81.5t69 -116.5t23 -134.5t-23 -134.5t-69 -116.5t-115 -81.5t-161 -30.5q-93 0 -162 30.5t-114.5 81.5t-68.5 116.5t-23 134.5zM660 350q0 50 -15.5 96.5t-47 82t-78.5 56.5t-111 21 q-63 0 -110.5 -21t-79 -56.5t-47 -82t-15.5 -96.5t15.5 -96.5t47 -82t79 -56.5t110.5 -21q64 0 111 21t78.5 56.5t47 82t15.5 96.5zM564 866v-90h-312v90h312z"/>
    <glyph glyph-name="omacron" unicode="ō" horiz-adv-x="594" d="M37 240q0 62 22 109.5t58 79.5t83 48t97 16q51 0 98 -16t83 -48t57.5 -79.5t21.5 -109.5t-21.5 -109.5t-57.5 -79.5t-83 -48t-98 -16q-50 0 -97 16t-83 48t-58 79.5t-22 109.5zM448 240q0 71 -42 113t-109 42q-68 0 -110 -42t-42 -113t42 -113t110 -42q67 0 109 42 t42 113zM453 643v-90h-312v90h312z"/>
    <glyph glyph-name="Ohungarumlaut" unicode="Ő" horiz-adv-x="816" d="M40 350q0 69 23 134.5t68.5 116.5t114.5 81.5t162 30.5q92 0 161 -30.5t115 -81.5t69 -116.5t23 -134.5t-23 -134.5t-69 -116.5t-115 -81.5t-161 -30.5q-93 0 -162 30.5t-114.5 81.5t-68.5 116.5t-23 134.5zM660 350q0 50 -15.5 96.5t-47 82t-78.5 56.5t-111 21 q-63 0 -110.5 -21t-79 -56.5t-47 -82t-15.5 -96.5t15.5 -96.5t47 -82t79 -56.5t110.5 -21q64 0 111 21t78.5 56.5t47 82t15.5 96.5zM433 777l71 150h111l-77 -150h-105zM266 777l71 150h111l-77 -150h-105z"/>
    <glyph glyph-name="ohungarumlaut" unicode="ő" horiz-adv-x="594" d="M37 240q0 62 22 109.5t58 79.5t83 48t97 16q51 0 98 -16t83 -48t57.5 -79.5t21.5 -109.5t-21.5 -109.5t-57.5 -79.5t-83 -48t-98 -16q-50 0 -97 16t-83 48t-58 79.5t-22 109.5zM448 240q0 71 -42 113t-109 42q-68 0 -110 -42t-42 -113t42 -113t110 -42q67 0 109 42 t42 113zM322 554l71 150h111l-77 -150h-105zM155 554l71 150h111l-77 -150h-105z"/>
    <glyph glyph-name="OE" unicode="Œ" horiz-adv-x="1036" d="M529 0q-25 -7 -54 -10t-67 -3q-93 0 -161.5 30.5t-114.5 81.5t-68.5 116.5t-22.5 134.5t22.5 134.5t68.5 116.5t114.5 81.5t161.5 30.5q38 0 67 -3t54 -10h454v-104h-341v-191h311v-104h-311v-197h347v-104h-460zM157 350q0 -56 18 -103t51.5 -81t81 -53.5t107.5 -19.5 q35 0 62 4.5t52 12.5v480q-25 8 -52 12.5t-62 4.5q-60 0 -107.5 -19.5t-81 -53.5t-51.5 -81.5t-18 -102.5z"/>
    <glyph glyph-name="oe" unicode="œ" horiz-adv-x="959" d="M500 94q-33 -54 -87.5 -80.5t-120.5 -26.5q-49 0 -95 16t-81.5 48t-57 79.5t-21.5 109.5t21.5 109.5t57 79.5t81.5 48t94 16q66 0 121.5 -26.5t87.5 -79.5q34 55 87 80.5t108 25.5q70 0 118.5 -26.5t75.5 -68.5t34 -95t-5 -106h-361q4 -31 21 -53.5t42 -37t56.5 -21.5 t64.5 -7q42 0 80.5 9.5t69.5 24.5v-89q-34 -17 -78.5 -26.5t-95.5 -9.5q-66 0 -124 26t-93 81zM145 240q0 -71 42 -113t110 -42q67 0 109 42t42 113t-42 113t-109 42q-68 0 -110 -42t-42 -113zM697 404q-27 0 -52 -8t-44.5 -24.5t-31.5 -40.5t-13 -55h266q2 17 -2.5 39.5 t-18.5 42t-39.5 33t-64.5 13.5z"/>
    <glyph glyph-name="Racute" unicode="Ŕ" horiz-adv-x="701" d="M85 0v700h280q49 0 97 -10.5t86.5 -36t62 -67.5t23.5 -105q0 -47 -13.5 -82t-37 -60t-54.5 -41t-65 -24l224 -274h-137l-210 262h-142v-262h-114zM199 363h171q28 0 54.5 5.5t47.5 19t33.5 36t12.5 55.5q0 34 -12.5 56.5t-33.5 36t-47.5 19t-54.5 5.5h-171v-233zM261 767 l91 148h124l-106 -148h-109z"/>
    <glyph glyph-name="racute" unicode="ŕ" horiz-adv-x="378" d="M162 401q28 45 82 70t120 19v-105q-65 9 -116.5 -17t-73.5 -77v-291h-107v480h95v-79zM133 547l91 148h124l-106 -148h-109z"/>
    <glyph glyph-name="uni0156" unicode="Ŗ" horiz-adv-x="701" d="M85 0v700h280q49 0 97 -10.5t86.5 -36t62 -67.5t23.5 -105q0 -47 -13.5 -82t-37 -60t-54.5 -41t-65 -24l224 -274h-137l-210 262h-142v-262h-114zM199 363h171q28 0 54.5 5.5t47.5 19t33.5 36t12.5 55.5q0 34 -12.5 56.5t-33.5 36t-47.5 19t-54.5 5.5h-171v-233z M284 -246l28 199h103l-41 -199h-90z"/>
    <glyph glyph-name="uni0157" unicode="ŗ" horiz-adv-x="378" d="M162 401q28 45 82 70t120 19v-105q-65 9 -116.5 -17t-73.5 -77v-291h-107v480h95v-79zM43 -246l28 199h103l-41 -199h-90z"/>
    <glyph glyph-name="Rcaron" unicode="Ř" horiz-adv-x="701" d="M85 0v700h280q49 0 97 -10.5t86.5 -36t62 -67.5t23.5 -105q0 -47 -13.5 -82t-37 -60t-54.5 -41t-65 -24l224 -274h-137l-210 262h-142v-262h-114zM199 363h171q28 0 54.5 5.5t47.5 19t33.5 36t12.5 55.5q0 34 -12.5 56.5t-33.5 36t-47.5 19t-54.5 5.5h-171v-233zM388 761 h-95l-132 150h111l69 -79l68 79h111z"/>
    <glyph glyph-name="rcaron" unicode="ř" horiz-adv-x="378" d="M162 401q28 45 82 70t120 19v-105q-65 9 -116.5 -17t-73.5 -77v-291h-107v480h95v-79zM260 541h-95l-132 150h111l69 -79l68 79h111z"/>
    <glyph glyph-name="Sacute" unicode="Ś" horiz-adv-x="594" d="M48 522q0 48 20 84t53.5 60t78 35.5t94.5 11.5q60 0 118 -14t101 -39v-109q-43 29 -98 44t-112 14q-64 0 -101.5 -20t-37.5 -65q0 -38 29.5 -60.5t74 -39.5t96.5 -33t96.5 -41t74 -64.5t29.5 -101.5q0 -55 -21.5 -93t-58.5 -61t-85 -33t-100 -10q-71 0 -133.5 16 t-114.5 45v112q57 -37 118.5 -53t121.5 -16q34 0 62.5 4.5t49.5 14.5t33 26.5t12 41.5q0 40 -29.5 64.5t-74 42t-96.5 33.5t-96.5 40.5t-74 63t-29.5 100.5zM211 767l91 148h124l-106 -148h-109z"/>
    <glyph glyph-name="sacute" unicode="ś" horiz-adv-x="470" d="M42 350q0 39 16.5 66.5t43.5 44.5t61 24.5t70 7.5q50 0 94 -11.5t79 -29.5v-94q-15 10 -35 18.5t-42 15t-45 10t-44 3.5q-16 0 -32 -2.5t-28.5 -8.5t-20.5 -16t-8 -25q0 -23 21.5 -36.5t53.5 -24t69.5 -21t69.5 -28t53.5 -44.5t21.5 -71q0 -40 -17 -67t-45.5 -43.5 t-66 -23.5t-78.5 -7q-53 0 -103 12t-85 34v95q38 -25 88 -38t95 -13t74.5 10t29.5 39q0 22 -21.5 35.5t-53.5 24t-70 21.5t-70 28.5t-53.5 44.5t-21.5 70zM153 547l91 148h124l-106 -148h-109z"/>
    <glyph glyph-name="Scedilla" unicode="Ş" horiz-adv-x="594" d="M164 524q0 -38 29.5 -60.5t74 -39.5t96.5 -33t96.5 -41t74 -64.5t29.5 -101.5q0 -48 -17 -83t-46.5 -58.5t-68.5 -36.5t-84 -17l-12 -43q48 0 74 -21.5t26 -60.5q0 -25 -11 -43.5t-29.5 -30.5t-44 -17.5t-53.5 -5.5q-56 0 -100 19v76q17 -10 39 -15.5t46 -5.5q68 0 68 33 q0 10 -9.5 16.5t-24.5 9.5t-34 2.5t-38 -3.5l20 89q-60 4 -114 19t-100 41v112q57 -37 118.5 -53t121.5 -16q34 0 62.5 4.5t49.5 14.5t33 26.5t12 41.5q0 40 -29.5 64.5t-74 42t-96.5 33.5t-96.5 40.5t-74 63t-29.5 100.5q0 48 20 84t53.5 60t78 35.5t94.5 11.5 q60 0 118 -14t101 -39v-109q-43 29 -98 44t-112 14q-64 0 -101.5 -20t-37.5 -65z"/>
    <glyph glyph-name="scedilla" unicode="ş" horiz-adv-x="470" d="M151 353q0 -23 21.5 -36.5t53.5 -24t69.5 -21t69.5 -28t53.5 -44.5t21.5 -71q0 -33 -12 -57t-32.5 -40.5t-48 -26t-59.5 -13.5l-11 -45q48 0 73.5 -21.5t26.5 -60.5q0 -25 -11 -43.5t-30 -30.5t-44.5 -17.5t-53.5 -5.5q-56 0 -100 19v76q17 -10 39 -15.5t46 -5.5 q68 0 68 33q0 10 -9.5 16.5t-24.5 9.5t-34 2.5t-38 -3.5l21 89q-46 3 -88.5 14.5t-72.5 30.5v95q38 -25 88 -38t95 -13t74.5 10t29.5 39q0 22 -21.5 35.5t-53.5 24t-70 21.5t-70 28.5t-53.5 44.5t-21.5 70q0 39 16.5 66.5t43.5 44.5t61 24.5t70 7.5q50 0 94 -11.5t79 -29.5 v-94q-15 10 -35 18.5t-42 15t-45 10t-44 3.5q-16 0 -32 -2.5t-28.5 -8.5t-20.5 -16t-8 -25z"/>
    <glyph glyph-name="Scaron" unicode="Š" horiz-adv-x="594" d="M48 522q0 48 20 84t53.5 60t78 35.5t94.5 11.5q60 0 118 -14t101 -39v-109q-43 29 -98 44t-112 14q-64 0 -101.5 -20t-37.5 -65q0 -38 29.5 -60.5t74 -39.5t96.5 -33t96.5 -41t74 -64.5t29.5 -101.5q0 -55 -21.5 -93t-58.5 -61t-85 -33t-100 -10q-71 0 -133.5 16 t-114.5 45v112q57 -37 118.5 -53t121.5 -16q34 0 62.5 4.5t49.5 14.5t33 26.5t12 41.5q0 40 -29.5 64.5t-74 42t-96.5 33.5t-96.5 40.5t-74 63t-29.5 100.5zM338 761h-95l-132 150h111l69 -79l68 79h111z"/>
    <glyph glyph-name="scaron" unicode="š" horiz-adv-x="470" d="M42 350q0 39 16.5 66.5t43.5 44.5t61 24.5t70 7.5q50 0 94 -11.5t79 -29.5v-94q-15 10 -35 18.5t-42 15t-45 10t-44 3.5q-16 0 -32 -2.5t-28.5 -8.5t-20.5 -16t-8 -25q0 -23 21.5 -36.5t53.5 -24t69.5 -21t69.5 -28t53.5 -44.5t21.5 -71q0 -40 -17 -67t-45.5 -43.5 t-66 -23.5t-78.5 -7q-53 0 -103 12t-85 34v95q38 -25 88 -38t95 -13t74.5 10t29.5 39q0 22 -21.5 35.5t-53.5 24t-70 21.5t-70 28.5t-53.5 44.5t-21.5 70zM280 541h-95l-132 150h111l69 -79l68 79h111z"/>
    <glyph glyph-name="uni0162" unicode="Ţ" horiz-adv-x="605" d="M591 700v-105h-231v-595h-114v595h-232v105h577zM229 -246l28 199h103l-41 -199h-90z"/>
    <glyph glyph-name="uni0163" unicode="ţ" horiz-adv-x="416" d="M208 651v-171h174v-94h-174v-220q0 -48 22 -66t69 -18q26 0 50 5t47 14v-92q-27 -10 -60.5 -15.5t-68.5 -5.5t-65 9t-52.5 28t-35 49t-12.5 72v240h-86v94h86v145zM176 -246l28 199h103l-41 -199h-90z"/>
    <glyph glyph-name="Tcaron" unicode="Ť" horiz-adv-x="605" d="M591 700v-105h-231v-595h-114v595h-232v105h577zM355 761h-95l-132 150h111l69 -79l68 79h111z"/>
    <glyph glyph-name="tcaron" unicode="ť" horiz-adv-x="416" d="M394 736l-30 -185h-85l17 185h98zM208 651v-171h174v-94h-174v-220q0 -48 22 -66t69 -18q26 0 50 5t47 14v-92q-27 -10 -60.5 -15.5t-68.5 -5.5t-65 9t-52.5 28t-35 49t-12.5 72v240h-86v94h86v145z"/>
    <glyph glyph-name="Tbar" unicode="Ŧ" horiz-adv-x="615" d="M251 0v299h-119v85h119v211h-232v105h577v-105h-231v-211h118v-85h-118v-299h-114z"/>
    <glyph glyph-name="tbar" unicode="ŧ" horiz-adv-x="416" d="M208 165q0 -47 22 -65.5t69 -18.5q26 0 50 5t47 14v-91q-27 -9 -60.5 -15t-68.5 -6t-65 9t-52.5 28t-35 49t-12.5 72v74h-49v76h49v93h-86v91h86v145l106 26v-171h174v-91h-174v-93h141v-76h-141v-55v0z"/>
    <glyph glyph-name="Umacron" unicode="Ū" horiz-adv-x="754" d="M676 700v-441q0 -76 -25 -128t-66 -84t-95 -46t-112 -14q-59 0 -113 14t-95.5 46t-66.5 84t-25 128v441h114v-435q0 -48 13.5 -80.5t38.5 -53t59 -29.5t75 -9q40 0 74 9t58.5 29.5t38 53t13.5 80.5v435h114zM531 866v-90h-312v90h312z"/>
    <glyph glyph-name="umacron" unicode="ū" horiz-adv-x="589" d="M522 480v-480h-95v66q-26 -32 -69 -55.5t-98 -23.5q-48 0 -84.5 14.5t-62 40.5t-38.5 62t-13 79v297h107v-283q0 -59 29 -87t83 -28q23 0 43 7t37 18.5t30.5 25.5t23.5 29v318h107zM450 646v-90h-312v90h312z"/>
    <glyph glyph-name="Uring" unicode="Ů" horiz-adv-x="754" d="M676 700v-441q0 -76 -25 -128t-66 -84t-95 -46t-112 -14q-59 0 -113 14t-95.5 46t-66.5 84t-25 128v441h114v-435q0 -48 13.5 -80.5t38.5 -53t59 -29.5t75 -9q40 0 74 9t58.5 29.5t38 53t13.5 80.5v435h114zM494 855q0 -27 -9.5 -48.5t-26 -36t-38 -22.5t-45.5 -8t-46 8 t-38.5 22.5t-26.5 36t-10 48.5t10 48t26.5 35.5t38.5 22.5t46 8t45.5 -8t38 -22.5t26 -35.5t9.5 -48zM325 855q0 -23 14.5 -36.5t34.5 -13.5t34.5 13.5t14.5 36.5q0 22 -14.5 35.5t-34.5 13.5t-34.5 -13.5t-14.5 -35.5z"/>
    <glyph glyph-name="uring" unicode="ů" horiz-adv-x="589" d="M522 480v-480h-95v66q-26 -32 -69 -55.5t-98 -23.5q-48 0 -84.5 14.5t-62 40.5t-38.5 62t-13 79v297h107v-283q0 -59 29 -87t83 -28q23 0 43 7t37 18.5t30.5 25.5t23.5 29v318h107zM413 635q0 -27 -9.5 -48.5t-26 -36t-38 -22.5t-45.5 -8t-46 8t-38.5 22.5t-26.5 36 t-10 48.5t10 48t26.5 35.5t38.5 22.5t46 8t45.5 -8t38 -22.5t26 -35.5t9.5 -48zM244 635q0 -23 14.5 -36.5t34.5 -13.5t34.5 13.5t14.5 36.5q0 22 -14.5 35.5t-34.5 13.5t-34.5 -13.5t-14.5 -35.5z"/>
    <glyph glyph-name="Uhungarumlaut" unicode="Ű" horiz-adv-x="754" d="M676 700v-441q0 -76 -25 -128t-66 -84t-95 -46t-112 -14q-59 0 -113 14t-95.5 46t-66.5 84t-25 128v441h114v-435q0 -48 13.5 -80.5t38.5 -53t59 -29.5t75 -9q40 0 74 9t58.5 29.5t38 53t13.5 80.5v435h114zM400 777l71 150h111l-77 -150h-105zM233 777l71 150h111 l-77 -150h-105z"/>
    <glyph glyph-name="uhungarumlaut" unicode="ű" horiz-adv-x="589" d="M522 480v-480h-95v66q-26 -32 -69 -55.5t-98 -23.5q-48 0 -84.5 14.5t-62 40.5t-38.5 62t-13 79v297h107v-283q0 -59 29 -87t83 -28q23 0 43 7t37 18.5t30.5 25.5t23.5 29v318h107zM319 557l71 150h111l-77 -150h-105zM152 557l71 150h111l-77 -150h-105z"/>
    <glyph glyph-name="Uogonek" unicode="Ų" horiz-adv-x="754" d="M555 -211q-17 -12 -38.5 -17.5t-43.5 -5.5q-53 0 -79.5 27.5t-26.5 66.5q1 32 16.5 66t43.5 63q-12 -1 -24 -1.5t-25 -0.5q-59 0 -113 14t-95.5 46t-66.5 84t-25 128v441h114v-435q0 -48 13.5 -80.5t38.5 -53t59 -29.5t75 -9q40 0 74 9t58.5 29.5t38 53t13.5 80.5v435 h114v-441q0 -78 -25.5 -130.5t-69.5 -84.5q-35 -25 -57.5 -48.5t-35.5 -43.5t-18 -37t-5 -29q0 -35 40 -37q12 1 25.5 5t24.5 12v-77v0z"/>
    <glyph glyph-name="uogonek" unicode="ų" horiz-adv-x="589" d="M522 0q-40 -27 -61 -58t-20 -55q-1 -17 9.5 -27t29.5 -10q23 0 42 10v-77q-32 -16 -74 -16q-53 0 -79.5 27.5t-26.5 66.5q1 33 20.5 70.5t64.5 79.5v55q-26 -32 -69 -55.5t-98 -23.5q-48 0 -84.5 14.5t-62 40.5t-38.5 62t-13 79v297h107v-283q0 -59 29 -87t83 -28 q23 0 43 7t37 18.5t30.5 25.5t23.5 29v318h107v-480z"/>
    <glyph glyph-name="Wcircumflex" unicode="Ŵ" horiz-adv-x="1034" d="M1022 700l-219 -700h-125l-160 522l-160 -522h-125l-218 700h124l159 -566l170 566h101l170 -566l158 566h125zM568 915l129 -150h-111l-65 76l-66 -76h-111l129 150h95z"/>
    <glyph glyph-name="wcircumflex" unicode="ŵ" horiz-adv-x="808" d="M792 480l-159 -480h-115l-114 344l-114 -344h-114l-160 480h113l108 -363l117 363h100l118 -363l107 363h113zM454 695l129 -150h-111l-65 76l-66 -76h-111l129 150h95z"/>
    <glyph glyph-name="Ycircumflex" unicode="Ŷ" horiz-adv-x="677" d="M281 0v257l-274 443h128l203 -339l204 339h128l-275 -443v-257h-114zM388 915l129 -150h-111l-65 76l-66 -76h-111l129 150h95z"/>
    <glyph glyph-name="ycircumflex" unicode="ŷ" horiz-adv-x="551" d="M426 480h112l-225 -545q-20 -47 -42 -79t-46.5 -51.5t-51 -28t-53.5 -8.5q-29 0 -63 8v91q12 -4 24.5 -5.5t24.5 -1.5q77 0 119 112l10 24l-228 484h114l162 -362zM317 695l129 -150h-111l-65 76l-66 -76h-111l129 150h95z"/>
    <glyph glyph-name="Ydieresis" unicode="Ÿ" horiz-adv-x="677" d="M281 0v257l-274 443h128l203 -339l204 339h128l-275 -443v-257h-114zM505 835q0 -26 -19 -45t-45 -19t-45 19t-19 45t19 45t45 19t45 -19t19 -45zM297 835q0 -26 -18.5 -45t-45.5 -19q-26 0 -45 19t-19 45t19 45t45 19q27 0 45.5 -19t18.5 -45z"/>
    <glyph glyph-name="Zacute" unicode="Ź" horiz-adv-x="600" d="M34 0v91l373 504h-361v105h506v-91l-373 -503h387v-106h-532zM230 767l91 148h124l-106 -148h-109z"/>
    <glyph glyph-name="zacute" unicode="ź" horiz-adv-x="473" d="M423 480v-80l-256 -309h273v-91h-406v80l256 309h-243v91h376zM164 547l91 148h124l-106 -148h-109z"/>
    <glyph glyph-name="Zdotaccent" unicode="Ż" horiz-adv-x="600" d="M34 0v91l373 504h-361v105h506v-91l-373 -503h387v-106h-532zM234 830q0 34 21 50.5t49 16.5q29 0 49.5 -16.5t20.5 -50.5q0 -35 -20.5 -52t-49.5 -17q-28 0 -49 17t-21 52z"/>
    <glyph glyph-name="zdotaccent" unicode="ż" horiz-adv-x="473" d="M423 480v-80l-256 -309h273v-91h-406v80l256 309h-243v91h376zM168 610q0 34 21 50.5t49 16.5q29 0 49.5 -16.5t20.5 -50.5q0 -35 -20.5 -52t-49.5 -17q-28 0 -49 17t-21 52z"/>
    <glyph glyph-name="Zcaron" unicode="Ž" horiz-adv-x="600" d="M34 0v91l373 504h-361v105h506v-91l-373 -503h387v-106h-532zM357 761h-95l-132 150h111l69 -79l68 79h111z"/>
    <glyph glyph-name="zcaron" unicode="ž" horiz-adv-x="473" d="M423 480v-80l-256 -309h273v-91h-406v80l256 309h-243v91h376zM291 541h-95l-132 150h111l69 -79l68 79h111z"/>
    <glyph glyph-name="uni0218" unicode="Ș" horiz-adv-x="594" d="M48 522q0 48 20 84t53.5 60t78 35.5t94.5 11.5q60 0 118 -14t101 -39v-109q-43 29 -98 44t-112 14q-64 0 -101.5 -20t-37.5 -65q0 -38 29.5 -60.5t74 -39.5t96.5 -33t96.5 -41t74 -64.5t29.5 -101.5q0 -55 -21.5 -93t-58.5 -61t-85 -33t-100 -10q-71 0 -133.5 16 t-114.5 45v112q57 -37 118.5 -53t121.5 -16q34 0 62.5 4.5t49.5 14.5t33 26.5t12 41.5q0 40 -29.5 64.5t-74 42t-96.5 33.5t-96.5 40.5t-74 63t-29.5 100.5zM228 -246l28 199h103l-41 -199h-90z"/>
    <glyph glyph-name="uni0219" unicode="ș" horiz-adv-x="470" d="M42 350q0 39 16.5 66.5t43.5 44.5t61 24.5t70 7.5q50 0 94 -11.5t79 -29.5v-94q-15 10 -35 18.5t-42 15t-45 10t-44 3.5q-16 0 -32 -2.5t-28.5 -8.5t-20.5 -16t-8 -25q0 -23 21.5 -36.5t53.5 -24t69.5 -21t69.5 -28t53.5 -44.5t21.5 -71q0 -40 -17 -67t-45.5 -43.5 t-66 -23.5t-78.5 -7q-53 0 -103 12t-85 34v95q38 -25 88 -38t95 -13t74.5 10t29.5 39q0 22 -21.5 35.5t-53.5 24t-70 21.5t-70 28.5t-53.5 44.5t-21.5 70zM167 -246l28 199h103l-41 -199h-90z"/>
    <glyph glyph-name="uni021A" unicode="Ț" horiz-adv-x="605" d="M591 700v-105h-231v-595h-114v595h-232v105h577zM229 -246l28 199h103l-41 -199h-90z"/>
    <glyph glyph-name="uni021B" unicode="ț" horiz-adv-x="416" d="M208 651v-171h174v-94h-174v-220q0 -48 22 -66t69 -18q26 0 50 5t47 14v-92q-27 -10 -60.5 -15.5t-68.5 -5.5t-65 9t-52.5 28t-35 49t-12.5 72v240h-86v94h86v145zM176 -246l28 199h103l-41 -199h-90z"/>
    <glyph glyph-name="circumflex" unicode="ˆ" horiz-adv-x="347" d="M221 915l129 -150h-111l-65 76l-66 -76h-111l129 150h95z"/>
    <glyph glyph-name="caron" unicode="ˇ" horiz-adv-x="347" d="M221 761h-95l-132 150h111l69 -79l68 79h111z"/>
    <glyph glyph-name="breve" unicode="˘" horiz-adv-x="348" d="M321 801q-33 -23 -69 -33t-78 -10t-78.5 10t-69.5 33v92q38 -25 73.5 -34t74.5 -9q38 0 73.5 9t73.5 34v-92v0z"/>
    <glyph glyph-name="dotaccent" unicode="˙" horiz-adv-x="132" d="M-4 832q0 34 21 50.5t49 16.5q29 0 49.5 -16.5t20.5 -50.5q0 -35 -20.5 -52t-49.5 -17q-28 0 -49 17t-21 52z"/>
    <glyph glyph-name="ring" unicode="˚" horiz-adv-x="234" d="M237 855q0 -27 -9.5 -48.5t-26 -36t-38 -22.5t-45.5 -8t-46 8t-38.5 22.5t-26.5 36t-10 48.5t10 48t26.5 35.5t38.5 22.5t46 8t45.5 -8t38 -22.5t26 -35.5t9.5 -48zM68 855q0 -23 14.5 -36.5t34.5 -13.5t34.5 13.5t14.5 36.5q0 22 -14.5 35.5t-34.5 13.5t-34.5 -13.5 t-14.5 -35.5z"/>
    <glyph glyph-name="ogonek" unicode="˛" horiz-adv-x="220" d="M189 0q-40 -27 -61 -58.5t-20 -55.5q-1 -17 9.5 -26.5t29.5 -10.5q28 2 51 17v-77q-18 -12 -39 -17.5t-44 -5.5q-53 0 -79.5 27.5t-26.5 66.5q1 35 20.5 72t60.5 68h99z"/>
    <glyph glyph-name="tilde" unicode="˜" horiz-adv-x="374" d="M358 877q6 -29 1 -51.5t-17.5 -38.5t-31 -24t-39.5 -8q-24 0 -45 6.5t-39.5 14.5t-34 14.5t-26.5 6.5q-17 0 -23 -11t-4 -25h-83q-6 28 -1 51t17.5 38.5t30.5 24t39 8.5q23 0 44.5 -6.5t40 -14.5t34 -14.5t27.5 -6.5q18 0 23.5 11t3.5 25h83v0z"/>
    <glyph glyph-name="hungarumlaut" unicode="˝" horiz-adv-x="400" d="M200 777l71 150h111l-77 -150h-105zM33 777l71 150h111l-77 -150h-105z"/>
    <glyph glyph-name="uni0326" unicode="̦" horiz-adv-x="152" d="M21 -246l28 199h103l-41 -199h-90z"/>
    <glyph glyph-name="uni0401" unicode="Ё" horiz-adv-x="619" d="M500 835q0 -26 -19 -45t-45 -19t-45 19t-19 45t19 45t45 19t45 -19t19 -45zM292 835q0 -26 -18.5 -45t-45.5 -19q-26 0 -45 19t-19 45t19 45t45 19q27 0 45.5 -19t18.5 -45zM567 700v-104h-368v-191h338v-104h-338v-197h374v-104h-488v700h482z"/>
    <glyph glyph-name="uni0410" unicode="А" horiz-adv-x="728" d="M6 0l296 700h125l295 -700h-120l-62 151h-351l-62 -151h-121zM228 251h272l-123 299q-3 8 -6 17t-7 22q-4 -13 -7 -22t-6 -17z"/>
    <glyph glyph-name="uni0411" unicode="Б" horiz-adv-x="672" d="M371 428q50 0 98 -9.5t86 -33.5t61 -65.5t23 -106.5t-23 -106t-61 -65t-86 -33t-98 -9h-286v700h499v-105h-385v-167h172zM373 104q28 0 55 3.5t48 15t34 33t13 57.5t-13 58t-34 34t-48 15.5t-55 3.5h-174v-220h174z"/>
    <glyph glyph-name="uni0412" unicode="В" horiz-adv-x="691" d="M381 700q55 0 99 -11t75.5 -33t48.5 -55t17 -78q0 -32 -9 -57.5t-24 -44.5t-35 -32t-42 -20q24 -7 48.5 -19.5t44.5 -33.5t32.5 -51t12.5 -71q0 -60 -26 -97.5t-65.5 -59t-86 -29.5t-88.5 -8h-298v700h296zM533 206q0 35 -14 56t-35 32.5t-46.5 15t-49.5 3.5h-189v-213 h173q29 0 58 3t52 13.5t37 32t14 57.5zM505 505q0 53 -36.5 74.5t-99.5 21.5h-170v-191l186 -1q25 0 46.5 5.5t38 17t26 29.5t9.5 44z"/>
    <glyph glyph-name="uni0413" unicode="Г" horiz-adv-x="572" d="M85 0v700h474v-105h-360v-595h-114z"/>
    <glyph glyph-name="uni0414" unicode="Д" horiz-adv-x="789" d="M22 -159v263h84q33 61 55 132.5t34.5 149t17.5 157.5t5 157h451v-596h89v-263h-104v159h-528v-159h-104zM330 595q-4 -65 -11 -132t-18.5 -131t-28.5 -122t-42 -106h325v491h-225z"/>
    <glyph glyph-name="uni0415" unicode="Е" horiz-adv-x="619" d="M567 700v-104h-368v-191h338v-104h-338v-197h374v-104h-488v700h482z"/>
    <glyph glyph-name="uni0416" unicode="Ж" horiz-adv-x="961" d="M6 0l219 359l-201 341h128l165 -292h107v292h114v-292h106l165 292h129l-202 -341l219 -359h-128l-184 303h-105v-303h-114v303h-106l-183 -303h-129z"/>
    <glyph glyph-name="uni0417" unicode="З" horiz-adv-x="617" d="M575 190q0 -58 -25 -97t-65.5 -62.5t-91 -33.5t-100.5 -10q-67 0 -128.5 10.5t-125.5 34.5v111q63 -30 123 -40.5t122 -9.5q32 0 63.5 5t56 17.5t40 34t15.5 54.5q0 31 -13.5 51.5t-36 32.5t-51 17t-58.5 5h-150v104h140q64 0 102.5 23.5t38.5 71.5q0 54 -43.5 76 t-117.5 22q-54 1 -106.5 -10.5t-112.5 -40.5v112q57 24 112.5 34.5t115.5 10.5q58 0 107.5 -11.5t85 -35t55.5 -58.5t20 -83q0 -61 -32 -100.5t-82 -56.5q25 -6 50.5 -19t46 -35t33 -52.5t12.5 -71.5z"/>
    <glyph glyph-name="uni0418" unicode="И" horiz-adv-x="767" d="M568 0v436v38.5t1 37.5l-377 -512h-107v700h114v-435v-39.5t-1 -37.5l377 512h107v-700h-114z"/>
    <glyph glyph-name="uni0419" unicode="Й" horiz-adv-x="767" d="M568 0v436v38.5t1 37.5l-377 -512h-107v700h114v-435v-39.5t-1 -37.5l377 512h107v-700h-114zM530 802q-33 -23 -69 -33t-78 -10t-78.5 10t-69.5 33v92q38 -25 73.5 -34t74.5 -9q38 0 73.5 9t73.5 34v-92z"/>
    <glyph glyph-name="uni041A" unicode="К" horiz-adv-x="678" d="M85 0v700h114v-292h138l195 292h129l-232 -341l250 -359h-129l-211 303h-140v-303h-114z"/>
    <glyph glyph-name="uni041B" unicode="Л" horiz-adv-x="751" d="M666 700v-700h-114v595h-232q-7 -78 -14.5 -152.5t-19 -142t-28 -124t-41.5 -98t-59.5 -65t-81.5 -23.5q-32 0 -69 12v105q11 -4 21.5 -5.5t26.5 -1.5q31 1 53 26.5t37.5 68.5t26 101.5t18 124.5t12.5 137.5t11 141.5h453z"/>
    <glyph glyph-name="uni041C" unicode="М" horiz-adv-x="908" d="M823 700v-700h-114v490l-221 -332h-68l-221 333v-491h-114v700h103l266 -401l266 401h103z"/>
    <glyph glyph-name="uni041D" unicode="Н" horiz-adv-x="767" d="M682 700v-700h-114v298h-369v-298h-114v700h114v-297h369v297h114z"/>
    <glyph glyph-name="uni041E" unicode="О" horiz-adv-x="816" d="M40 350q0 69 23 134.5t68.5 116.5t114.5 81.5t162 30.5q92 0 161 -30.5t115 -81.5t69 -116.5t23 -134.5t-23 -134.5t-69 -116.5t-115 -81.5t-161 -30.5q-93 0 -162 30.5t-114.5 81.5t-68.5 116.5t-23 134.5zM660 350q0 50 -15.5 96.5t-47 82t-78.5 56.5t-111 21 q-63 0 -110.5 -21t-79 -56.5t-47 -82t-15.5 -96.5t15.5 -96.5t47 -82t79 -56.5t110.5 -21q64 0 111 21t78.5 56.5t47 82t15.5 96.5z"/>
    <glyph glyph-name="uni041F" unicode="П" horiz-adv-x="758" d="M85 0v700h588v-700h-114v595h-360v-595h-114z"/>
    <glyph glyph-name="uni0420" unicode="Р" horiz-adv-x="664" d="M335 700q62 0 116.5 -11t95 -37.5t64 -70.5t23.5 -111t-23.5 -111t-64 -70.5t-95 -37.5t-116.5 -11h-136v-240h-114v700h250zM518 470q0 38 -14 62.5t-38 38.5t-56.5 19.5t-68.5 5.5h-142v-252h142q36 0 68 5.5t56.5 19.5t38.5 38.5t14 62.5z"/>
    <glyph glyph-name="uni0421" unicode="С" horiz-adv-x="659" d="M42 344q0 93 32 162.5t84.5 115.5t119 68.5t135.5 22.5q107 0 199 -46v-111q-37 26 -83.5 39t-96.5 13t-99 -15t-88 -47.5t-63 -82.5t-24 -119q0 -65 24.5 -112t63.5 -78.5t88.5 -46.5t99.5 -15q54 0 101 14t82 40v-113q-45 -22 -96 -34t-107 -12q-68 0 -134.5 22 t-119.5 66.5t-85.5 111.5t-32.5 157z"/>
    <glyph glyph-name="uni0422" unicode="Т" horiz-adv-x="605" d="M591 700v-105h-231v-595h-114v595h-232v105h577z"/>
    <glyph glyph-name="uni0423" unicode="У" horiz-adv-x="648" d="M396 159q-23 -50 -49.5 -83t-55 -53t-59 -28t-61.5 -8q-24 0 -49.5 4t-50.5 12v101q18 -6 39 -9.5t42 -3.5q44 0 73.5 18t50.5 60l13 26l-284 505h127l215 -400l179 400h124l-254 -541v0z"/>
    <glyph glyph-name="uni0424" unicode="Ф" horiz-adv-x="869" d="M379 -38v90q-80 3 -145.5 24t-111.5 59t-71 92t-25 123t25 123t71 92t111.5 59t145.5 24v90h111v-90q81 -3 146 -24t111 -59t71 -92t25 -123t-25 -123t-71 -92t-111 -59t-146 -24v-90h-111zM142 350q0 -42 13.5 -77t42.5 -61.5t74 -42.5t107 -19v400q-62 -3 -107 -19 t-74 -42.5t-42.5 -61.5t-13.5 -77zM490 150q62 3 107 19t74 42.5t42.5 61.5t13.5 77t-13.5 77t-42.5 61t-74 42.5t-107 19.5v-400z"/>
    <glyph glyph-name="uni0425" unicode="Х" horiz-adv-x="660" d="M-2 0l261 361l-246 339h135l182 -253l182 253h135l-247 -339l262 -361h-135l-197 276l-197 -276h-135z"/>
    <glyph glyph-name="uni0426" unicode="Ц" horiz-adv-x="794" d="M659 -159l1 159h-575v700h114v-594h362v594h114v-594h88v-265h-104z"/>
    <glyph glyph-name="uni0427" unicode="Ч" horiz-adv-x="691" d="M492 0v263q-51 -17 -98.5 -24.5t-93.5 -7.5q-118 1 -187.5 60t-69.5 179v230h114v-230q0 -71 47.5 -101.5t123.5 -31.5q40 0 81 7.5t83 24.5v331h114v-700h-114z"/>
    <glyph glyph-name="uni0428" unicode="Ш" horiz-adv-x="1057" d="M85 0v700h114v-594h273v594h114v-594h272v594h114v-700h-887z"/>
    <glyph glyph-name="uni0429" unicode="Щ" horiz-adv-x="1091" d="M956 -159v159h-871v700h114v-594h273v594h114v-594h272v594h114v-594h88v-265h-104z"/>
    <glyph glyph-name="uni042A" unicode="Ъ" horiz-adv-x="767" d="M189 0v595h-173v105h287v-240h136q62 0 116.5 -11t95 -37.5t64 -70.5t23.5 -111q0 -66 -23.5 -110.5t-64 -71t-95 -37.5t-116.5 -11h-250zM303 104h142q36 0 68.5 5.5t56.5 19.5t38 38.5t14 62.5t-14 62.5t-38.5 38.5t-56.5 19.5t-68 5.5h-142v-252z"/>
    <glyph glyph-name="uni042B" unicode="Ы" horiz-adv-x="901" d="M85 0v700h114v-240h136q62 0 116.5 -11t95 -37.5t64 -70.5t23.5 -111q0 -66 -23.5 -110.5t-64 -71t-95 -37.5t-116.5 -11h-250zM199 104h142q36 0 68.5 5.5t56.5 19.5t38 38.5t14 62.5t-14 62.5t-38.5 38.5t-56.5 19.5t-68 5.5h-142v-252zM702 0v700h114v-700h-114z"/>
    <glyph glyph-name="uni042C" unicode="Ь" horiz-adv-x="663" d="M85 0v700h114v-240h136q62 0 116.5 -11t95 -37.5t64 -70.5t23.5 -111q0 -66 -23.5 -110.5t-64 -71t-95 -37.5t-116.5 -11h-250zM199 104h142q36 0 68.5 5.5t56.5 19.5t38 38.5t14 62.5t-14 62.5t-38.5 38.5t-56.5 19.5t-68 5.5h-142v-252z"/>
    <glyph glyph-name="uni042D" unicode="Э" horiz-adv-x="657" d="M45 667q45 23 95.5 34.5t104.5 11.5q69 0 135 -22t118.5 -68t84.5 -115.5t32 -165.5q0 -93 -32.5 -160t-85 -110.5t-119 -64t-135.5 -20.5q-53 0 -103.5 12t-94.5 34v115q38 -29 84.5 -42t96.5 -13q48 0 94.5 10.5t84.5 35t63.5 64t31.5 96.5h-343v102h341q-8 56 -33 95 t-62 64t-82 36t-93 11t-97 -12.5t-86 -38.5v111v0z"/>
    <glyph glyph-name="uni042E" unicode="Ю" horiz-adv-x="1096" d="M1056 350q0 -69 -23 -134.5t-68.5 -116.5t-114.5 -81.5t-161 -30.5q-84 0 -148 25.5t-109.5 68.5t-72 99t-33.5 117h-127v-297h-114v700h114v-297h127q7 61 33.5 117t72 99t109.5 68.5t148 25.5q92 0 161 -30.5t114.5 -81.5t68.5 -116.5t23 -134.5zM436 350 q0 -50 15.5 -96.5t47 -82t79 -56.5t110.5 -21q64 0 111 21t78.5 56.5t47 82t15.5 96.5t-15.5 96.5t-47 82t-78.5 56.5t-111 21q-63 0 -110.5 -21t-79 -56.5t-47 -82t-15.5 -96.5z"/>
    <glyph glyph-name="uni042F" unicode="Я" horiz-adv-x="690" d="M22 0l201 263q-36 10 -66 27.5t-52 43.5t-34.5 60t-12.5 78q0 60 22.5 103.5t60.5 71t87.5 40.5t103.5 13h273v-700h-114v248h-146l-188 -248h-135zM174 472q0 -32 12 -55.5t33 -38.5t49.5 -22t61.5 -7h161v247h-161q-33 0 -61.5 -7t-49.5 -22t-33 -38.5t-12 -56.5z"/>
    <glyph glyph-name="uni0430" unicode="а" horiz-adv-x="557" d="M476 111q0 -20 10.5 -27.5t24.5 -7.5q8 0 16 2l16 4v-77q-30 -12 -68 -12q-33 0 -58 13.5t-38 42.5q-35 -29 -79.5 -45.5t-101.5 -16.5q-33 0 -63 9t-53.5 27.5t-37.5 46t-14 64.5q0 46 19.5 77t50 49.5t68.5 26.5t76 8q31 0 63.5 -4t61.5 -10v17q0 45 -32 73.5t-94 28.5 q-54 0 -97.5 -11.5t-75.5 -25.5v98q29 10 77.5 21t106.5 11q102 0 162 -50.5t60 -159.5v-172zM265 220q-23 0 -45.5 -4t-40 -13t-28.5 -24.5t-11 -37.5q0 -35 27 -53t63 -18q38 0 74 14t65 43v81q-22 5 -50 8.5t-54 3.5z"/>
    <glyph glyph-name="uni0431" unicode="б" horiz-adv-x="585" d="M547 223q0 -57 -18.5 -101t-52 -74t-79.5 -45.5t-100 -15.5t-100 17.5t-79.5 52.5t-53 89t-19.5 126q0 125 41.5 205t106.5 121q52 32 97.5 44.5t84.5 20t71 16.5t58 34v-104q-25 -19 -52.5 -26.5t-58.5 -13.5t-65 -15t-72 -30q-23 -13 -40 -30.5t-29 -38t-20 -41.5 t-13 -42q24 36 68 60t100 24q45 0 86 -16t72 -46t49 -73.5t18 -97.5zM153 221q0 -28 9 -53.5t27 -45t44.5 -31.5t61.5 -12q36 0 63 12t44.5 31.5t26.5 45t9 53.5t-9 53.5t-26.5 45t-44.5 31.5t-63 12q-35 0 -61.5 -13t-44.5 -33t-27 -45.5t-9 -50.5z"/>
    <glyph glyph-name="uni0432" unicode="в" horiz-adv-x="548" d="M67 0v480h274q73 0 112.5 -35.5t39.5 -92.5q0 -40 -18.5 -67.5t-49.5 -41.5q34 -11 58 -38.5t24 -72.5q0 -28 -9 -52t-28.5 -42t-49 -28t-71.5 -10h-282zM174 81h149q33 0 54.5 13t21.5 48q0 18 -6.5 30t-17 19t-23.5 10t-27 3h-151v-123zM174 280h143q29 0 48.5 13 t19.5 45q0 35 -21.5 48t-46.5 13h-143v-119z"/>
    <glyph glyph-name="uni0433" unicode="г" horiz-adv-x="441" d="M67 0v480h358v-94h-251v-386h-107z"/>
    <glyph glyph-name="uni0434" unicode="д" horiz-adv-x="643" d="M24 -129v217h66q43 77 60 172t16 220h375v-392h71v-217h-101v129h-386v-129h-101zM266 392q-3 -97 -18.5 -168.5t-45.5 -135.5h231v304h-167z"/>
    <glyph glyph-name="uni0435" unicode="е" horiz-adv-x="546" d="M37 240q0 65 22.5 113t57.5 79t78 46t85 15q72 0 120.5 -26t76 -68t34.5 -94.5t-5 -104.5h-361q4 -32 21 -55t42.5 -38t56.5 -22t64 -7q44 0 82.5 9.5t69.5 24.5v-92q-33 -16 -77 -24.5t-95 -8.5q-55 0 -104.5 16t-86.5 47.5t-59 79t-22 110.5zM410 280q2 16 -2.5 37 t-18.5 40.5t-39.5 33t-64.5 13.5q-27 0 -52 -8t-44 -23.5t-31.5 -39t-13.5 -53.5h266z"/>
    <glyph glyph-name="uni0436" unicode="ж" horiz-adv-x="771" d="M649 0l-143 191h-67v-191h-107v191h-66l-143 -191h-117l179 241l-161 239h117l131 -198h60v198h107v-198h61l131 198h116l-160 -239l179 -241h-117z"/>
    <glyph glyph-name="uni0437" unicode="з" horiz-adv-x="483" d="M443 131q0 -63 -56.5 -103.5t-168.5 -40.5q-54 0 -100.5 11t-79.5 28v92q15 -8 34.5 -15.5t41.5 -13t45 -8.5t45 -3q27 0 50.5 3t41.5 10.5t28.5 20t10.5 32.5q0 19 -9 30.5t-23 18t-32 8.5t-36 2h-98v82h98q38 0 64 12t26 42q0 32 -31.5 48t-83.5 16q-42 0 -87 -11 t-76 -28v92q35 17 80.5 27.5t95.5 10.5q55 0 95 -11t65.5 -30t37.5 -45t12 -55q0 -43 -23.5 -70t-61.5 -37q42 -11 68.5 -40.5t26.5 -74.5z"/>
    <glyph glyph-name="uni0438" unicode="и" horiz-adv-x="590" d="M67 0v480h107v-314l257 314h92v-480h-107v314l-257 -314h-92z"/>
    <glyph glyph-name="uni0439" unicode="й" horiz-adv-x="590" d="M441 588q-33 -23 -69 -32t-77 -9t-77 9t-69 32v87q38 -24 73 -33t73 -9t73 9t73 33v-87zM67 0v480h107v-314l257 314h92v-480h-107v314l-257 -314h-92z"/>
    <glyph glyph-name="uni043A" unicode="к" horiz-adv-x="535" d="M67 0v480h107v-190h79l138 190h122l-174 -238l193 -242h-123l-158 199h-77v-199h-107z"/>
    <glyph glyph-name="uni043B" unicode="л" horiz-adv-x="594" d="M258 389q-5 -87 -15.5 -160t-30.5 -126t-52 -82.5t-80 -29.5q-31 0 -66 13v84q16 -6 31 -6q30 0 50 28.5t33 81t19.5 126t9.5 162.5h370v-480h-107v389h-162v0z"/>
    <glyph glyph-name="uni043C" unicode="м" horiz-adv-x="677" d="M67 0v480h108l163 -253l164 253h108v-480h-103v325l-137 -210h-64l-136 210v-325h-103z"/>
    <glyph glyph-name="uni043D" unicode="н" horiz-adv-x="588" d="M67 0v480h107v-193h240v193h107v-480h-107v193h-240v-193h-107z"/>
    <glyph glyph-name="uni043E" unicode="о" horiz-adv-x="594" d="M37 240q0 62 22 109.5t58 79.5t83 48t97 16q51 0 98 -16t83 -48t57.5 -79.5t21.5 -109.5t-21.5 -109.5t-57.5 -79.5t-83 -48t-98 -16q-50 0 -97 16t-83 48t-58 79.5t-22 109.5zM448 240q0 71 -42 113t-109 42q-68 0 -110 -42t-42 -113t42 -113t110 -42q67 0 109 42 t42 113z"/>
    <glyph glyph-name="uni043F" unicode="п" horiz-adv-x="588" d="M67 0v480h454v-480h-107v386h-240v-386h-107z"/>
    <glyph glyph-name="uni0440" unicode="р" horiz-adv-x="622" d="M162 405q14 17 32 33t41 28t50.5 19.5t61.5 7.5q54 0 98 -20t75 -54.5t48 -80.5t17 -98t-17 -98t-48 -80.5t-75 -54.5t-98 -20q-63 0 -105.5 23t-67.5 52v-282h-107v700h95v-75zM476 240q0 35 -11 64.5t-31 50.5t-47 32.5t-60 11.5q-28 0 -52 -8.5t-43.5 -22t-34 -32 t-23.5 -37.5v-117q17 -40 57 -70.5t96 -30.5q33 0 60 11.5t47 32.5t31 50.5t11 64.5z"/>
    <glyph glyph-name="uni0441" unicode="с" horiz-adv-x="495" d="M37 236q0 67 23.5 115.5t61 80t85 46.5t95.5 15q41 0 78.5 -9t69.5 -28v-98q-26 19 -61 29.5t-72 10.5q-32 0 -62.5 -9t-54.5 -28t-39 -49t-15 -72q0 -41 14.5 -70.5t38 -49t54 -29t62.5 -9.5q38 0 74.5 10t65.5 27v-99q-69 -33 -159 -33q-48 0 -94.5 15t-83 45.5 t-59 77.5t-22.5 111z"/>
    <glyph glyph-name="uni0442" unicode="т" horiz-adv-x="472" d="M183 0v386h-166v94h438v-94h-165v-386h-107z"/>
    <glyph glyph-name="uni0443" unicode="у" horiz-adv-x="551" d="M426 480h112l-225 -545q-20 -47 -42 -79t-46.5 -51.5t-51 -28t-53.5 -8.5q-29 0 -63 8v91q12 -4 24.5 -5.5t24.5 -1.5q77 0 119 112l10 24l-228 484h114l162 -362z"/>
    <glyph glyph-name="uni0444" unicode="ф" horiz-adv-x="734" d="M315 -220v207q-60 2 -111 20.5t-88.5 51t-58.5 78.5t-21 103t21 103t58.5 78.5t88.5 51t111 20.5v207h104v-207q60 -2 111 -20.5t88.5 -51t58.5 -78.5t21 -103t-21 -103t-58.5 -78.5t-88.5 -51t-111 -20.5v-207h-104zM143 240q0 -70 45.5 -114t126.5 -48v324 q-81 -4 -126.5 -48t-45.5 -114zM419 78q81 4 126.5 48t45.5 114t-45.5 114t-126.5 48v-324z"/>
    <glyph glyph-name="uni0445" unicode="х" horiz-adv-x="510" d="M492 480l-175 -235l185 -245h-122l-125 170l-125 -170h-122l185 245l-175 235h122l115 -162l115 162h122z"/>
    <glyph glyph-name="uni0446" unicode="ц" horiz-adv-x="613" d="M481 -129v129h-414v480h107v-386h229v386h107v-388h72v-221h-101z"/>
    <glyph glyph-name="uni0447" unicode="ч" horiz-adv-x="532" d="M358 0v159q-31 -11 -62 -17t-72 -6q-40 0 -74 10.5t-59 32t-39 55t-14 78.5v168h107v-159q0 -53 30 -72t80 -19q30 0 54.5 4.5t48.5 13.5v232h107v-480h-107z"/>
    <glyph glyph-name="uni0448" unicode="ш" horiz-adv-x="816" d="M67 0v480h107v-386h181v386h107v-386h180v386h107v-480h-682z"/>
    <glyph glyph-name="uni0449" unicode="щ" horiz-adv-x="852" d="M719 -129v129h-652v480h107v-386h181v386h107v-386h180v386h107v-388h71v-221h-101z"/>
    <glyph glyph-name="uni044A" unicode="ъ" horiz-adv-x="600" d="M384 320q45 0 80.5 -12t60 -33.5t37 -51t12.5 -63.5t-12.5 -63t-37 -50.5t-60 -34t-80.5 -12.5h-238v392h-128v88h235v-160h131zM363 85q48 0 75 19t27 56q0 38 -27 57t-75 19h-110v-151h110z"/>
    <glyph glyph-name="uni044B" unicode="ы" horiz-adv-x="755" d="M67 0v480h107v-160h131q45 0 80.5 -12t60 -33.5t37 -51t12.5 -63.5t-12.5 -63t-37 -50.5t-60 -34t-80.5 -12.5h-238zM174 85h110q48 0 75 19t27 56q0 38 -27 57t-75 19h-110v-151zM581 0v480h107v-480h-107z"/>
    <glyph glyph-name="uni044C" unicode="ь" horiz-adv-x="521" d="M67 0v480h107v-160h131q45 0 80.5 -12t60 -33.5t37 -51t12.5 -63.5t-12.5 -63t-37 -50.5t-60 -34t-80.5 -12.5h-238zM174 85h110q48 0 75 19t27 56q0 38 -27 57t-75 19h-110v-151z"/>
    <glyph glyph-name="uni044D" unicode="э" horiz-adv-x="506" d="M469 232q0 -65 -23 -111.5t-59.5 -76t-82 -43.5t-90.5 -14q-54 0 -93.5 10t-80.5 32v93q32 -20 72 -31.5t80 -11.5q32 0 61 6t51.5 19.5t37.5 36t19 55.5h-230v88h230q-5 32 -21 54t-39.5 36t-53 20.5t-61.5 6.5q-35 0 -73 -11.5t-68 -31.5v92q68 43 154 43 q50 0 98.5 -15t86.5 -46.5t61.5 -81t23.5 -118.5z"/>
    <glyph glyph-name="uni044E" unicode="ю" horiz-adv-x="829" d="M792 240q0 -62 -21.5 -109.5t-57.5 -79.5t-83 -48t-98 -16q-45 0 -87.5 13.5t-77 39.5t-58.5 65t-31 90h-104v-195h-107v480h107v-195h104q7 51 31 90t58.5 65t77 39.5t87.5 13.5q51 0 98 -16t83 -48t57.5 -79.5t21.5 -109.5zM380 240q0 -71 41.5 -114.5t110.5 -43.5 t110 43.5t41 114.5t-41 114.5t-110 43.5t-110.5 -43.5t-41.5 -114.5z"/>
    <glyph glyph-name="uni044F" unicode="я" horiz-adv-x="549" d="M24 0l132 169q-53 18 -80 58.5t-27 90.5q0 33 12 62t35.5 51.5t58 35.5t79.5 13h248v-480h-107v157h-109l-119 -157h-123zM158 317q0 -35 24.5 -54.5t69.5 -19.5h123v148h-123q-45 0 -69.5 -19.5t-24.5 -54.5z"/>
    <glyph glyph-name="uni0451" unicode="ё" horiz-adv-x="546" d="M447 615q0 -26 -19 -45t-45 -19t-45 19t-19 45t19 45t45 19t45 -19t19 -45zM239 615q0 -26 -18.5 -45t-45.5 -19q-26 0 -45 19t-19 45t19 45t45 19q27 0 45.5 -19t18.5 -45zM37 240q0 65 22.5 113t57.5 79t78 46t85 15q72 0 120.5 -26t76 -68t34.5 -94.5t-5 -104.5h-361 q4 -32 21 -55t42.5 -38t56.5 -22t64 -7q44 0 82.5 9.5t69.5 24.5v-92q-33 -16 -77 -24.5t-95 -8.5q-55 0 -104.5 16t-86.5 47.5t-59 79t-22 110.5zM410 280q2 16 -2.5 37t-18.5 40.5t-39.5 33t-64.5 13.5q-27 0 -52 -8t-44 -23.5t-31.5 -39t-13.5 -53.5h266z"/>
    <glyph glyph-name="Wgrave" unicode="Ẁ" horiz-adv-x="1034" d="M1022 700l-219 -700h-125l-160 522l-160 -522h-125l-218 700h124l159 -566l170 566h101l170 -566l158 566h125zM485 767l-106 148h124l91 -148h-109z"/>
    <glyph glyph-name="wgrave" unicode="ẁ" horiz-adv-x="808" d="M792 480l-159 -480h-115l-114 344l-114 -344h-114l-160 480h113l108 -363l117 363h100l118 -363l107 363h113zM371 547l-106 148h124l91 -148h-109z"/>
    <glyph glyph-name="Wacute" unicode="Ẃ" horiz-adv-x="1034" d="M1022 700l-219 -700h-125l-160 522l-160 -522h-125l-218 700h124l159 -566l170 566h101l170 -566l158 566h125zM441 767l91 148h124l-106 -148h-109z"/>
    <glyph glyph-name="wacute" unicode="ẃ" horiz-adv-x="808" d="M792 480l-159 -480h-115l-114 344l-114 -344h-114l-160 480h113l108 -363l117 363h100l118 -363l107 363h113zM327 547l91 148h124l-106 -148h-109z"/>
    <glyph glyph-name="Wdieresis" unicode="Ẅ" horiz-adv-x="1034" d="M1022 700l-219 -700h-125l-160 522l-160 -522h-125l-218 700h124l159 -566l170 566h101l170 -566l158 566h125zM685 835q0 -26 -19 -45t-45 -19t-45 19t-19 45t19 45t45 19t45 -19t19 -45zM477 835q0 -26 -18.5 -45t-45.5 -19q-26 0 -45 19t-19 45t19 45t45 19 q27 0 45.5 -19t18.5 -45z"/>
    <glyph glyph-name="wdieresis" unicode="ẅ" horiz-adv-x="808" d="M792 480l-159 -480h-115l-114 344l-114 -344h-114l-160 480h113l108 -363l117 363h100l118 -363l107 363h113zM571 615q0 -26 -19 -45t-45 -19t-45 19t-19 45t19 45t45 19t45 -19t19 -45zM363 615q0 -26 -18.5 -45t-45.5 -19q-26 0 -45 19t-19 45t19 45t45 19 q27 0 45.5 -19t18.5 -45z"/>
    <glyph glyph-name="Ygrave" unicode="Ỳ" horiz-adv-x="677" d="M281 0v257l-274 443h128l203 -339l204 339h128l-275 -443v-257h-114zM305 767l-106 148h124l91 -148h-109z"/>
    <glyph glyph-name="ygrave" unicode="ỳ" horiz-adv-x="551" d="M426 480h112l-225 -545q-20 -47 -42 -79t-46.5 -51.5t-51 -28t-53.5 -8.5q-29 0 -63 8v91q12 -4 24.5 -5.5t24.5 -1.5q77 0 119 112l10 24l-228 484h114l162 -362zM234 547l-106 148h124l91 -148h-109z"/>
    <glyph glyph-name="endash" unicode="–" horiz-adv-x="574" d="M59 198v96h456v-96h-456z"/>
    <glyph glyph-name="emdash" unicode="—" horiz-adv-x="766" d="M59 198v96h648v-96h-648z"/>
    <glyph glyph-name="quoteleft" unicode="‘" horiz-adv-x="239" d="M36 452l86 248h86l-58 -248h-114z"/>
    <glyph glyph-name="quoteright" unicode="’" horiz-adv-x="235" d="M42 452l59 248h113l-85 -248h-87z"/>
    <glyph glyph-name="quotesinglbase" unicode="‚" horiz-adv-x="237" d="M11 -148l59 248h113l-85 -248h-87z"/>
    <glyph glyph-name="quotedblleft" unicode="“" horiz-adv-x="403" d="M200 452l86 248h86l-58 -248h-114zM36 452l86 248h86l-58 -248h-114z"/>
    <glyph glyph-name="quotedblright" unicode="”" horiz-adv-x="399" d="M206 452l59 248h113l-85 -248h-87zM42 452l59 248h113l-85 -248h-87z"/>
    <glyph glyph-name="quotedblbase" unicode="„" horiz-adv-x="401" d="M175 -148l59 248h113l-85 -248h-87zM11 -148l59 248h113l-85 -248h-87z"/>
    <glyph glyph-name="dagger" unicode="†" horiz-adv-x="526" d="M207 -220v595h-176v105h176v220h114v-220h174v-105h-174v-595h-114z"/>
    <glyph glyph-name="daggerdbl" unicode="‡" horiz-adv-x="580" d="M233 -220v272h-177v104h177v220h-177v104h177v220h114v-220h177v-104h-177v-220h177v-104h-177v-272h-114z"/>
    <glyph glyph-name="bullet" unicode="•" horiz-adv-x="356" d="M76 350q0 25 8.5 43.5t22.5 31t32.5 18.5t38.5 6q21 0 39.5 -6t32.5 -18.5t22 -31t8 -43.5t-8 -43.5t-22 -31t-32.5 -18.5t-39.5 -6q-20 0 -38.5 6t-32.5 18.5t-22.5 31t-8.5 43.5z"/>
    <glyph glyph-name="ellipsis" unicode="…" horiz-adv-x="658" d="M610 55q0 -34 -20 -50t-48 -16q-26 0 -46.5 16t-20.5 50q0 32 20.5 48t46.5 16q28 0 48 -16t20 -48zM183 55q0 -34 -20 -50t-47 -16t-47.5 16t-20.5 50q0 32 20.5 48t47.5 16t47 -16t20 -48zM396 55q0 -34 -20 -50t-47 -16t-47.5 16t-20.5 50q0 32 20.5 48t47.5 16 t47 -16t20 -48z"/>
    <glyph glyph-name="perthousand" unicode="‰" horiz-adv-x="1306" d="M206 -60l409 820h89l-409 -820h-89zM376 549q0 -40 -14 -70.5t-37.5 -51.5t-54.5 -31.5t-65 -10.5q-35 0 -66 10.5t-55 31.5t-38 51.5t-14 70.5t14 70.5t38 51.5t55 31.5t66 10.5q34 0 65 -10.5t54.5 -31.5t37.5 -51.5t14 -70.5zM124 549q0 -32 19.5 -55.5t60.5 -23.5 q40 0 59 23.5t19 55.5t-19 55.5t-59 23.5q-41 0 -60.5 -23.5t-19.5 -55.5zM877 151q0 -40 -14 -70.5t-37.5 -51.5t-54.5 -31.5t-65 -10.5q-35 0 -66 10.5t-55 31.5t-38 51.5t-14 70.5t14 70.5t38 51.5t55 31.5t66 10.5q34 0 65 -10.5t54.5 -31.5t37.5 -51.5t14 -70.5z M626 151q0 -32 19.5 -55.5t60.5 -23.5q40 0 59 23.5t19 55.5t-19 55.5t-59 23.5q-41 0 -60.5 -23.5t-19.5 -55.5zM1275 151q0 -39 -14 -69.5t-37.5 -51.5t-54.5 -32t-65 -11q-35 0 -66 11t-55 32t-38 51.5t-14 69.5t14 69.5t38 51.5t55 32t66 11q34 0 65 -11t54.5 -32 t37.5 -51.5t14 -69.5zM1023 151q0 -32 19.5 -55.5t60.5 -23.5q40 0 59 23.5t19 55.5t-19 55.5t-59 23.5q-41 0 -60.5 -23.5t-19.5 -55.5z"/>
    <glyph glyph-name="guilsinglleft" unicode="‹" horiz-adv-x="318" d="M163 53l-126 177v20l126 177h111l-133 -187l133 -187h-111z"/>
    <glyph glyph-name="guilsinglright" unicode="›" horiz-adv-x="318" d="M44 53l132 187l-132 187h111l126 -177v-20l-126 -177h-111z"/>
    <glyph glyph-name="fraction" unicode="⁄" horiz-adv-x="176" d="M-160 -14l458 727h40l-459 -727h-39z"/>
    <glyph glyph-name="Euro" unicode="€" horiz-adv-x="728" d="M673 33q-45 -22 -95.5 -34t-103.5 -12q-57 0 -112 15.5t-102 46.5t-82 77t-52 107h-89v79h76v27v29h-76v79h90q17 61 51.5 107t81 77t101.5 46.5t113 15.5q107 0 199 -46v-111q-37 26 -83.5 39t-96.5 13q-38 0 -74.5 -8.5t-68.5 -26t-57.5 -44t-40.5 -62.5h295v-79h-316 q-1 -7 -1.5 -14t-0.5 -15v-13.5t1 -13.5h317v-79h-295q15 -35 41 -61.5t58 -44t69 -26.5t75 -9q51 0 97 14t81 40v-113v0z"/>
    <glyph glyph-name="trademark" unicode="™" horiz-adv-x="676" d="M306 444v256h62l88 -125l87 125h62v-256h-61v165l-72 -103h-33l-71 103v-165h-62zM123 444v200h-81v56h224v-56h-81v-200h-62z"/>
    <glyph glyph-name="oneeighth" unicode="⅛" horiz-adv-x="911" d="M549 304q0 20 9 40t28 36t48 26t70 10q36 0 65.5 -9.5t50 -26t31.5 -37.5t12 -44q1 -25 -10.5 -49.5t-37.5 -44.5q26 -14 44 -37.5t18 -58.5q0 -22 -9.5 -43t-29.5 -37.5t-52.5 -26.5t-77.5 -10q-44 0 -76.5 10t-54 27t-32 39t-10.5 46q0 26 15 54.5t46 48.5 q-20 15 -33.5 36.5t-13.5 50.5zM715 169q-13 5 -27.5 9t-29.5 10q-23 -14 -32 -32t-9 -32q1 -29 25.5 -45.5t69.5 -16.5q32 0 57.5 10.5t25.5 33.5q0 15 -6.5 24.5t-17.5 16.5t-25.5 12t-30.5 10zM782 289q0 25 -21 41t-59 16q-32 0 -52 -11.5t-20 -29.5q0 -15 7 -25t18 -17 t25.5 -12t29.5 -10q19 -5 42 -12q17 16 24 32t6 28zM183 -14l458 727h40l-459 -727h-39zM217 680v-334h72v-74h-240v74h87v250l-84 -30v76l105 38h60z"/>
    <glyph glyph-name="threeeighths" unicode="⅜" horiz-adv-x="937" d="M574 304q0 20 9 40t28 36t48 26t70 10q36 0 65.5 -9.5t50 -26t31.5 -37.5t12 -44q1 -25 -10.5 -49.5t-37.5 -44.5q26 -14 44 -37.5t18 -58.5q0 -22 -9.5 -43t-29.5 -37.5t-52.5 -26.5t-77.5 -10q-44 0 -76.5 10t-54 27t-32 39t-10.5 46q0 26 15 54.5t46 48.5 q-20 15 -33.5 36.5t-13.5 50.5zM740 169q-13 5 -27.5 9t-29.5 10q-23 -14 -32 -32t-9 -32q1 -29 25.5 -45.5t69.5 -16.5q32 0 57.5 10.5t25.5 33.5q0 15 -6.5 24.5t-17.5 16.5t-25.5 12t-30.5 10zM807 289q0 25 -21 41t-59 16q-32 0 -52 -11.5t-20 -29.5q0 -15 7 -25t18 -17 t25.5 -12t29.5 -10q19 -5 42 -12q17 16 24 32t6 28zM218 -14l458 727h40l-459 -727h-39zM332 580q0 -32 -15.5 -54.5t-37.5 -32.5q12 -5 24 -13t22 -20.5t16.5 -30t6.5 -39.5q0 -32 -13 -55t-35.5 -37.5t-51.5 -21.5t-60 -7q-40 0 -74 6.5t-68 21.5v78q35 -20 67 -26t68 -6 q37 0 63 11.5t26 43.5q0 31 -22 41.5t-54 10.5h-67v74h57q33 0 51.5 11.5t18.5 35.5q0 48 -80 48q-28 0 -59.5 -8.5t-61.5 -26.5v78q57 31 132 31q65 0 106 -29t41 -84z"/>
    <glyph glyph-name="fiveeighths" unicode="⅝" horiz-adv-x="930" d="M568 304q0 20 9 40t28 36t48 26t70 10q36 0 65.5 -9.5t50 -26t31.5 -37.5t12 -44q1 -25 -10.5 -49.5t-37.5 -44.5q26 -14 44 -37.5t18 -58.5q0 -22 -9.5 -43t-29.5 -37.5t-52.5 -26.5t-77.5 -10q-44 0 -76.5 10t-54 27t-32 39t-10.5 46q0 26 15 54.5t46 48.5 q-20 15 -33.5 36.5t-13.5 50.5zM734 169q-13 5 -27.5 9t-29.5 10q-23 -14 -32 -32t-9 -32q1 -29 25.5 -45.5t69.5 -16.5q32 0 57.5 10.5t25.5 33.5q0 15 -6.5 24.5t-17.5 16.5t-25.5 12t-30.5 10zM801 289q0 25 -21 41t-59 16q-32 0 -52 -11.5t-20 -29.5q0 -15 7 -25t18 -17 t25.5 -12t29.5 -10q19 -5 42 -12q17 16 24 32t6 28zM212 -14l458 727h40l-459 -727h-39zM325 680v-74h-180l-5 -76q24 6 50 6q30 0 57.5 -7t49.5 -23t35 -42t13 -63q0 -35 -14 -60.5t-37.5 -42.5t-54.5 -25.5t-65 -8.5q-35 0 -69.5 7t-61.5 21v77q25 -16 57.5 -23.5 t63.5 -7.5q42 0 70 14.5t28 49.5q0 38 -30 51.5t-75 13.5q-25 0 -51.5 -5t-50.5 -13l14 231h256z"/>
    <glyph glyph-name="seveneighths" unicode="⅞" horiz-adv-x="849" d="M122 -14l458 727h40l-459 -727h-39zM486 304q0 20 9 40t28 36t48 26t70 10q36 0 65.5 -9.5t50 -26t31.5 -37.5t12 -44q1 -25 -10.5 -49.5t-37.5 -44.5q26 -14 44 -37.5t18 -58.5q0 -22 -9.5 -43t-29.5 -37.5t-52.5 -26.5t-77.5 -10q-44 0 -76.5 10t-54 27t-32 39 t-10.5 46q0 26 15 54.5t46 48.5q-20 15 -33.5 36.5t-13.5 50.5zM652 169q-13 5 -27.5 9t-29.5 10q-23 -14 -32 -32t-9 -32q1 -29 25.5 -45.5t69.5 -16.5q32 0 57.5 10.5t25.5 33.5q0 15 -6.5 24.5t-17.5 16.5t-25.5 12t-30.5 10zM719 289q0 25 -21 41t-59 16 q-32 0 -52 -11.5t-20 -29.5q0 -15 7 -25t18 -17t25.5 -12t29.5 -10q19 -5 42 -12q17 16 24 32t6 28zM89 272l155 334h-209v74h300v-67l-157 -341h-89z"/>
    <glyph glyph-name="partialdiff" unicode="∂" horiz-adv-x="590" d="M544 280q0 -72 -18.5 -127t-52.5 -92t-81.5 -55.5t-104.5 -18.5q-54 0 -99.5 16.5t-78.5 47.5t-52 74t-19 96q0 50 17.5 91t47 70.5t69.5 45.5t85 16q63 0 112.5 -25.5t72.5 -67.5l-2 12t-3 13q-14 70 -48.5 115.5t-81 71.5t-100 35t-105.5 8v99q79 0 158 -21.5 t142 -71.5t102.5 -131.5t39.5 -200.5zM146 219q0 -29 9 -54t27 -44.5t45 -30.5t63 -11q35 0 60 10.5t42 28.5t26.5 41t12.5 49q-1 29 -11 55.5t-29 46.5t-46 32t-61 12q-33 0 -59 -11t-43.5 -29.5t-26.5 -43t-9 -51.5z"/>
    <glyph glyph-name="emptyset" unicode="∅" horiz-adv-x="807" d="M657 609q51 -49 80.5 -115.5t29.5 -143.5q0 -75 -28.5 -141.5t-78 -115.5t-115.5 -77.5t-141 -28.5q-62 0 -117 19t-101 53l-51 -59h-64l78 91q-51 50 -80 116.5t-29 142.5q0 75 28.5 141.5t78 115.5t116 77.5t141.5 28.5q61 0 116 -19t100 -53l51 59h64zM403 658 q-64 0 -120 -24t-98 -66t-66 -98t-24 -120t24 -119.5t66 -97.5l399 466q-38 28 -84 43.5t-97 15.5zM222 102q38 -29 84 -44.5t97 -15.5q64 0 120 24t98 66t66 98t24 120q0 63 -23.5 119t-65.5 99z"/>
    <glyph glyph-name="product" unicode="∏" horiz-adv-x="768" d="M127 -220v821h-92v99h698v-99h-92v-821h-114v821h-286v-821h-114z"/>
    <glyph glyph-name="summation" unicode="∑" horiz-adv-x="575" d="M39 0v63l251 287l-251 287v63h485v-105h-307l204 -234v-22l-204 -233h309v-106h-487z"/>
    <glyph glyph-name="minus" unicode="−" horiz-adv-x="518" d="M64 299v95h390v-95h-390z"/>
    <glyph glyph-name="radical" unicode="√" horiz-adv-x="751" d="M289 0l-163 375h-102v105h172l142 -349l301 649h119l-372 -780h-97z"/>
    <glyph glyph-name="infinity" unicode="∞" horiz-adv-x="866" d="M434 432q18 23 37.5 44.5t43 37.5t51.5 25.5t62 9.5q38 0 71.5 -13t58.5 -37.5t39.5 -60t14.5 -80.5t-14.5 -80.5t-39.5 -60t-58.5 -37.5t-71.5 -13q-34 0 -62 9.5t-52 25.5t-44 37.5t-38 44.5q-18 -23 -37.5 -44.5t-43 -37.5t-51.5 -25.5t-62 -9.5q-38 0 -71.5 13 t-58.5 37.5t-39.5 60t-14.5 80.5t14.5 80.5t39.5 60t58.5 37.5t71.5 13q34 0 62 -9.5t52 -25.5t44 -37.5t38 -44.5zM380 357q-29 42 -58.5 69.5t-69.5 27.5q-38 0 -66 -23t-28 -73t28 -73t66 -23q40 0 69.5 27t58.5 68zM708 358q0 51 -28 73.5t-66 22.5q-40 0 -69.5 -27 t-58.5 -68q29 -42 58.5 -69.5t69.5 -27.5q38 0 66 22.5t28 73.5z"/>
    <glyph glyph-name="integral" unicode="∫" horiz-adv-x="440" d="M167 628q0 48 15.5 80t40 50.5t55 26.5t60.5 8q26 0 50.5 -4.5t42.5 -11.5v-96q-13 5 -31.5 9.5t-42.5 4.5q-14 0 -29 -3t-27 -11.5t-19.5 -24t-7.5 -39.5v-685q0 -48 -15.5 -80t-40 -50.5t-55.5 -26.5t-61 -8q-26 0 -50.5 4.5t-42.5 11.5v96q13 -5 30.5 -9.5t37.5 -4.5 q16 0 32.5 3t29 11t20.5 23.5t8 40.5v685v0z"/>
    <glyph glyph-name="approxequal" unicode="≈" horiz-adv-x="593" d="M533 507q6 -66 -27 -101t-89 -35q-27 0 -56.5 8.5t-58.5 19t-56.5 18.5t-49.5 8q-17 0 -27 -10t-8 -32h-95q-5 67 29 101.5t86 34.5q29 0 58.5 -8.5t57.5 -18t55 -18t51 -8.5q17 0 27 9t8 32h95zM533 336q6 -66 -27 -101.5t-89 -35.5q-27 0 -56.5 8.5t-58.5 19t-56.5 19 t-49.5 8.5q-17 0 -27 -10t-8 -32h-95q-5 67 29 101.5t86 34.5q29 0 58.5 -8.5t57.5 -18.5t55 -18.5t51 -8.5q17 0 27 9.5t8 32.5h95z"/>
    <glyph glyph-name="notequal" unicode="≠" horiz-adv-x="566" d="M100 107l58 101h-95v95h150l55 94h-205v96h260l58 100h85l-58 -100h95v-96h-150l-55 -94h205v-95h-260l-58 -101h-85z"/>
    <glyph glyph-name="lessequal" unicode="≤" horiz-adv-x="523" d="M448 178l-386 149v107l386 149v-100l-286 -103l286 -103v-99zM62 0v95h386v-95h-386z"/>
    <glyph glyph-name="greaterequal" unicode="≥" horiz-adv-x="524" d="M75 181v99l287 103l-287 103v100l386 -149v-107zM75 0v95h386v-95h-386z"/>
    <glyph glyph-name="lozenge" unicode="◊" horiz-adv-x="579" d="M230 0l-196 350l196 350h119l196 -350l-196 -350h-119zM289 103l143 247l-143 247l-141 -247z"/>
    <glyph glyph-name="i.aalt" horiz-adv-x="245" d="M176 480v-480h-107v480h107zM49 610q0 34 21 50.5t49 16.5q29 0 49.5 -16.5t20.5 -50.5q0 -35 -20.5 -52t-49.5 -17q-28 0 -49 17t-21 52z"/>
    <glyph glyph-name="a.aalt" horiz-adv-x="622" d="M459 76q-14 -18 -32 -34t-40.5 -28t-50 -19.5t-61.5 -7.5q-54 0 -98 20t-75 54.5t-48 80.5t-17 98t17 98t48 80.5t75 54.5t98 20q34 0 61.5 -7.5t50 -19.5t40.5 -28t32 -33v75h96v-480h-96v76zM145 240q0 -35 11 -64.5t31 -50.5t47.5 -32.5t59.5 -11.5q28 0 52 8.5 t43.5 22.5t34 32t23.5 38v117q-9 19 -23.5 37.5t-34 32t-43.5 22t-52 8.5q-32 0 -59.5 -11.5t-47.5 -32.5t-31 -50.5t-11 -64.5z"/>
    <glyph glyph-name="aacute.aalt" horiz-adv-x="622" d="M459 76q-14 -18 -32 -34t-40.5 -28t-50 -19.5t-61.5 -7.5q-54 0 -98 20t-75 54.5t-48 80.5t-17 98t17 98t48 80.5t75 54.5t98 20q34 0 61.5 -7.5t50 -19.5t40.5 -28t32 -33v75h96v-480h-96v76zM145 240q0 -35 11 -64.5t31 -50.5t47.5 -32.5t59.5 -11.5q28 0 52 8.5 t43.5 22.5t34 32t23.5 38v117q-9 19 -23.5 37.5t-34 32t-43.5 22t-52 8.5q-32 0 -59.5 -11.5t-47.5 -32.5t-31 -50.5t-11 -64.5zM235 547l91 148h124l-106 -148h-109z"/>
    <glyph glyph-name="abreve.aalt" horiz-adv-x="622" d="M459 76q-14 -18 -32 -34t-40.5 -28t-50 -19.5t-61.5 -7.5q-54 0 -98 20t-75 54.5t-48 80.5t-17 98t17 98t48 80.5t75 54.5t98 20q34 0 61.5 -7.5t50 -19.5t40.5 -28t32 -33v75h96v-480h-96v76zM145 240q0 -35 11 -64.5t31 -50.5t47.5 -32.5t59.5 -11.5q28 0 52 8.5 t43.5 22.5t34 32t23.5 38v117q-9 19 -23.5 37.5t-34 32t-43.5 22t-52 8.5q-32 0 -59.5 -11.5t-47.5 -32.5t-31 -50.5t-11 -64.5zM459 582q-33 -23 -69 -33t-78 -10t-78.5 10t-69.5 33v92q38 -25 73.5 -34t74.5 -9q38 0 73.5 9t73.5 34v-92z"/>
    <glyph glyph-name="acircumflex.aalt" horiz-adv-x="622" d="M459 76q-14 -18 -32 -34t-40.5 -28t-50 -19.5t-61.5 -7.5q-54 0 -98 20t-75 54.5t-48 80.5t-17 98t17 98t48 80.5t75 54.5t98 20q34 0 61.5 -7.5t50 -19.5t40.5 -28t32 -33v75h96v-480h-96v76zM145 240q0 -35 11 -64.5t31 -50.5t47.5 -32.5t59.5 -11.5q28 0 52 8.5 t43.5 22.5t34 32t23.5 38v117q-9 19 -23.5 37.5t-34 32t-43.5 22t-52 8.5q-32 0 -59.5 -11.5t-47.5 -32.5t-31 -50.5t-11 -64.5zM362 695l129 -150h-111l-65 76l-66 -76h-111l129 150h95z"/>
    <glyph glyph-name="adieresis.aalt" horiz-adv-x="622" d="M459 76q-14 -18 -32 -34t-40.5 -28t-50 -19.5t-61.5 -7.5q-54 0 -98 20t-75 54.5t-48 80.5t-17 98t17 98t48 80.5t75 54.5t98 20q34 0 61.5 -7.5t50 -19.5t40.5 -28t32 -33v75h96v-480h-96v76zM145 240q0 -35 11 -64.5t31 -50.5t47.5 -32.5t59.5 -11.5q28 0 52 8.5 t43.5 22.5t34 32t23.5 38v117q-9 19 -23.5 37.5t-34 32t-43.5 22t-52 8.5q-32 0 -59.5 -11.5t-47.5 -32.5t-31 -50.5t-11 -64.5zM479 615q0 -26 -19 -45t-45 -19t-45 19t-19 45t19 45t45 19t45 -19t19 -45zM271 615q0 -26 -18.5 -45t-45.5 -19q-26 0 -45 19t-19 45t19 45 t45 19q27 0 45.5 -19t18.5 -45z"/>
    <glyph glyph-name="agrave.aalt" horiz-adv-x="622" d="M459 76q-14 -18 -32 -34t-40.5 -28t-50 -19.5t-61.5 -7.5q-54 0 -98 20t-75 54.5t-48 80.5t-17 98t17 98t48 80.5t75 54.5t98 20q34 0 61.5 -7.5t50 -19.5t40.5 -28t32 -33v75h96v-480h-96v76zM145 240q0 -35 11 -64.5t31 -50.5t47.5 -32.5t59.5 -11.5q28 0 52 8.5 t43.5 22.5t34 32t23.5 38v117q-9 19 -23.5 37.5t-34 32t-43.5 22t-52 8.5q-32 0 -59.5 -11.5t-47.5 -32.5t-31 -50.5t-11 -64.5zM279 547l-106 148h124l91 -148h-109z"/>
    <glyph glyph-name="amacron.aalt" horiz-adv-x="622" d="M459 76q-14 -18 -32 -34t-40.5 -28t-50 -19.5t-61.5 -7.5q-54 0 -98 20t-75 54.5t-48 80.5t-17 98t17 98t48 80.5t75 54.5t98 20q34 0 61.5 -7.5t50 -19.5t40.5 -28t32 -33v75h96v-480h-96v76zM145 240q0 -35 11 -64.5t31 -50.5t47.5 -32.5t59.5 -11.5q28 0 52 8.5 t43.5 22.5t34 32t23.5 38v117q-9 19 -23.5 37.5t-34 32t-43.5 22t-52 8.5q-32 0 -59.5 -11.5t-47.5 -32.5t-31 -50.5t-11 -64.5zM468 646v-90h-312v90h312z"/>
    <glyph glyph-name="aogonek.aalt" horiz-adv-x="622" d="M555 480v-480h-1q-39 -27 -60 -58.5t-20 -55.5q-1 -17 9.5 -27t29.5 -10t41 10v-77q-32 -16 -73 -16q-53 0 -79.5 27.5t-26.5 66.5q1 34 20.5 73t63.5 77v66q-14 -18 -32 -34t-40.5 -28t-50 -19.5t-61.5 -7.5q-54 0 -98 20t-75 54.5t-48 80.5t-17 98t17 98t48 80.5 t75 54.5t98 20q34 0 61.5 -7.5t50 -19.5t40.5 -28t32 -33v75h96zM294 81q28 0 52 8.5t43.5 22.5t34 32t23.5 38v117q-9 19 -23.5 37.5t-34 32t-43.5 22t-52 8.5q-32 0 -59.5 -11.5t-47.5 -32.5t-31 -50.5t-11 -64.5t11 -64.5t31 -50.5t47.5 -32.5t59.5 -11.5z"/>
    <glyph glyph-name="aring.aalt" horiz-adv-x="622" d="M459 76q-14 -18 -32 -34t-40.5 -28t-50 -19.5t-61.5 -7.5q-54 0 -98 20t-75 54.5t-48 80.5t-17 98t17 98t48 80.5t75 54.5t98 20q34 0 61.5 -7.5t50 -19.5t40.5 -28t32 -33v75h96v-480h-96v76zM145 240q0 -35 11 -64.5t31 -50.5t47.5 -32.5t59.5 -11.5q28 0 52 8.5 t43.5 22.5t34 32t23.5 38v117q-9 19 -23.5 37.5t-34 32t-43.5 22t-52 8.5q-32 0 -59.5 -11.5t-47.5 -32.5t-31 -50.5t-11 -64.5zM431 635q0 -27 -9.5 -48.5t-26 -36t-38 -22.5t-45.5 -8t-46 8t-38.5 22.5t-26.5 36t-10 48.5t10 48t26.5 35.5t38.5 22.5t46 8t45.5 -8 t38 -22.5t26 -35.5t9.5 -48zM262 635q0 -23 14.5 -36.5t34.5 -13.5t34.5 13.5t14.5 36.5q0 22 -14.5 35.5t-34.5 13.5t-34.5 -13.5t-14.5 -35.5z"/>
    <glyph glyph-name="atilde.aalt" horiz-adv-x="622" d="M459 76q-14 -18 -32 -34t-40.5 -28t-50 -19.5t-61.5 -7.5q-54 0 -98 20t-75 54.5t-48 80.5t-17 98t17 98t48 80.5t75 54.5t98 20q34 0 61.5 -7.5t50 -19.5t40.5 -28t32 -33v75h96v-480h-96v76zM145 240q0 -35 11 -64.5t31 -50.5t47.5 -32.5t59.5 -11.5q28 0 52 8.5 t43.5 22.5t34 32t23.5 38v117q-9 19 -23.5 37.5t-34 32t-43.5 22t-52 8.5q-32 0 -59.5 -11.5t-47.5 -32.5t-31 -50.5t-11 -64.5zM483 657q6 -29 1 -51.5t-17.5 -38.5t-31 -24t-39.5 -8q-24 0 -45 6.5t-39.5 14.5t-34 14.5t-26.5 6.5q-17 0 -23 -11t-4 -25h-83q-6 28 -1 51 t17.5 38.5t30.5 24t39 8.5q23 0 44.5 -6.5t40 -14.5t34 -14.5t27.5 -6.5q18 0 23.5 11t3.5 25h83z"/>
    <glyph glyph-name="ae.aalt" horiz-adv-x="969" d="M459 76q-14 -18 -32 -34t-40.5 -28t-50 -19.5t-61.5 -7.5q-54 0 -98 20t-75 54.5t-48 80.5t-17 98t17 98t48 80.5t75 54.5t98 20q34 0 61.5 -7.5t50 -19.5t40.5 -28t32 -33v75h93v-78q28 45 71 68t97 23q67 0 112 -26.5t70 -69t31 -95.5t-6 -107h-362q5 -30 22 -52.5 t42 -36.5t56.5 -21t64.5 -7q42 0 79 9.5t66 24.5v-89q-32 -17 -69.5 -26.5t-82.5 -9.5q-59 0 -109 22t-82 71v-80h-93v76zM145 240q0 -35 11 -64.5t31 -50.5t47.5 -32.5t59.5 -11.5q28 0 52 8.5t43.5 22.5t34 32t23.5 38v117q-9 19 -23.5 37.5t-34 32t-43.5 22t-52 8.5 q-32 0 -59.5 -11.5t-47.5 -32.5t-31 -50.5t-11 -64.5zM706 404q-27 0 -52 -8t-44.5 -24.5t-31.5 -40.5t-13 -55h266q2 17 -2.5 39.5t-18.5 42t-39.5 33t-64.5 13.5z"/>
    <glyph glyph-name="y.aalt" horiz-adv-x="589" d="M522 0q-1 -63 -23 -107t-58 -72t-82 -41t-96 -13q-51 0 -99 11t-82 31v95q32 -22 77 -32.5t90 -10.5q32 0 62 6.5t53 22.5t37 43.5t14 69.5v51q-26 -28 -65.5 -47.5t-89.5 -19.5q-48 0 -84.5 14.5t-62 40.5t-38.5 62t-13 79v297h107v-283q0 -59 29 -87t83 -28q23 0 43 7 t37 18.5t30.5 25.5t23.5 29v318h107v-480v0z"/>
    <glyph glyph-name="yacute.aalt" horiz-adv-x="589" d="M522 0q-1 -63 -23 -107t-58 -72t-82 -41t-96 -13q-51 0 -99 11t-82 31v95q32 -22 77 -32.5t90 -10.5q32 0 62 6.5t53 22.5t37 43.5t14 69.5v51q-26 -28 -65.5 -47.5t-89.5 -19.5q-48 0 -84.5 14.5t-62 40.5t-38.5 62t-13 79v297h107v-283q0 -59 29 -87t83 -28q23 0 43 7 t37 18.5t30.5 25.5t23.5 29v318h107v-480zM217 547l91 148h124l-106 -148h-109z"/>
    <glyph glyph-name="ycircumflex.aalt" horiz-adv-x="589" d="M522 0q-1 -63 -23 -107t-58 -72t-82 -41t-96 -13q-51 0 -99 11t-82 31v95q32 -22 77 -32.5t90 -10.5q32 0 62 6.5t53 22.5t37 43.5t14 69.5v51q-26 -28 -65.5 -47.5t-89.5 -19.5q-48 0 -84.5 14.5t-62 40.5t-38.5 62t-13 79v297h107v-283q0 -59 29 -87t83 -28q23 0 43 7 t37 18.5t30.5 25.5t23.5 29v318h107v-480zM344 695l129 -150h-111l-65 76l-66 -76h-111l129 150h95z"/>
    <glyph glyph-name="ydieresis.aalt" horiz-adv-x="589" d="M522 0q-1 -63 -23 -107t-58 -72t-82 -41t-96 -13q-51 0 -99 11t-82 31v95q32 -22 77 -32.5t90 -10.5q32 0 62 6.5t53 22.5t37 43.5t14 69.5v51q-26 -28 -65.5 -47.5t-89.5 -19.5q-48 0 -84.5 14.5t-62 40.5t-38.5 62t-13 79v297h107v-283q0 -59 29 -87t83 -28q23 0 43 7 t37 18.5t30.5 25.5t23.5 29v318h107v-480zM461 615q0 -26 -19 -45t-45 -19t-45 19t-19 45t19 45t45 19t45 -19t19 -45zM253 615q0 -26 -18.5 -45t-45.5 -19q-26 0 -45 19t-19 45t19 45t45 19q27 0 45.5 -19t18.5 -45z"/>
    <glyph glyph-name="ygrave.aalt" horiz-adv-x="589" d="M522 0q-1 -63 -23 -107t-58 -72t-82 -41t-96 -13q-51 0 -99 11t-82 31v95q32 -22 77 -32.5t90 -10.5q32 0 62 6.5t53 22.5t37 43.5t14 69.5v51q-26 -28 -65.5 -47.5t-89.5 -19.5q-48 0 -84.5 14.5t-62 40.5t-38.5 62t-13 79v297h107v-283q0 -59 29 -87t83 -28q23 0 43 7 t37 18.5t30.5 25.5t23.5 29v318h107v-480zM261 547l-106 148h124l91 -148h-109z"/>
    <glyph glyph-name="f_b.dlig" horiz-adv-x="981" d="M533 418q25 29 67.5 52t105.5 23q54 0 98 -20t75 -54.5t48 -80.5t17 -98t-17 -98t-48 -80.5t-75 -54.5t-98 -20q-34 0 -61.5 7.5t-50.5 19.5t-41 28t-32 34v-76h-95v598q-51 21 -105 21q-45 0 -75 -20.5t-30 -68.5v-50h140v-94h-140v-386h-107v386h-87v94h87v52 q0 45 15 78.5t41 56.5t61.5 34.5t76.5 11.5t74.5 -7.5t65.5 -21.5l90 18v-284zM533 182q17 -40 57 -70.5t96 -30.5q33 0 60 11.5t47 32.5t31 50.5t11 64.5t-11 64.5t-31 50.5t-47 32.5t-60 11.5q-28 0 -52 -8.5t-43.5 -22t-34 -32t-23.5 -37.5v-117z"/>
    <glyph glyph-name="f_f_b.dlig" horiz-adv-x="1298" d="M850 418q25 29 67.5 52t105.5 23q54 0 98 -20t75 -54.5t48 -80.5t17 -98t-17 -98t-48 -80.5t-75 -54.5t-98 -20q-34 0 -61.5 7.5t-50.5 19.5t-41 28t-32 34v-76h-95v608q-50 21 -105 21q-44 0 -74.5 -22t-30.5 -74v-53h141v-94h-141v-386h-107v386h-210v-386h-107v386 h-87v94h87v42q0 46 15.5 80t42 56.5t62.5 33.5t78 11q44 0 82 -10t80 -30q26 30 65 45t86 15q41 0 74.5 -7.5t65.5 -21.5l90 18v-294zM427 535q0 28 4 48q-25 14 -50 21t-60 7q-46 0 -75.5 -21.5t-29.5 -67.5v-42h211v55zM850 182q17 -40 57 -70.5t96 -30.5q33 0 60 11.5 t47 32.5t31 50.5t11 64.5t-11 64.5t-31 50.5t-47 32.5t-60 11.5q-28 0 -52 -8.5t-43.5 -22t-34 -32t-23.5 -37.5v-117z"/>
    <glyph glyph-name="f_f_h.dlig" horiz-adv-x="1264" d="M850 427q26 27 66 46.5t89 19.5q45 0 82 -14.5t62.5 -40.5t39.5 -62t14 -79v-297h-107v283q0 59 -32 87t-80 28q-23 0 -43 -7t-37 -18.5t-30.5 -25.5t-23.5 -29v-318h-107v608q-50 21 -105 21q-44 0 -74.5 -22t-30.5 -74v-53h141v-94h-141v-386h-107v386h-210v-386h-107 v386h-87v94h87v42q0 46 15.5 80t42 56.5t62.5 33.5t78 11q44 0 82 -10t80 -30q26 30 65 45t86 15q41 0 74.5 -7.5t65.5 -21.5l90 18v-285zM427 535q0 28 4 48q-25 14 -50 21t-60 7q-46 0 -75.5 -21.5t-29.5 -67.5v-42h211v55z"/>
    <glyph glyph-name="f_f_j.dlig" horiz-adv-x="909" d="M840 -82q0 -45 -13.5 -74t-35 -46t-48 -24t-52.5 -7q-45 0 -76 14v90q22 -10 46 -10q14 0 27 3.5t23 12t16 23t6 36.5v450h-200v-386h-107v386h-210v-386h-107v386h-87v94h87v42q0 46 15.5 80t42 56.5t62.5 33.5t78 11q44 0 82 -10t80 -30q28 32 70 47.5t93 15.5 q41 0 78.5 -8t76.5 -25v-98q-35 18 -69.5 27.5t-71.5 9.5q-48 0 -80.5 -22.5t-32.5 -75.5v-54h307v-562zM216 480h211v55q0 28 4 48q-25 14 -50 21t-60 7q-46 0 -75.5 -21.5t-29.5 -67.5v-42z"/>
    <glyph glyph-name="f_f_k.dlig" horiz-adv-x="1209" d="M1015 241l193 -241h-122l-159 199h-77v-199h-107v608q-50 21 -105 21q-44 0 -74.5 -22t-30.5 -74v-53h141v-94h-141v-386h-107v386h-210v-386h-107v386h-87v94h87v42q0 46 15.5 80t42 56.5t62.5 33.5t78 11q44 0 82 -10t80 -30q26 30 65 45t86 15q41 0 74.5 -7.5 t65.5 -21.5l90 18v-422h81l138 190h120zM427 535q0 28 4 48q-25 14 -50 21t-60 7q-46 0 -75.5 -21.5t-29.5 -67.5v-42h211v55z"/>
    <glyph glyph-name="f_h.dlig" horiz-adv-x="947" d="M533 427q26 27 66 46.5t89 19.5q45 0 82 -14.5t62.5 -40.5t39.5 -62t14 -79v-297h-107v283q0 59 -32 87t-80 28q-23 0 -43 -7t-37 -18.5t-30.5 -25.5t-23.5 -29v-318h-107v598q-51 21 -105 21q-45 0 -75 -20.5t-30 -68.5v-50h140v-94h-140v-386h-107v386h-87v94h87v52 q0 45 15 78.5t41 56.5t61.5 34.5t76.5 11.5t74.5 -7.5t65.5 -21.5l90 18v-275v0z"/>
    <glyph glyph-name="f_i.dlig" horiz-adv-x="586" d="M517 480v-480h-107v386h-194v-386h-107v386h-87v94h87v49q0 46 15.5 80.5t43 57.5t65 34.5t82.5 11.5q77 0 155 -33v-98q-35 18 -69.5 27.5t-71.5 9.5q-49 0 -81 -21.5t-32 -69.5v-48h301z"/>
    <glyph glyph-name="f_j.dlig" horiz-adv-x="586" d="M517 480v-562q0 -45 -13.5 -74t-35 -46t-48 -24t-52.5 -7q-46 0 -77 14v90q23 -10 46 -10q15 0 28 3.5t23 12t16 23t6 36.5v450h-194v-386h-107v386h-87v94h87v49q0 46 15.5 80.5t43 57.5t65 34.5t82.5 11.5q77 0 155 -33v-98q-35 18 -69.5 27.5t-71.5 9.5 q-49 0 -81 -21.5t-32 -69.5v-48h301z"/>
    <glyph glyph-name="f_k.dlig" horiz-adv-x="892" d="M698 241l193 -241h-122l-159 199h-77v-199h-107v598q-51 21 -105 21q-45 0 -75 -20.5t-30 -68.5v-50h140v-94h-140v-386h-107v386h-87v94h87v52q0 45 15 78.5t41 56.5t61.5 34.5t76.5 11.5t74.5 -7.5t65.5 -21.5l90 18v-412h81l138 190h120z"/>
    <glyph glyph-name="f_l.dlig" horiz-adv-x="602" d="M303 713q41 0 74.5 -7.5t65.5 -21.5l90 18v-702h-107v598q-51 21 -105 21q-45 0 -75 -20.5t-30 -68.5v-50h140v-94h-140v-386h-107v386h-87v94h87v52q0 45 15 78.5t41 56.5t61.5 34.5t76.5 11.5z"/>
    <glyph glyph-name="uni0414.aalt" horiz-adv-x="806" d="M26 -159v263h78l237 596h125l237 -596h77v-263h-103v159h-547v-159h-104zM224 104h358l-179 475z"/>
    <glyph glyph-name="uni041B.aalt" horiz-adv-x="696" d="M407 700l282 -700h-123l-218 568l-218 -568h-123l282 700h118z"/>
    <glyph glyph-name="uni0424.aalt" horiz-adv-x="906" d="M397 -97v94q-84 4 -150 33t-112 76.5t-70 109.5t-24 134t24 134t70 109.5t112 76t150 33.5v94h112v-94q84 -5 150 -34t111.5 -76t70 -109t24.5 -134t-24.5 -134t-70 -109t-111.5 -76t-150 -34v-94h-112zM157 350q0 -45 13 -88t42 -77.5t74.5 -57.5t110.5 -27v500 q-65 -4 -110.5 -27t-74.5 -57.5t-42 -77.5t-13 -88zM509 100q64 4 110 27t74.5 57.5t42 77.5t13.5 88t-13.5 88t-42 77.5t-74.5 57.5t-110 27v-500z"/>
    <glyph glyph-name="uni0432.aalt" horiz-adv-x="586" d="M501 541q0 -41 -18.5 -78t-71.5 -67q63 -18 101 -67.5t38 -120.5q0 -47 -17.5 -87.5t-49.5 -70t-76.5 -46.5t-98.5 -17t-100 16t-79.5 50t-53 87t-19.5 126v129q0 74 16.5 133t48 100t78.5 63t107 22q44 0 80 -13.5t61.5 -37t39.5 -54.5t14 -67zM395 531q0 16 -6 31.5 t-17.5 28t-28.5 20t-40 7.5q-30 0 -56 -12t-44.5 -38t-29 -67.5t-10.5 -101.5l124 22q33 7 54 19t33 27t16.5 31.5t4.5 32.5zM164 263q0 -96 38.5 -137.5t103.5 -41.5t100.5 35.5t35.5 91.5q0 28 -9.5 53t-28.5 42t-47.5 24t-65.5 1l-127 -22v-46z"/>
    <glyph glyph-name="uni0433.aalt" horiz-adv-x="482" d="M437 33q-35 -22 -85 -34t-103 -12q-45 0 -84.5 7t-69 24t-46.5 45t-17 69q0 47 22 74t55.5 43t72 23.5t72 16.5t55.5 22t22 39q0 15 -8 25.5t-21 17t-30 9t-35 2.5q-47 0 -93.5 -12.5t-82.5 -32.5v93q38 18 83.5 29.5t100.5 11.5q37 0 72 -7.5t62.5 -24.5t44 -44.5 t16.5 -67.5q0 -47 -22 -74.5t-55.5 -43.5t-72 -24.5t-72 -17t-55.5 -21.5t-22 -37q0 -33 30.5 -43.5t83.5 -10.5q45 0 94.5 13t87.5 39v-96v0z"/>
    <glyph glyph-name="uni0434.aalt" horiz-adv-x="622" d="M37 240q0 52 17 98t48 80.5t75 54.5t98 20q34 0 61.5 -7.5t50 -19.5t40.5 -28t32 -33v75h96v-474q0 -65 -23 -110.5t-60.5 -74t-86 -41.5t-99.5 -13q-55 0 -105 11.5t-93 33.5v98q84 -49 184 -49q36 0 68 7t56 23.5t38 43.5t14 68v61q-25 -29 -67.5 -53t-105.5 -24 q-54 0 -98 20t-75 54.5t-48 80.5t-17 98zM447 299q-9 19 -23.5 37.5t-34 32t-43.5 22t-52 8.5q-32 0 -59.5 -11.5t-47.5 -32.5t-31 -50.5t-11 -64.5t11 -64.5t31 -50.5t47.5 -32.5t59.5 -11.5q57 0 96.5 28.5t56.5 65.5v124z"/>
    <glyph glyph-name="uni0436.aalt" horiz-adv-x="771" d="M6 0l179 240l-161 240h117l129 -194h62v414h107v-414h63l129 194h116l-160 -240l179 -240h-117l-146 195h-64v-195h-107v195h-63l-146 -195h-117z"/>
    <glyph glyph-name="uni0438.aalt" horiz-adv-x="589" d="M522 480v-480h-95v66q-26 -32 -69 -55.5t-98 -23.5q-48 0 -84.5 14.5t-62 40.5t-38.5 62t-13 79v297h107v-283q0 -59 29 -87t83 -28q23 0 43 7t37 18.5t30.5 25.5t23.5 29v318h107z"/>
    <glyph glyph-name="uni0439.aalt" horiz-adv-x="589" d="M440 588q-33 -23 -69 -32t-77 -9t-77 9t-69 32v87q38 -24 73 -33t73 -9t73 9t73 33v-87zM522 480v-480h-95v66q-26 -32 -69 -55.5t-98 -23.5q-48 0 -84.5 14.5t-62 40.5t-38.5 62t-13 79v297h107v-283q0 -59 29 -87t83 -28q23 0 43 7t37 18.5t30.5 25.5t23.5 29v318h107z "/>
    <glyph glyph-name="uni043A.aalt" horiz-adv-x="535" d="M409 0l-158 199h-77v-199h-107v700h107v-410h79l138 190h122l-174 -238l193 -242h-123z"/>
    <glyph glyph-name="uni043B.aalt" horiz-adv-x="548" d="M419 0l-145 364l-146 -364h-116l205 480h113l206 -480h-117z"/>
    <glyph glyph-name="uni043F.aalt" horiz-adv-x="588" d="M162 414q26 32 69 55.5t98 23.5q45 0 82 -14.5t62.5 -40.5t39.5 -62t14 -79v-297h-107v283q0 59 -32 87t-80 28q-23 0 -43 -7t-37 -18.5t-30.5 -25.5t-23.5 -29v-318h-107v480h95v-66v0z"/>
    <glyph glyph-name="uni0442.aalt" horiz-adv-x="884" d="M67 0v480h95v-60q10 11 25 23.5t35.5 23.5t45.5 18.5t54 7.5q54 0 91.5 -21t58.5 -56q32 32 73.5 54.5t94.5 22.5q48 0 82 -16t56.5 -43t33 -62t10.5 -72v-300h-107v297q0 47 -25.5 74t-69.5 27q-40 0 -70 -21t-49 -44q1 -8 1.5 -16.5t0.5 -16.5v-300h-107v297 q0 47 -25.5 74t-69.5 27q-22 0 -41 -7t-35 -18t-29 -24t-22 -25v-324h-107z"/>
    <glyph glyph-name="uni0446.aalt" horiz-adv-x="623" d="M522 111q0 -19 10 -26.5t25 -7.5h36v-206h-98v125q-26 3 -45.5 19t-27.5 45q-27 -30 -68.5 -51.5t-93.5 -21.5q-48 0 -84.5 14.5t-62 40.5t-38.5 62t-13 79v297h107v-283q0 -59 29 -87t83 -28q23 0 43 7t37 18.5t30.5 25.5t23.5 29v318h107v-369v0z"/>
    <glyph glyph-name="uni0448.aalt" horiz-adv-x="884" d="M817 480v-480h-95v60q-10 -11 -25 -23.5t-35.5 -23.5t-45.5 -18.5t-54 -7.5q-54 0 -91.5 21t-58.5 56q-32 -32 -73.5 -54.5t-94.5 -22.5q-48 0 -82 16t-56.5 43t-33 62t-10.5 72v300h107v-297q0 -47 25.5 -74t69.5 -27q40 0 70 21t49 44q-1 8 -1.5 16.5t-0.5 16.5v300 h107v-297q0 -47 25.5 -74t69.5 -27q22 0 41 7t35 18t29 24t22 25v324h107z"/>
    <glyph glyph-name="uni0449.aalt" horiz-adv-x="917" d="M817 111q0 -19 10 -26.5t25 -7.5h35v-206h-98v125q-25 3 -44 18t-27 42q-10 -11 -25 -23t-35 -22t-44 -17t-52 -7q-55 0 -92 21t-58 56q-32 -32 -73.5 -54.5t-95.5 -22.5q-47 0 -81.5 16t-56.5 43t-32.5 62t-10.5 72v300h107v-296q0 -48 25.5 -75t69.5 -27q39 0 69 20.5 t50 43.5q-1 8 -1.5 17t-0.5 17v300h107v-296q0 -48 25.5 -75t69.5 -27q22 0 41 7t35 18t29 24t22 25v324h107v-369v0z"/>
    <glyph glyph-name="uni044E.aalt" horiz-adv-x="829" d="M792 240q0 -62 -21.5 -109.5t-57.5 -79.5t-83 -48t-98 -16q-45 0 -87.5 13.5t-77 39.5t-58.5 65t-31 90h-104v-195h-107v700h107v-415h104q7 51 31 90t58.5 65t77 39.5t87.5 13.5q51 0 98 -16t83 -48t57.5 -79.5t21.5 -109.5zM380 240q0 -71 41.5 -114.5t110.5 -43.5 t110 43.5t41 114.5t-41 114.5t-110 43.5t-110.5 -43.5t-41.5 -114.5z"/>
    <glyph glyph-name="uni0430.aalt" horiz-adv-x="622" d="M459 76q-14 -18 -32 -34t-40.5 -28t-50 -19.5t-61.5 -7.5q-54 0 -98 20t-75 54.5t-48 80.5t-17 98t17 98t48 80.5t75 54.5t98 20q34 0 61.5 -7.5t50 -19.5t40.5 -28t32 -33v75h96v-480h-96v76zM145 240q0 -35 11 -64.5t31 -50.5t47.5 -32.5t59.5 -11.5q28 0 52 8.5 t43.5 22.5t34 32t23.5 38v117q-9 19 -23.5 37.5t-34 32t-43.5 22t-52 8.5q-32 0 -59.5 -11.5t-47.5 -32.5t-31 -50.5t-11 -64.5z"/>
    <glyph glyph-name="uni0437.aalt" horiz-adv-x="470" d="M396 322q0 -41 -18.5 -78.5t-72.5 -66.5q63 -17 101.5 -67t38.5 -120q0 -55 -21 -96.5t-56 -69.5t-81.5 -42.5t-97.5 -14.5q-45 0 -88.5 10.5t-83.5 34.5v96q36 -26 77 -37.5t79 -11.5q33 0 63 8t52.5 24t36 41t13.5 59q0 30 -10.5 55t-30.5 42.5t-49 24t-65 -1.5 l-65 -15v91l73 16q31 8 50.5 20t30.5 27t15 31t4 31q0 24 -9.5 41.5t-25 28t-35.5 15.5t-42 5q-80 0 -154 -46v94q42 23 83.5 33.5t86.5 10.5q39 0 75 -10.5t64 -32t45 -54t17 -75.5z"/>
    <glyph glyph-name="uni0443.aalt" horiz-adv-x="589" d="M522 0q-1 -63 -23 -107t-58 -72t-82 -41t-96 -13q-51 0 -99 11t-82 31v95q32 -22 77 -32.5t90 -10.5q32 0 62 6.5t53 22.5t37 43.5t14 69.5v51q-26 -28 -65.5 -47.5t-89.5 -19.5q-48 0 -84.5 14.5t-62 40.5t-38.5 62t-13 79v297h107v-283q0 -59 29 -87t83 -28q23 0 43 7 t37 18.5t30.5 25.5t23.5 29v318h107v-480v0z"/>
    <glyph glyph-name="zero.oldstyle" horiz-adv-x="659" d="M617 260q0 -50 -18 -98.5t-53.5 -87.5t-89.5 -63t-126 -24t-126 24t-90 63t-54 87.5t-18 98.5q0 49 18 98t54 88t90 63t126 24t126 -24t89.5 -63t53.5 -88t18 -98zM157 260q0 -33 11 -63.5t32.5 -54t54 -37.5t75.5 -14q42 0 74.5 14t54 37.5t32.5 54t11 63.5t-11 63.5 t-32.5 54t-54 37.5t-74.5 14q-43 0 -75.5 -14t-54 -37.5t-32.5 -54t-11 -63.5z"/>
    <glyph glyph-name="one.oldstyle" horiz-adv-x="449" d="M303 520v-417h121v-103h-370v103h136v300l-136 -51v105l165 63h84z"/>
    <glyph glyph-name="two.oldstyle" horiz-adv-x="543" d="M42 0v56q0 45 19 75t48.5 50.5t65.5 35.5t71 31q24 11 47.5 21.5t42 22.5t29.5 27.5t11 36.5q0 35 -32 54.5t-80 19.5q-45 0 -95 -15t-104 -47v110q53 29 104 42t108 13q43 0 81.5 -11.5t68 -33t46.5 -53.5t17 -74q0 -38 -15.5 -65.5t-39.5 -48t-53 -35.5t-57 -28 q-25 -12 -48.5 -22t-42.5 -20t-32 -19.5t-17 -20.5l310 1v-103h-453z"/>
    <glyph glyph-name="three.oldstyle" horiz-adv-x="548" d="M480 347q0 -54 -27.5 -93.5t-73.5 -54.5q24 -8 47 -21.5t41.5 -34.5t29.5 -50t11 -68q0 -51 -22 -88.5t-57.5 -62t-80 -36t-90.5 -11.5q-65 0 -115 10.5t-101 33.5v108q52 -28 100 -38.5t107 -10.5q27 0 54 6t48.5 19t34.5 33t13 49t-11 48.5t-28.5 31.5t-40.5 17t-47 5 h-98v103l85 -1q51 -1 81.5 24.5t30.5 67.5q0 46 -35.5 71.5t-95.5 25.5q-93 0 -186 -50v106q44 23 93 35t109 12q47 0 88 -13t71 -37t47.5 -58.5t17.5 -77.5z"/>
    <glyph glyph-name="four.oldstyle" horiz-adv-x="604" d="M468 520v-442h110v-99h-110v-139h-110v139h-339v97l332 444h117zM358 367l-216 -289h216v289z"/>
    <glyph glyph-name="five.oldstyle" horiz-adv-x="540" d="M474 520v-102h-284l-10 -164q23 6 47.5 9t45.5 3q42 0 83.5 -11.5t74.5 -37t54 -67t21 -101.5q0 -55 -22 -96.5t-59 -69.5t-84 -42t-97 -14q-57 0 -106.5 11.5t-94.5 33.5v105q86 -47 188 -47q32 0 61 7.5t51 22.5t35 37.5t13 52.5q0 34 -13.5 57t-36 37.5t-52.5 21 t-63 6.5q-34 0 -77.5 -8t-85.5 -22l22 378h389z"/>
    <glyph glyph-name="six.oldstyle" horiz-adv-x="605" d="M165 381q82 51 178 51q40 0 80 -14t72.5 -41t52.5 -68t20 -95q0 -56 -20 -98.5t-54 -71t-77.5 -43t-91.5 -14.5q-70 0 -122 24t-86.5 68.5t-51.5 108t-17 143.5q0 95 26.5 163.5t69.5 112.5t98 65t113 21q46 0 85.5 -10t76.5 -30v-101q-71 40 -152 40q-32 0 -64.5 -10.5 t-60.5 -35t-48.5 -65t-26.5 -100.5zM164 276q10 -101 52 -146t103 -45q26 0 50 7t43 22t30 38.5t11 57.5q0 35 -12.5 58.5t-32.5 37.5t-45 20t-50 6q-40 0 -77.5 -13.5t-71.5 -42.5z"/>
    <glyph glyph-name="seven.oldstyle" horiz-adv-x="505" d="M491 520v-90l-269 -590h-123l263 578h-343v102h472z"/>
    <glyph glyph-name="eight.oldstyle" horiz-adv-x="623" d="M70 511q0 33 14.5 66t44 58.5t74.5 41.5t107 16q55 0 100 -16t76.5 -42.5t48.5 -60.5t18 -70q1 -48 -21.5 -90.5t-68.5 -74.5q48 -24 81 -62t33 -99q0 -36 -15 -70.5t-47 -61.5t-81.5 -43t-119.5 -16q-66 0 -116 16.5t-83.5 44t-51 64t-17.5 76.5q0 49 28.5 97.5 t83.5 80.5q-38 24 -63 59t-25 86zM316 298q-17 6 -36 13t-40 15q-42 -25 -61.5 -59t-19.5 -66q1 -54 42.5 -85t114.5 -31q65 0 106 25t41 66q0 25 -8 42t-25.5 29.5t-45.5 24t-68 26.5zM441 490q0 22 -9.5 41t-27 33.5t-42.5 23t-55 8.5q-58 0 -92 -25.5t-34 -60.5 q0 -42 30.5 -67.5t99.5 -49.5q14 -5 30 -10t34 -11q34 26 50 57t16 61z"/>
    <glyph glyph-name="nine.oldstyle" horiz-adv-x="593" d="M31 306q0 56 20 98.5t54 71t77.5 43t91.5 14.5q70 0 122 -24t86.5 -68.5t51.5 -108.5t17 -143q0 -95 -26.5 -163.5t-69.5 -112.5t-98 -65t-113 -21q-46 0 -85.5 10t-77.5 30v101q71 -40 152 -40q31 0 64 10.5t61 35t48.5 65t26.5 100.5q-42 -26 -85.5 -38t-91.5 -12 q-40 0 -80 14t-72.5 41t-52.5 67.5t-20 94.5zM280 435q-26 0 -50 -7t-43 -22t-30 -38.5t-11 -57.5q0 -35 12.5 -58.5t32.5 -37.5t45 -20t50 -6q80 0 148 55q-9 101 -51 146.5t-103 45.5z"/>
    <glyph glyph-name="zero.sinf" horiz-adv-x="434" d="M402 104q0 -44 -11 -83t-33.5 -67.5t-57.5 -45t-83 -16.5t-83 16.5t-57.5 45t-33.5 67.5t-11 83t11 83t33.5 67.5t57.5 45t83 16.5t83 -16.5t57.5 -45t33.5 -67.5t11 -83zM114 104q0 -67 24.5 -102t78.5 -35t78 35t24 102q0 68 -24 102.5t-78 34.5t-78.5 -34.5 t-24.5 -102.5z"/>
    <glyph glyph-name="one.sinf" horiz-adv-x="292" d="M202 308v-334h72v-74h-240v74h87v250l-84 -30v76l105 38h60z"/>
    <glyph glyph-name="two.sinf" horiz-adv-x="364" d="M43 274q31 23 66.5 32.5t72.5 9.5q64 0 105.5 -29t41.5 -89q0 -26 -10 -47t-26 -38.5t-36 -32t-40 -26.5q-38 -23 -66.5 -41.5t-30.5 -39.5l210 1v-74h-301v37q0 37 12.5 63.5t32 46.5t43 34.5t46.5 28.5q17 10 32 18.5t26.5 18.5t18 22t6.5 28q0 45 -71 45 q-32 0 -66 -11.5t-66 -35.5v79v0z"/>
    <glyph glyph-name="three.sinf" horiz-adv-x="366" d="M319 203q0 -32 -15.5 -54.5t-37.5 -32.5q12 -5 24 -13t22 -20.5t16.5 -30t6.5 -39.5q0 -32 -13 -55t-35.5 -37.5t-51.5 -21.5t-60 -7q-40 0 -74 6.5t-68 21.5v78q35 -20 67 -26t68 -6q37 0 63 11.5t26 43.5q0 31 -22 41.5t-54 10.5h-67v74h57q33 0 51.5 11.5t18.5 35.5 q0 48 -80 48q-28 0 -59.5 -8.5t-61.5 -26.5v78q57 31 132 31q65 0 106 -29t41 -84z"/>
    <glyph glyph-name="four.sinf" horiz-adv-x="401" d="M314 308v-257h65v-72h-65v-79h-79v79h-216v71l210 258h85zM235 203l-124 -152h124v152z"/>
    <glyph glyph-name="five.sinf" horiz-adv-x="362" d="M315 308v-74h-180l-5 -76q24 6 50 6q30 0 57.5 -7t49.5 -23t35 -42t13 -63q0 -35 -14 -60.5t-37.5 -42.5t-54.5 -25.5t-65 -8.5q-35 0 -69.5 7t-61.5 21v77q25 -16 57.5 -23.5t63.5 -7.5q42 0 70 14.5t28 49.5q0 38 -30 51.5t-75 13.5q-25 0 -51.5 -5t-50.5 -13l14 231 h256z"/>
    <glyph glyph-name="six.sinf" horiz-adv-x="393" d="M115 137q29 14 54.5 19.5t56.5 5.5q26 0 51.5 -8t46 -24.5t33 -41t12.5 -57.5q0 -35 -12.5 -61t-34 -43t-49.5 -26t-59 -9q-96 0 -139 56.5t-43 154.5q0 55 15.5 95t41.5 66t61 39t74 13q29 0 56.5 -6.5t53.5 -17.5v-76q-24 14 -50.5 20.5t-52.5 6.5q-19 0 -38 -5 t-34.5 -17.5t-27.5 -33t-16 -50.5zM115 65q6 -58 30.5 -80t62.5 -22q16 0 30 3t24.5 10.5t17 19.5t6.5 31t-7 31.5t-19 19.5t-27 9.5t-31 2.5q-22 0 -44 -5.5t-43 -19.5z"/>
    <glyph glyph-name="seven.sinf" horiz-adv-x="334" d="M72 -100l155 334h-209v74h300v-67l-157 -341h-89z"/>
    <glyph glyph-name="eight.sinf" horiz-adv-x="404" d="M45 204q0 20 9 40t28 36t48 26t70 10q36 0 65.5 -9.5t50 -26t31.5 -37.5t12 -44q1 -25 -10.5 -49.5t-37.5 -44.5q26 -14 44 -37.5t18 -58.5q0 -22 -9.5 -43t-29.5 -37.5t-52.5 -26.5t-77.5 -10q-44 0 -76.5 10t-54 27t-32 39t-10.5 46q0 26 15 54.5t46 48.5 q-20 15 -33.5 36.5t-13.5 50.5zM211 69q-13 5 -27.5 9t-29.5 10q-23 -14 -32 -32t-9 -32q1 -29 25.5 -45.5t69.5 -16.5q32 0 57.5 10.5t25.5 33.5q0 15 -6.5 24.5t-17.5 16.5t-25.5 12t-30.5 10zM278 189q0 25 -21 41t-59 16q-32 0 -52 -11.5t-20 -29.5q0 -15 7 -25t18 -17 t25.5 -12t29.5 -10q19 -5 42 -12q17 16 24 32t6 28z"/>
    <glyph glyph-name="nine.sinf" horiz-adv-x="393" d="M24 177q0 34 12.5 60.5t34 43.5t49.5 26t59 9q96 0 139 -56.5t43 -154.5q0 -55 -15.5 -95t-41.5 -66.5t-61 -39t-74 -12.5q-29 0 -57 6.5t-54 17.5v76q24 -14 51 -20.5t53 -6.5q19 0 38 5t34.5 17.5t27 33t16.5 50.5q-29 -14 -54.5 -19.5t-56.5 -5.5q-26 0 -51.5 8 t-46 24.5t-33 41t-12.5 57.5zM185 245q-32 0 -55.5 -13.5t-23.5 -50.5q0 -19 7 -31.5t19 -19.5t27 -9.5t31 -2.5q23 0 45.5 5.5t42.5 19.5q-6 58 -30.5 80t-62.5 22z"/>
    <glyph glyph-name="zero.superior" horiz-adv-x="434" d="M402 581q0 -44 -11 -83t-33.5 -67.5t-57.5 -45t-83 -16.5t-83 16.5t-57.5 45t-33.5 67.5t-11 83t11 83t33.5 67.5t57.5 45t83 16.5t83 -16.5t57.5 -45t33.5 -67.5t11 -83zM114 581q0 -67 24.5 -102t78.5 -35t78 35t24 102q0 68 -24 102.5t-78 34.5t-78.5 -34.5 t-24.5 -102.5z"/>
    <glyph glyph-name="one.superior" horiz-adv-x="292" d="M202 780v-334h72v-74h-240v74h87v250l-84 -30v76l105 38h60z"/>
    <glyph glyph-name="two.superior" horiz-adv-x="364" d="M43 751q31 23 66.5 32.5t72.5 9.5q64 0 105.5 -29t41.5 -89q0 -26 -10 -47t-26 -38.5t-36 -32t-40 -26.5q-38 -23 -66.5 -41.5t-30.5 -39.5l210 1v-74h-301v37q0 37 12.5 63.5t32 46.5t43 34.5t46.5 28.5q17 10 32 18.5t26.5 18.5t18 22t6.5 28q0 45 -71 45 q-32 0 -66 -11.5t-66 -35.5v79v0z"/>
    <glyph glyph-name="three.superior" horiz-adv-x="366" d="M319 680q0 -32 -15.5 -54.5t-37.5 -32.5q12 -5 24 -13t22 -20.5t16.5 -30t6.5 -39.5q0 -32 -13 -55t-35.5 -37.5t-51.5 -21.5t-60 -7q-40 0 -74 6.5t-68 21.5v78q35 -20 67 -26t68 -6q37 0 63 11.5t26 43.5q0 31 -22 41.5t-54 10.5h-67v74h57q33 0 51.5 11.5t18.5 35.5 q0 48 -80 48q-28 0 -59.5 -8.5t-61.5 -26.5v78q57 31 132 31q65 0 106 -29t41 -84z"/>
    <glyph glyph-name="four.superior" horiz-adv-x="401" d="M314 780v-257h65v-72h-65v-79h-79v79h-216v71l210 258h85zM235 675l-124 -152h124v152z"/>
    <glyph glyph-name="five.superior" horiz-adv-x="362" d="M315 780v-74h-180l-5 -76q24 6 50 6q30 0 57.5 -7t49.5 -23t35 -42t13 -63q0 -35 -14 -60.5t-37.5 -42.5t-54.5 -25.5t-65 -8.5q-35 0 -69.5 7t-61.5 21v77q25 -16 57.5 -23.5t63.5 -7.5q42 0 70 14.5t28 49.5q0 38 -30 51.5t-75 13.5q-25 0 -51.5 -5t-50.5 -13l14 231 h256z"/>
    <glyph glyph-name="six.superior" horiz-adv-x="393" d="M115 614q29 14 54.5 19.5t56.5 5.5q26 0 51.5 -8t46 -24.5t33 -41t12.5 -57.5q0 -35 -12.5 -61t-34 -43t-49.5 -26t-59 -9q-96 0 -139 56.5t-43 154.5q0 55 15.5 95t41.5 66t61 39t74 13q29 0 56.5 -6.5t53.5 -17.5v-76q-24 14 -50.5 20.5t-52.5 6.5q-19 0 -38 -5 t-34.5 -17.5t-27.5 -33t-16 -50.5zM115 542q6 -58 30.5 -80t62.5 -22q16 0 30 3t24.5 10.5t17 19.5t6.5 31t-7 31.5t-19 19.5t-27 9.5t-31 2.5q-22 0 -44 -5.5t-43 -19.5z"/>
    <glyph glyph-name="seven.superior" horiz-adv-x="334" d="M72 372l155 334h-209v74h300v-67l-157 -341h-89z"/>
    <glyph glyph-name="eight.superior" horiz-adv-x="404" d="M45 681q0 20 9 40t28 36t48 26t70 10q36 0 65.5 -9.5t50 -26t31.5 -37.5t12 -44q1 -25 -10.5 -49.5t-37.5 -44.5q26 -14 44 -37.5t18 -58.5q0 -22 -9.5 -43t-29.5 -37.5t-52.5 -26.5t-77.5 -10q-44 0 -76.5 10t-54 27t-32 39t-10.5 46q0 26 15 54.5t46 48.5 q-20 15 -33.5 36.5t-13.5 50.5zM211 546q-13 5 -27.5 9t-29.5 10q-23 -14 -32 -32t-9 -32q1 -29 25.5 -45.5t69.5 -16.5q32 0 57.5 10.5t25.5 33.5q0 15 -6.5 24.5t-17.5 16.5t-25.5 12t-30.5 10zM278 666q0 25 -21 41t-59 16q-32 0 -52 -11.5t-20 -29.5q0 -15 7 -25t18 -17 t25.5 -12t29.5 -10q19 -5 42 -12q17 16 24 32t6 28z"/>
    <glyph glyph-name="nine.superior" horiz-adv-x="393" d="M24 654q0 34 12.5 60.5t34 43.5t49.5 26t59 9q96 0 139 -56.5t43 -154.5q0 -55 -15.5 -95t-41.5 -66.5t-61 -39t-74 -12.5q-29 0 -57 6.5t-54 17.5v76q24 -14 51 -20.5t53 -6.5q19 0 38 5t34.5 17.5t27 33t16.5 50.5q-29 -14 -54.5 -19.5t-56.5 -5.5q-26 0 -51.5 8 t-46 24.5t-33 41t-12.5 57.5zM185 722q-32 0 -55.5 -13.5t-23.5 -50.5q0 -19 7 -31.5t19 -19.5t27 -9.5t31 -2.5q23 0 45.5 5.5t42.5 19.5q-6 58 -30.5 80t-62.5 22z"/>
    <glyph glyph-name="zero.tnum" d="M602 340q0 -75 -17.5 -139.5t-53 -112t-89 -74.5t-124.5 -27t-124.5 27t-89 74.5t-53 112t-17.5 139.5t17.5 139.5t53 112t89 74.5t124.5 27t124.5 -27t89 -74.5t53 -112t17.5 -139.5zM149 340q0 -119 43 -184t126 -65t126 65t43 184t-43 184t-126 65t-126 -65t-43 -184z "/>
    <glyph glyph-name="one.tnum" d="M393 680v-577h202v-103h-532v103h217v460l-184 -69v105l213 81h84z"/>
    <glyph glyph-name="two.tnum" d="M78 624q57 36 114 52.5t121 16.5q54 0 99.5 -12t78.5 -36t51 -59.5t18 -83.5q0 -43 -15.5 -78t-41.5 -63.5t-60.5 -52t-71.5 -44.5q-33 -18 -65.5 -36t-58 -37.5t-41.5 -41.5t-16 -47l385 1v-103h-513v52q0 62 22 107t56.5 78.5t76 58.5t81.5 46q32 17 59 33t47 34t31 40 t11 51q0 45 -37 67.5t-106 22.5q-57 0 -112 -18.5t-113 -57.5v110v0z"/>
    <glyph glyph-name="three.tnum" d="M550 507q0 -54 -27.5 -93.5t-73.5 -54.5q24 -8 47 -21.5t41.5 -34.5t29.5 -50t11 -68q0 -51 -21 -88.5t-58 -62t-86 -36t-105 -11.5q-72 0 -132 12.5t-114 35.5v109q55 -29 113 -42t124 -12q37 0 68.5 6t54 19t35 33t12.5 49t-11 48.5t-31.5 31.5t-48 17t-60.5 5h-115 v103l102 -1q69 -1 102.5 24.5t33.5 67.5q0 46 -38 71.5t-116 25.5q-53 0 -107.5 -15t-105.5 -44v109q47 25 104.5 39t123.5 14q56 0 102 -13t78.5 -37t50 -58.5t17.5 -77.5z"/>
    <glyph glyph-name="four.tnum" d="M500 680v-442h110v-99h-110v-139h-110v139h-369v97l362 444h117zM389 535l-241 -297h241v297z"/>
    <glyph glyph-name="five.tnum" d="M547 680v-102h-334l-10 -165q52 13 116 13q52 0 99 -11.5t83 -37t57 -67t21 -101.5q0 -55 -22 -96.5t-60.5 -69.5t-90.5 -42t-112 -14q-67 0 -125 12t-103 34v107q43 -25 98.5 -37.5t116.5 -12.5q84 0 133.5 30t49.5 90q0 34 -14 57t-39.5 37.5t-61.5 21t-80 6.5 q-49 0 -95 -8t-88 -22l22 378h439z"/>
    <glyph glyph-name="six.tnum" d="M166 376q49 29 96 42.5t102 13.5q44 0 86 -13.5t75 -41t53.5 -68t20.5 -94.5q0 -56 -20 -99t-54.5 -71.5t-80 -43t-96.5 -14.5q-78 0 -134 24t-92.5 68.5t-53.5 108t-17 143.5q0 95 24.5 163.5t67.5 112.5t100.5 65t122.5 21q94 0 176 -40v-104q-38 21 -80.5 32t-84.5 11 q-39 0 -74.5 -11t-64 -36t-48 -66.5t-24.5 -102.5zM167 275q10 -103 55 -146.5t117 -43.5q30 0 56 7t46 22t31.5 38.5t11.5 57.5q0 35 -12.5 58.5t-33.5 37.5t-48.5 20t-57.5 6q-43 0 -85.5 -14t-79.5 -43z"/>
    <glyph glyph-name="seven.tnum" d="M588 680v-90l-292 -590h-123l286 578h-406v102h535z"/>
    <glyph glyph-name="eight.tnum" d="M62 511q0 33 14.5 66t45.5 58.5t79.5 41.5t115.5 16q61 0 109 -16t81 -42.5t50 -60.5t18 -70q1 -48 -22 -90.5t-68 -74.5q48 -24 81 -62t33 -99q0 -36 -15.5 -70.5t-49.5 -61.5t-86.5 -43t-126.5 -16q-73 0 -126 17t-88 44.5t-52 64t-17 75.5q0 49 28.5 97t82.5 80 q-38 24 -62.5 59.5t-24.5 86.5zM330 294q-23 7 -47.5 15t-50.5 17q-42 -25 -61 -59t-19 -66q1 -53 44 -85t131 -32q34 0 63 6.5t50 18.5t33 28.5t12 36.5q0 28 -12.5 46.5t-34 31.5t-49.5 22.5t-59 19.5zM464 490q0 44 -38 75t-113 31q-66 0 -102.5 -24.5t-36.5 -59.5 q0 -29 13.5 -47.5t35 -31.5t48.5 -22l54 -18q17 -5 35.5 -10t37.5 -11q33 26 49.5 57t16.5 61z"/>
    <glyph glyph-name="nine.tnum" d="M38 465q0 56 20 99t54.5 71.5t80.5 43t97 14.5q78 0 134 -24t92 -69t53 -109t17 -145q0 -93 -25 -161t-67.5 -112t-100 -65t-122.5 -21q-93 0 -176 40v104q38 -21 80.5 -32t84.5 -11q39 0 75 11t64.5 36t47.5 66.5t24 102.5q-49 -29 -96 -42t-102 -13q-44 0 -86 13.5 t-75 40.5t-53.5 67.5t-20.5 94.5zM298 595q-30 0 -56 -7t-46 -22t-31.5 -38.5t-11.5 -57.5q0 -35 12.5 -58.5t34 -37.5t49 -20t57.5 -6q42 0 84.5 14t79.5 43q-10 103 -55 146.5t-117 43.5z"/>
    <glyph glyph-name="zero.tnum.oldstyle" d="M605 260q0 -50 -18 -98.5t-53.5 -87.5t-89.5 -63t-126 -24t-126 24t-90 63t-54 87.5t-18 98.5q0 49 18 98t54 88t90 63t126 24t126 -24t89.5 -63t53.5 -88t18 -98zM145 260q0 -33 11 -63.5t32.5 -54t54 -37.5t75.5 -14q42 0 74.5 14t54 37.5t32.5 54t11 63.5t-11 63.5 t-32.5 54t-54 37.5t-74.5 14q-43 0 -75.5 -14t-54 -37.5t-32.5 -54t-11 -63.5z"/>
    <glyph glyph-name="one.tnum.oldstyle" d="M391 520v-417h202v-103h-532v103h217v300l-184 -69v105l213 81h84z"/>
    <glyph glyph-name="two.tnum.oldstyle" d="M62 0v56q0 48 23 80.5t58.5 55t77 36t78.5 24.5q36 10 63.5 19.5t47 21t29.5 26.5t10 35q0 37 -38 56.5t-104 19.5q-49 0 -108.5 -18t-113.5 -56v110q53 35 113 51t119 16q55 0 100.5 -11.5t77.5 -34t50 -56t18 -76.5q0 -36 -14 -63t-38 -47t-57 -35t-71 -27 q-26 -9 -53.5 -17.5t-51.5 -18.5t-43 -21t-27 -24l360 1v-103h-506z"/>
    <glyph glyph-name="three.tnum.oldstyle" d="M546 347q0 -54 -27.5 -93.5t-73.5 -54.5q24 -8 47 -21.5t41.5 -34.5t29.5 -50t11 -68q0 -51 -21 -88.5t-57.5 -62t-85 -36t-102.5 -11.5q-74 0 -131.5 11t-111.5 34v110q55 -30 110 -41.5t124 -10.5q36 0 66.5 6t52.5 19t34.5 33t12.5 49t-11 48.5t-31 31.5t-47 17t-59 5 h-111v103l99 -1q66 -1 99 24.5t33 67.5q0 46 -38 71.5t-113 25.5q-112 0 -209 -56v109q46 24 101 37t124 13q55 0 100 -13t77 -37t49.5 -58.5t17.5 -77.5z"/>
    <glyph glyph-name="four.tnum.oldstyle" d="M496 520v-442h117v-99h-117v-139h-110v139h-369v97l362 444h117zM385 375l-241 -297h241v297z"/>
    <glyph glyph-name="five.tnum.oldstyle" d="M544 520v-102h-327l-10 -165q52 13 116 13q49 0 94.5 -11.5t81 -37t56.5 -67t21 -101.5q0 -55 -22 -96.5t-59.5 -69.5t-88.5 -42t-108 -14q-67 0 -125 12t-103 34v107q43 -25 98.5 -37.5t116.5 -12.5q78 0 127 29.5t49 90.5q0 34 -14 57t-38.5 37.5t-59 21t-76.5 6.5 q-49 0 -95 -8t-88 -22l22 378h432z"/>
    <glyph glyph-name="six.tnum.oldstyle" d="M166 376q49 29 96 42.5t102 13.5q44 0 86 -13.5t75 -41t53.5 -68t20.5 -94.5q0 -56 -20 -99t-54.5 -71.5t-80 -43t-96.5 -14.5q-78 0 -134 24t-92.5 69t-53.5 109t-17 145q0 94 24.5 161.5t67.5 111.5t100.5 65t122.5 21q94 0 176 -40v-104q-38 21 -80.5 32t-84.5 11 q-39 0 -74.5 -11t-64 -36t-48 -66.5t-24.5 -102.5zM167 275q10 -103 55 -146.5t117 -43.5q30 0 56 7t46 22t31.5 38.5t11.5 57.5q0 35 -12.5 58.5t-33.5 37.5t-48.5 20t-57.5 6q-43 0 -85.5 -14t-79.5 -43z"/>
    <glyph glyph-name="seven.tnum.oldstyle" d="M588 520v-90l-292 -590h-123l286 578h-406v102h535z"/>
    <glyph glyph-name="eight.tnum.oldstyle" d="M62 511q0 33 14.5 66t45.5 58.5t79.5 41.5t115.5 16q61 0 109 -16t81 -42.5t50 -60.5t18 -70q1 -48 -22 -90.5t-68 -74.5q48 -24 81 -62t33 -99q0 -36 -15.5 -70.5t-49.5 -61.5t-86.5 -43t-126.5 -16q-73 0 -126 17t-88 44.5t-52 64t-17 75.5q0 49 28.5 97t82.5 80 q-38 24 -62.5 59.5t-24.5 86.5zM329 294q-23 7 -47.5 15t-50.5 17q-42 -25 -61 -59t-19 -66q1 -53 44 -85t131 -32q34 0 63 6.5t50 18.5t33 28.5t12 36.5q0 28 -12.5 46.5t-34 31.5t-49.5 22.5t-59 19.5zM463 490q0 44 -38 75t-113 31q-66 0 -102.5 -24.5t-36.5 -59.5 q0 -29 13.5 -47.5t35 -31.5t48.5 -22l54 -18q17 -5 35 -10t38 -11q33 26 49.5 57t16.5 61z"/>
    <glyph glyph-name="nine.tnum.oldstyle" d="M37 305q0 56 20 99t54.5 71.5t80.5 43t97 14.5q78 0 134 -24t92 -69t53 -109t17 -145q0 -94 -25 -161.5t-67.5 -111.5t-100 -65t-122.5 -21q-93 0 -176 40v104q38 -21 80.5 -32t84.5 -11q39 0 75 11t64.5 36t47.5 66.5t24 102.5q-49 -29 -96 -42t-102 -13q-44 0 -86 13.5 t-75 40.5t-53.5 67.5t-20.5 94.5zM297 435q-30 0 -56 -7t-46 -22t-31.5 -38.5t-11.5 -57.5q0 -35 12.5 -58.5t34 -37.5t49 -20t57.5 -6q42 0 84.5 14t79.5 43q-10 103 -55 146.5t-117 43.5z"/>
    <glyph glyph-name="zero.dnom" horiz-adv-x="434" d="M402 204q0 -44 -11 -83t-33.5 -67.5t-57.5 -45t-83 -16.5t-83 16.5t-57.5 45t-33.5 67.5t-11 83t11 83t33.5 67.5t57.5 45t83 16.5t83 -16.5t57.5 -45t33.5 -67.5t11 -83zM114 204q0 -67 24.5 -102t78.5 -35t78 35t24 102q0 68 -24 102.5t-78 34.5t-78.5 -34.5 t-24.5 -102.5z"/>
    <glyph glyph-name="one.dnom" horiz-adv-x="292" d="M202 408v-334h72v-74h-240v74h87v250l-84 -30v76l105 38h60z"/>
    <glyph glyph-name="two.dnom" horiz-adv-x="364" d="M43 374q31 23 66.5 32.5t72.5 9.5q64 0 105.5 -29t41.5 -89q0 -26 -10 -47t-26 -38.5t-36 -32t-40 -26.5q-38 -23 -66.5 -41.5t-30.5 -39.5l210 1v-74h-301v37q0 37 12.5 63.5t32 46.5t43 34.5t46.5 28.5q17 10 32 18.5t26.5 18.5t18 22t6.5 28q0 45 -71 45 q-32 0 -66 -11.5t-66 -35.5v79v0z"/>
    <glyph glyph-name="three.dnom" horiz-adv-x="366" d="M319 303q0 -32 -15.5 -54.5t-37.5 -32.5q12 -5 24 -13t22 -20.5t16.5 -30t6.5 -39.5q0 -32 -13 -55t-35.5 -37.5t-51.5 -21.5t-60 -7q-40 0 -74 6.5t-68 21.5v78q35 -20 67 -26t68 -6q37 0 63 11.5t26 43.5q0 31 -22 41.5t-54 10.5h-67v74h57q33 0 51.5 11.5t18.5 35.5 q0 48 -80 48q-28 0 -59.5 -8.5t-61.5 -26.5v78q57 31 132 31q65 0 106 -29t41 -84z"/>
    <glyph glyph-name="four.dnom" horiz-adv-x="401" d="M314 408v-257h65v-72h-65v-79h-79v79h-216v71l210 258h85zM235 303l-124 -152h124v152z"/>
    <glyph glyph-name="five.dnom" horiz-adv-x="362" d="M315 408v-74h-180l-5 -76q24 6 50 6q30 0 57.5 -7t49.5 -23t35 -42t13 -63q0 -35 -14 -60.5t-37.5 -42.5t-54.5 -25.5t-65 -8.5q-35 0 -69.5 7t-61.5 21v77q25 -16 57.5 -23.5t63.5 -7.5q42 0 70 14.5t28 49.5q0 38 -30 51.5t-75 13.5q-25 0 -51.5 -5t-50.5 -13l14 231 h256z"/>
    <glyph glyph-name="six.dnom" horiz-adv-x="393" d="M115 237q29 14 54.5 19.5t56.5 5.5q26 0 51.5 -8t46 -24.5t33 -41t12.5 -57.5q0 -35 -12.5 -61t-34 -43t-49.5 -26t-59 -9q-96 0 -139 56.5t-43 154.5q0 55 15.5 95t41.5 66t61 39t74 13q29 0 56.5 -6.5t53.5 -17.5v-76q-24 14 -50.5 20.5t-52.5 6.5q-19 0 -38 -5 t-34.5 -17.5t-27.5 -33t-16 -50.5zM115 165q6 -58 30.5 -80t62.5 -22q16 0 30 3t24.5 10.5t17 19.5t6.5 31t-7 31.5t-19 19.5t-27 9.5t-31 2.5q-22 0 -44 -5.5t-43 -19.5z"/>
    <glyph glyph-name="seven.dnom" horiz-adv-x="334" d="M72 0l155 334h-209v74h300v-67l-157 -341h-89z"/>
    <glyph glyph-name="eight.dnom" horiz-adv-x="404" d="M45 304q0 20 9 40t28 36t48 26t70 10q36 0 65.5 -9.5t50 -26t31.5 -37.5t12 -44q1 -25 -10.5 -49.5t-37.5 -44.5q26 -14 44 -37.5t18 -58.5q0 -22 -9.5 -43t-29.5 -37.5t-52.5 -26.5t-77.5 -10q-44 0 -76.5 10t-54 27t-32 39t-10.5 46q0 26 15 54.5t46 48.5 q-20 15 -33.5 36.5t-13.5 50.5zM211 169q-13 5 -27.5 9t-29.5 10q-23 -14 -32 -32t-9 -32q1 -29 25.5 -45.5t69.5 -16.5q32 0 57.5 10.5t25.5 33.5q0 15 -6.5 24.5t-17.5 16.5t-25.5 12t-30.5 10zM278 289q0 25 -21 41t-59 16q-32 0 -52 -11.5t-20 -29.5q0 -15 7 -25t18 -17 t25.5 -12t29.5 -10q19 -5 42 -12q17 16 24 32t6 28z"/>
    <glyph glyph-name="nine.dnom" horiz-adv-x="393" d="M24 277q0 34 12.5 60.5t34 43.5t49.5 26t59 9q96 0 139 -56.5t43 -154.5q0 -55 -15.5 -95t-41.5 -66.5t-61 -39t-74 -12.5q-29 0 -57 6.5t-54 17.5v76q24 -14 51 -20.5t53 -6.5q19 0 38 5t34.5 17.5t27 33t16.5 50.5q-29 -14 -54.5 -19.5t-56.5 -5.5q-26 0 -51.5 8 t-46 24.5t-33 41t-12.5 57.5zM185 345q-32 0 -55.5 -13.5t-23.5 -50.5q0 -19 7 -31.5t19 -19.5t27 -9.5t31 -2.5q23 0 45.5 5.5t42.5 19.5q-6 58 -30.5 80t-62.5 22z"/>
    <glyph glyph-name="zero.numr" horiz-adv-x="434" d="M402 481q0 -44 -11 -83t-33.5 -67.5t-57.5 -45t-83 -16.5t-83 16.5t-57.5 45t-33.5 67.5t-11 83t11 83t33.5 67.5t57.5 45t83 16.5t83 -16.5t57.5 -45t33.5 -67.5t11 -83zM114 481q0 -67 24.5 -102t78.5 -35t78 35t24 102q0 68 -24 102.5t-78 34.5t-78.5 -34.5 t-24.5 -102.5z"/>
    <glyph glyph-name="one.numr" horiz-adv-x="292" d="M202 680v-334h72v-74h-240v74h87v250l-84 -30v76l105 38h60z"/>
    <glyph glyph-name="two.numr" horiz-adv-x="364" d="M43 651q31 23 66.5 32.5t72.5 9.5q64 0 105.5 -29t41.5 -89q0 -26 -10 -47t-26 -38.5t-36 -32t-40 -26.5q-38 -23 -66.5 -41.5t-30.5 -39.5l210 1v-74h-301v37q0 37 12.5 63.5t32 46.5t43 34.5t46.5 28.5q17 10 32 18.5t26.5 18.5t18 22t6.5 28q0 45 -71 45 q-32 0 -66 -11.5t-66 -35.5v79v0z"/>
    <glyph glyph-name="three.numr" horiz-adv-x="366" d="M319 580q0 -32 -15.5 -54.5t-37.5 -32.5q12 -5 24 -13t22 -20.5t16.5 -30t6.5 -39.5q0 -32 -13 -55t-35.5 -37.5t-51.5 -21.5t-60 -7q-40 0 -74 6.5t-68 21.5v78q35 -20 67 -26t68 -6q37 0 63 11.5t26 43.5q0 31 -22 41.5t-54 10.5h-67v74h57q33 0 51.5 11.5t18.5 35.5 q0 48 -80 48q-28 0 -59.5 -8.5t-61.5 -26.5v78q57 31 132 31q65 0 106 -29t41 -84z"/>
    <glyph glyph-name="four.numr" horiz-adv-x="401" d="M314 680v-257h65v-72h-65v-79h-79v79h-216v71l210 258h85zM235 575l-124 -152h124v152z"/>
    <glyph glyph-name="five.numr" horiz-adv-x="362" d="M315 680v-74h-180l-5 -76q24 6 50 6q30 0 57.5 -7t49.5 -23t35 -42t13 -63q0 -35 -14 -60.5t-37.5 -42.5t-54.5 -25.5t-65 -8.5q-35 0 -69.5 7t-61.5 21v77q25 -16 57.5 -23.5t63.5 -7.5q42 0 70 14.5t28 49.5q0 38 -30 51.5t-75 13.5q-25 0 -51.5 -5t-50.5 -13l14 231 h256z"/>
    <glyph glyph-name="six.numr" horiz-adv-x="393" d="M115 514q29 14 54.5 19.5t56.5 5.5q26 0 51.5 -8t46 -24.5t33 -41t12.5 -57.5q0 -35 -12.5 -61t-34 -43t-49.5 -26t-59 -9q-96 0 -139 56.5t-43 154.5q0 55 15.5 95t41.5 66t61 39t74 13q29 0 56.5 -6.5t53.5 -17.5v-76q-24 14 -50.5 20.5t-52.5 6.5q-19 0 -38 -5 t-34.5 -17.5t-27.5 -33t-16 -50.5zM115 442q6 -58 30.5 -80t62.5 -22q16 0 30 3t24.5 10.5t17 19.5t6.5 31t-7 31.5t-19 19.5t-27 9.5t-31 2.5q-22 0 -44 -5.5t-43 -19.5z"/>
    <glyph glyph-name="seven.numr" horiz-adv-x="334" d="M72 272l155 334h-209v74h300v-67l-157 -341h-89z"/>
    <glyph glyph-name="eight.numr" horiz-adv-x="404" d="M45 581q0 20 9 40t28 36t48 26t70 10q36 0 65.5 -9.5t50 -26t31.5 -37.5t12 -44q1 -25 -10.5 -49.5t-37.5 -44.5q26 -14 44 -37.5t18 -58.5q0 -22 -9.5 -43t-29.5 -37.5t-52.5 -26.5t-77.5 -10q-44 0 -76.5 10t-54 27t-32 39t-10.5 46q0 26 15 54.5t46 48.5 q-20 15 -33.5 36.5t-13.5 50.5zM211 446q-13 5 -27.5 9t-29.5 10q-23 -14 -32 -32t-9 -32q1 -29 25.5 -45.5t69.5 -16.5q32 0 57.5 10.5t25.5 33.5q0 15 -6.5 24.5t-17.5 16.5t-25.5 12t-30.5 10zM278 566q0 25 -21 41t-59 16q-32 0 -52 -11.5t-20 -29.5q0 -15 7 -25t18 -17 t25.5 -12t29.5 -10q19 -5 42 -12q17 16 24 32t6 28z"/>
    <glyph glyph-name="nine.numr" horiz-adv-x="393" d="M24 554q0 34 12.5 60.5t34 43.5t49.5 26t59 9q96 0 139 -56.5t43 -154.5q0 -55 -15.5 -95t-41.5 -66.5t-61 -39t-74 -12.5q-29 0 -57 6.5t-54 17.5v76q24 -14 51 -20.5t53 -6.5q19 0 38 5t34.5 17.5t27 33t16.5 50.5q-29 -14 -54.5 -19.5t-56.5 -5.5q-26 0 -51.5 8 t-46 24.5t-33 41t-12.5 57.5zM185 622q-32 0 -55.5 -13.5t-23.5 -50.5q0 -19 7 -31.5t19 -19.5t27 -9.5t31 -2.5q23 0 45.5 5.5t42.5 19.5q-6 58 -30.5 80t-62.5 22z"/>
    <glyph glyph-name="emdash.aalt" horiz-adv-x="774" d="M63 302v96h648v-96h-648z"/>
    <glyph glyph-name="endash.aalt" horiz-adv-x="582" d="M63 302v96h456v-96h-456z"/>
    <glyph glyph-name="hyphen.aalt" horiz-adv-x="490" d="M427 398v-96h-364v96h364z"/>
    <glyph glyph-name="guillemotleft.aalt" horiz-adv-x="541" d="M377 163l-126 177v20l126 177h111l-132 -187l132 -187h-111zM171 163l-126 177v20l126 177h111l-133 -187l133 -187h-111z"/>
    <glyph glyph-name="guillemotright.aalt" horiz-adv-x="541" d="M259 163l132 187l-132 187h111l126 -177v-20l-126 -177h-111zM53 163l132 187l-132 187h111l126 -177v-20l-126 -177h-111z"/>
    <glyph glyph-name="guilsinglleft.aalt" horiz-adv-x="335" d="M171 163l-126 177v20l126 177h111l-133 -187l133 -187h-111z"/>
    <glyph glyph-name="guilsinglright.aalt" horiz-adv-x="335" d="M53 163l132 187l-132 187h111l126 -177v-20l-126 -177h-111z"/>
    <glyph glyph-name="cent.aalt" d="M412 84q31 3 59.5 12t51.5 23v-99q-48 -23 -111 -31v-109h-82v109q-44 5 -84.5 22t-71.5 47.5t-50 74.5t-19 103q0 60 19 105t50.5 76.5t72 49.5t83.5 23v110h82v-110q58 -6 106 -34v-98q-46 31 -106 39v-313zM330 391q-48 -12 -82 -48.5t-34 -102.5q0 -65 34 -102 t82 -49v302z"/>
    <glyph glyph-name="currency.aalt" d="M129 99l-62 62l80 79q-16 22 -24.5 50t-8.5 60t8.5 60t24.5 50l-80 80l62 62l83 -84q47 26 106 26q58 0 105 -26l84 84l61 -62l-79 -80q32 -44 32 -110t-32 -110l79 -79l-62 -62l-83 83q-47 -26 -105 -26q-59 0 -106 26zM212 350q0 -47 28 -75t78 -28q49 0 77 28t28 75 t-28 75.5t-77 28.5q-50 0 -78 -28.5t-28 -75.5z"/>
    <glyph glyph-name="dollar.aalt" d="M274 -130v119q-57 5 -109 20.5t-94 38.5v112q57 -37 122 -53t125 -16q34 0 61.5 4t47 13.5t30.5 25.5t11 41q0 30 -17.5 50t-46 34.5t-65 25.5t-74.5 23t-74.5 26.5t-65 37t-46 55t-17.5 78.5q0 44 16.5 77.5t45.5 56.5t67.5 36t82.5 17v118h82v-119q48 -5 92.5 -18 t79.5 -33v-109q-43 29 -98 44t-112 14q-64 0 -101.5 -18t-37.5 -63q0 -29 17.5 -47.5t46 -32.5t65 -24.5t74.5 -22.5t74.5 -27t65 -38t46 -55.5t17.5 -79.5q0 -51 -18 -86.5t-49 -58.5t-73 -34.5t-89 -13.5v-118h-82z"/>
    <glyph glyph-name="Euro.aalt" d="M239 233q16 -35 42.5 -61.5t59.5 -44t71 -26.5t76 -9q58 0 113 19v-104q-66 -20 -133 -20q-57 0 -113 15.5t-104 46.5t-84 77t-54 107h-90v79h76v28v28h-76v79h90q18 61 54 107t83 77t101.5 46.5t109.5 15.5q69 0 135 -20v-103q-53 18 -112 18q-37 0 -74 -9t-69.5 -26.5 t-59 -44t-42.5 -61.5h263v-79h-286q-1 -7 -1 -13.5v-14.5v-14.5t1 -13.5h286v-79h-263v0z"/>
    <glyph glyph-name="sterling.aalt" d="M42 0v100h32q32 0 50.5 23.5t18.5 59.5v105h-76v94h76v74q0 63 19.5 108t53.5 73.5t80.5 42t99.5 13.5q40 0 80.5 -9.5t74.5 -27.5v-100q-29 20 -65 31.5t-74 11.5q-71 0 -115.5 -34.5t-44.5 -110.5v-72h209v-94h-209v-105q0 -62 -31 -83h371v-100h-550z"/>
    <glyph glyph-name="yen.aalt" d="M617 680l-201 -344h124v-82h-166v-54h166v-82h-166v-118h-114v118h-164v82h164v54h-164v82h123l-201 344h125l174 -319l175 319h125z"/>
    </font>
</defs>
</svg>
